B612MonoLigaNerdFont-BoldIta.ufo
<glyph name="numbersign" format="2">
  <advance width="1300"/>
  <unicode hex="0023"/>
  <outline>
    <contour>
      <point x="1261" y="885" type="line"/>
      <point x="1299" y="1100" type="line"/>
      <point x="1138" y="1100" type="line"/>
      <point x="1269" y="1520" type="line"/>
      <point x="957" y="1500" type="line"/>
      <point x="925" y="1388"/>
      <point x="871" y="1217"/>
      <point x="836" y="1100" type="curve"/>
      <point x="669" y="1100" type="line"/>
      <point x="796" y="1520" type="line"/>
      <point x="455" y="1500" type="line"/>
      <point x="409" y="1235" type="line"/>
      <point x="394" y="1188"/>
      <point x="383" y="1147"/>
      <point x="368" y="1100" type="curve"/>
      <point x="146" y="1100" type="line"/>
      <point x="81" y="885" type="line"/>
      <point x="304" y="885" type="line"/>
      <point x="214" y="587" type="line"/>
      <point x="37" y="587" type="line"/>
      <point x="1" y="373" type="line"/>
      <point x="152" y="373" type="line"/>
      <point x="30" y="-17" type="line"/>
      <point x="338" y="0" type="line"/>
      <point x="373" y="112"/>
      <point x="418" y="256"/>
      <point x="453" y="373" type="curve"/>
      <point x="619" y="373" type="line"/>
      <point x="500" y="-17" type="line"/>
      <point x="809" y="0" type="line"/>
      <point x="844" y="112"/>
      <point x="887" y="256"/>
      <point x="922" y="373" type="curve"/>
      <point x="1152" y="373" type="line"/>
      <point x="1216" y="587" type="line"/>
      <point x="983" y="587" type="line"/>
      <point x="1015" y="700"/>
      <point x="1042" y="778"/>
      <point x="1074" y="885" type="curve"/>
    </contour>
    <contour>
      <point x="681" y="587" type="line"/>
      <point x="517" y="587" type="line"/>
      <point x="549" y="700"/>
      <point x="575" y="778"/>
      <point x="607" y="885" type="curve"/>
      <point x="771" y="885" type="line"/>
    </contour>
  </outline>
</glyph>
<glyph name="ampersand" format="2">
  <advance width="1300"/>
  <unicode hex="0026"/>
  <outline>
    <contour>
      <point x="955" y="720" type="line"/>
      <point x="951" y="699"/>
      <point x="945" y="666"/>
      <point x="938" y="621" type="curve" smooth="yes"/>
      <point x="930" y="576"/>
      <point x="922" y="545"/>
      <point x="915" y="527" type="curve"/>
      <point x="907" y="509"/>
      <point x="897" y="493"/>
      <point x="884" y="480" type="curve"/>
      <point x="831" y="599"/>
      <point x="826" y="605"/>
      <point x="791" y="688" type="curve"/>
      <point x="674" y="952"/>
      <point x="637" y="1032"/>
      <point x="632" y="1084" type="curve"/>
      <point x="631" y="1090"/>
      <point x="631" y="1096"/>
      <point x="631" y="1102" type="curve" smooth="yes"/>
      <point x="631" y="1112"/>
      <point x="632" y="1122"/>
      <point x="634" y="1133" type="curve" smooth="yes"/>
      <point x="642" y="1183"/>
      <point x="673" y="1250"/>
      <point x="768" y="1250" type="curve" smooth="yes"/>
      <point x="869" y="1250"/>
      <point x="915" y="1200"/>
      <point x="972" y="1100" type="curve"/>
      <point x="1146" y="1286" type="line"/>
      <point x="1075" y="1400"/>
      <point x="996" y="1500"/>
      <point x="790" y="1500" type="curve" smooth="yes"/>
      <point x="497" y="1500"/>
      <point x="353" y="1331"/>
      <point x="318" y="1134" type="curve"/>
      <point x="315" y="1120"/>
      <point x="314" y="1105"/>
      <point x="314" y="1089" type="curve" smooth="yes"/>
      <point x="314" y="1077"/>
      <point x="315" y="1047"/>
      <point x="324" y="1000" type="curve" smooth="yes"/>
      <point x="333" y="952"/>
      <point x="350" y="906"/>
      <point x="366" y="867" type="curve"/>
      <point x="240" y="801"/>
      <point x="85" y="662"/>
      <point x="50" y="454" type="curve" smooth="yes"/>
      <point x="45" y="425"/>
      <point x="42" y="397"/>
      <point x="42" y="369" type="curve" smooth="yes"/>
      <point x="42" y="337"/>
      <point x="47" y="299"/>
      <point x="58" y="255" type="curve" smooth="yes"/>
      <point x="68" y="211"/>
      <point x="91" y="168"/>
      <point x="126" y="125" type="curve" smooth="yes"/>
      <point x="196" y="39"/>
      <point x="308" y="-17"/>
      <point x="459" y="-17" type="curve" smooth="yes"/>
      <point x="553" y="-17"/>
      <point x="616" y="-5"/>
      <point x="680" y="11" type="curve"/>
      <point x="731" y="100" type="line"/>
      <point x="787" y="-17" type="line"/>
      <point x="1166" y="-17" type="line"/>
      <point x="1040" y="200" type="line"/>
      <point x="963" y="200" type="line"/>
      <point x="1090" y="298"/>
      <point x="1213" y="480"/>
      <point x="1258" y="740" type="curve"/>
    </contour>
    <contour>
      <point x="647" y="269" type="line"/>
      <point x="618" y="249"/>
      <point x="582" y="233"/>
      <point x="526" y="233" type="curve" smooth="yes"/>
      <point x="482" y="233"/>
      <point x="437" y="253"/>
      <point x="407" y="291" type="curve" smooth="yes"/>
      <point x="377" y="329"/>
      <point x="370" y="375"/>
      <point x="370" y="407" type="curve" smooth="yes"/>
      <point x="370" y="424"/>
      <point x="372" y="443"/>
      <point x="375" y="463" type="curve"/>
      <point x="385" y="516"/>
      <point x="404" y="560"/>
      <point x="433" y="596" type="curve"/>
      <point x="450" y="694" type="line"/>
    </contour>
  </outline>
</glyph>
<glyph name="quotesingle" format="2">
  <advance width="1300"/>
  <unicode hex="0027"/>
  <outline>
    <contour>
      <point x="276" y="1367" type="line" smooth="yes"/>
      <point x="261" y="1279"/>
      <point x="236" y="1175"/>
      <point x="213" y="1068" type="curve"/>
      <point x="352" y="1068" type="line"/>
      <point x="482" y="1201"/>
      <point x="530" y="1271"/>
      <point x="546" y="1367" type="curve"/>
      <point x="570" y="1500" type="line"/>
      <point x="300" y="1500" type="line"/>
    </contour>
  </outline>
</glyph>
<glyph name="parenleft" format="2">
  <advance width="1300"/>
  <unicode hex="0028"/>
  <outline>
    <contour>
      <point x="251" y="38" type="line"/>
      <point x="228" y="-86"/>
      <point x="229" y="-146"/>
      <point x="229" y="-161" type="curve" smooth="yes"/>
      <point x="229" y="-297"/>
      <point x="281" y="-420"/>
      <point x="510" y="-420" type="curve" smooth="yes"/>
      <point x="577" y="-420"/>
      <point x="670" y="-400"/>
      <point x="732" y="-365" type="curve"/>
      <point x="655" y="-245" type="line"/>
      <point x="635" y="-245"/>
      <point x="603" y="-244"/>
      <point x="579" y="-219" type="curve" smooth="yes"/>
      <point x="555" y="-194"/>
      <point x="549" y="-150"/>
      <point x="549" y="-122" type="curve" smooth="yes"/>
      <point x="549" y="-101"/>
      <point x="552" y="-75"/>
      <point x="557" y="-46" type="curve" smooth="yes"/>
      <point x="782" y="1227" type="line"/>
      <point x="814" y="1417"/>
      <point x="911" y="1431"/>
      <point x="959" y="1431" type="curve"/>
      <point x="1069" y="1545" type="line"/>
      <point x="1020" y="1581"/>
      <point x="933" y="1600"/>
      <point x="867" y="1600" type="curve" smooth="yes"/>
      <point x="562" y="1600"/>
      <point x="492" y="1406"/>
      <point x="449" y="1158" type="curve"/>
    </contour>
  </outline>
</glyph>
<glyph name="parenright" format="2">
  <advance width="1300"/>
  <unicode hex="0029"/>
  <outline>
    <contour>
      <point x="1022" y="1158" type="line"/>
      <point x="1043" y="1282"/>
      <point x="1043" y="1339"/>
      <point x="1043" y="1354" type="curve" smooth="yes"/>
      <point x="1043" y="1486"/>
      <point x="989" y="1600"/>
      <point x="760" y="1600" type="curve" smooth="yes"/>
      <point x="693" y="1600"/>
      <point x="600" y="1580"/>
      <point x="538" y="1545" type="curve"/>
      <point x="608" y="1431" type="line"/>
      <point x="632" y="1431"/>
      <point x="667" y="1428"/>
      <point x="691" y="1401" type="curve" smooth="yes"/>
      <point x="715" y="1373"/>
      <point x="720" y="1330"/>
      <point x="720" y="1301" type="curve" smooth="yes"/>
      <point x="720" y="1280"/>
      <point x="718" y="1256"/>
      <point x="713" y="1227" type="curve" smooth="yes"/>
      <point x="488" y="-46" type="line" smooth="yes"/>
      <point x="453" y="-242"/>
      <point x="360" y="-245"/>
      <point x="320" y="-245" type="curve"/>
      <point x="201" y="-365" type="line"/>
      <point x="250" y="-401"/>
      <point x="337" y="-420"/>
      <point x="403" y="-420" type="curve" smooth="yes"/>
      <point x="709" y="-420"/>
      <point x="779" y="-210"/>
      <point x="824" y="38" type="curve"/>
    </contour>
  </outline>
</glyph>
<glyph name="comma" format="2">
  <advance width="1300"/>
  <unicode hex="002C"/>
  <outline>
    <contour>
      <point x="366" y="156" type="curve" smooth="yes"/>
      <point x="364" y="143"/>
      <point x="363" y="130"/>
      <point x="363" y="118" type="curve" smooth="yes"/>
      <point x="363" y="93"/>
      <point x="368" y="57"/>
      <point x="393" y="29" type="curve" smooth="yes"/>
      <point x="418" y="1"/>
      <point x="456" y="-16"/>
      <point x="496" y="-17" type="curve"/>
      <point x="483" y="-88"/>
      <point x="446" y="-165"/>
      <point x="410" y="-228" type="curve" smooth="yes"/>
      <point x="389" y="-265"/>
      <point x="367" y="-302"/>
      <point x="342" y="-337" type="curve"/>
      <point x="399" y="-365" type="line"/>
      <point x="633" y="-180"/>
      <point x="687" y="-33"/>
      <point x="719" y="136" type="curve" smooth="yes"/>
      <point x="722" y="151"/>
      <point x="723" y="165"/>
      <point x="723" y="178" type="curve" smooth="yes"/>
      <point x="723" y="207"/>
      <point x="717" y="248"/>
      <point x="689" y="280" type="curve" smooth="yes"/>
      <point x="661" y="312"/>
      <point x="622" y="329"/>
      <point x="575" y="329" type="curve" smooth="yes"/>
      <point x="478" y="329"/>
      <point x="382" y="249"/>
    </contour>
  </outline>
</glyph>
<glyph name="hyphen" format="2">
  <advance width="1300"/>
  <unicode hex="002D"/>
  <outline>
    <contour>
      <point x="300" y="400" type="line"/>
      <point x="927" y="400" type="line"/>
      <point x="966" y="624" type="line"/>
      <point x="339" y="624" type="line"/>
    </contour>
  </outline>
</glyph>
<glyph name="period" format="2">
  <advance width="1300"/>
  <unicode hex="002E"/>
  <outline>
    <contour>
      <point x="352" y="183" type="curve"/>
      <point x="349" y="170"/>
      <point x="348" y="158"/>
      <point x="348" y="146" type="curve" smooth="yes"/>
      <point x="348" y="118"/>
      <point x="356" y="78"/>
      <point x="385" y="42" type="curve" smooth="yes"/>
      <point x="414" y="6"/>
      <point x="460" y="-17"/>
      <point x="515" y="-17" type="curve" smooth="yes"/>
      <point x="625" y="-17"/>
      <point x="726" y="74"/>
      <point x="747" y="183" type="curve" smooth="yes"/>
      <point x="749" y="195"/>
      <point x="750" y="207"/>
      <point x="750" y="218" type="curve" smooth="yes"/>
      <point x="750" y="247"/>
      <point x="744" y="287"/>
      <point x="714" y="323" type="curve" smooth="yes"/>
      <point x="684" y="359"/>
      <point x="639" y="381"/>
      <point x="584" y="381" type="curve" smooth="yes"/>
      <point x="476" y="381"/>
      <point x="371" y="292"/>
    </contour>
  </outline>
</glyph>
<glyph name="slash" format="2">
  <advance width="1300"/>
  <unicode hex="002F"/>
  <outline>
    <contour>
      <point x="1300" y="1600" type="line"/>
      <point x="977" y="1600" type="line"/>
      <point x="0" y="-100" type="line"/>
      <point x="331" y="-100" type="line"/>
    </contour>
  </outline>
</glyph>
<glyph name="two" format="2">
  <advance width="1300"/>
  <unicode hex="0032"/>
  <outline>
    <contour>
      <point x="1058" y="0" type="line"/>
      <point x="1093" y="200" type="line"/>
      <point x="451" y="200" type="line"/>
      <point x="523" y="283"/>
      <point x="719" y="460"/>
      <point x="880" y="621" type="curve"/>
      <point x="1042" y="780"/>
      <point x="1192" y="900"/>
      <point x="1224" y="1086" type="curve" smooth="yes"/>
      <point x="1228" y="1109"/>
      <point x="1230" y="1131"/>
      <point x="1230" y="1154" type="curve" smooth="yes"/>
      <point x="1230" y="1213"/>
      <point x="1218" y="1300"/>
      <point x="1151" y="1381" type="curve" smooth="yes"/>
      <point x="1083" y="1462"/>
      <point x="973" y="1517"/>
      <point x="821" y="1517" type="curve" smooth="yes"/>
      <point x="562" y="1517"/>
      <point x="374" y="1387"/>
      <point x="260" y="1183" type="curve"/>
      <point x="478" y="1096" type="line"/>
      <point x="563" y="1221"/>
      <point x="659" y="1300"/>
      <point x="768" y="1300" type="curve" smooth="yes"/>
      <point x="823" y="1300"/>
      <point x="862" y="1275"/>
      <point x="886" y="1236" type="curve" smooth="yes"/>
      <point x="910" y="1197"/>
      <point x="913" y="1160"/>
      <point x="913" y="1137" type="curve" smooth="yes"/>
      <point x="913" y="1124"/>
      <point x="912" y="1110"/>
      <point x="909" y="1097" type="curve"/>
      <point x="888" y="972"/>
      <point x="828" y="929"/>
      <point x="655" y="775" type="curve"/>
      <point x="505" y="639"/>
      <point x="241" y="387"/>
      <point x="81" y="190" type="curve"/>
      <point x="49" y="0" type="line"/>
    </contour>
  </outline>
</glyph>
<glyph name="three" format="2">
  <advance width="1300"/>
  <unicode hex="0033"/>
  <outline>
    <contour>
      <point x="329" y="760" type="line"/>
      <point x="368" y="763"/>
      <point x="497" y="770"/>
      <point x="537" y="770" type="curve" smooth="yes"/>
      <point x="620" y="770"/>
      <point x="693" y="757"/>
      <point x="744" y="725" type="curve" smooth="yes"/>
      <point x="795" y="692"/>
      <point x="811" y="646"/>
      <point x="811" y="603" type="curve" smooth="yes"/>
      <point x="811" y="590"/>
      <point x="810" y="577"/>
      <point x="807" y="563" type="curve" smooth="yes"/>
      <point x="767" y="347"/>
      <point x="434" y="211"/>
      <point x="118" y="200" type="curve"/>
      <point x="82" y="0" type="line"/>
      <point x="526" y="0"/>
      <point x="1077" y="177"/>
      <point x="1149" y="573" type="curve" smooth="yes"/>
      <point x="1154" y="600"/>
      <point x="1156" y="625"/>
      <point x="1156" y="650" type="curve" smooth="yes"/>
      <point x="1156" y="713"/>
      <point x="1141" y="795"/>
      <point x="1072" y="863" type="curve" smooth="yes"/>
      <point x="1003" y="931"/>
      <point x="892" y="969"/>
      <point x="752" y="969" type="curve"/>
      <point x="923" y="1052" type="line"/>
      <point x="1032" y="1137"/>
      <point x="1129" y="1222"/>
      <point x="1189" y="1327" type="curve"/>
      <point x="1220" y="1500" type="line"/>
      <point x="378" y="1500" type="line"/>
      <point x="321" y="1300" type="line"/>
      <point x="652" y="1300" type="line"/>
      <point x="926" y="1374" type="line"/>
      <point x="802" y="1222"/>
      <point x="494" y="1023"/>
      <point x="361" y="938" type="curve"/>
    </contour>
  </outline>
</glyph>
<glyph name="four" format="2">
  <advance width="1300"/>
  <unicode hex="0034"/>
  <outline>
    <contour>
      <point x="1212" y="500" type="line"/>
      <point x="1013" y="500" type="line"/>
      <point x="1066" y="800" type="line"/>
      <point x="741" y="780" type="line"/>
      <point x="692" y="500" type="line"/>
      <point x="401" y="500" type="line"/>
      <point x="621" y="763" type="line"/>
      <point x="1082" y="1500" type="line"/>
      <point x="805" y="1520" type="line"/>
      <point x="132" y="500" type="line"/>
      <point x="96" y="300" type="line"/>
      <point x="656" y="300" type="line"/>
      <point x="603" y="0" type="line"/>
      <point x="924" y="0" type="line"/>
      <point x="977" y="300" type="line"/>
      <point x="1155" y="300" type="line"/>
    </contour>
  </outline>
</glyph>
<glyph name="five" format="2">
  <advance width="1300"/>
  <unicode hex="0035"/>
  <outline>
    <contour>
      <point x="663" y="1300" type="line"/>
      <point x="1180" y="1300" type="line"/>
      <point x="1216" y="1500" type="line"/>
      <point x="350" y="1500" type="line"/>
      <point x="219" y="759" type="line"/>
      <point x="444" y="759" type="line"/>
      <point x="487" y="786"/>
      <point x="568" y="822"/>
      <point x="669" y="822" type="curve" smooth="yes"/>
      <point x="726" y="822"/>
      <point x="769" y="795"/>
      <point x="796" y="755" type="curve" smooth="yes"/>
      <point x="823" y="715"/>
      <point x="827" y="674"/>
      <point x="827" y="647" type="curve" smooth="yes"/>
      <point x="827" y="634"/>
      <point x="826" y="620"/>
      <point x="823" y="606" type="curve" smooth="yes"/>
      <point x="783" y="390"/>
      <point x="413" y="234"/>
      <point x="125" y="226" type="curve"/>
      <point x="85" y="0" type="line"/>
      <point x="517" y="0"/>
      <point x="1082" y="216"/>
      <point x="1154" y="626" type="curve" smooth="yes"/>
      <point x="1159" y="653"/>
      <point x="1161" y="680"/>
      <point x="1161" y="705" type="curve" smooth="yes"/>
      <point x="1161" y="736"/>
      <point x="1156" y="771"/>
      <point x="1146" y="812" type="curve" smooth="yes"/>
      <point x="1136" y="853"/>
      <point x="1113" y="893"/>
      <point x="1078" y="932" type="curve" smooth="yes"/>
      <point x="1006" y="1011"/>
      <point x="892" y="1059"/>
      <point x="737" y="1059" type="curve" smooth="yes"/>
      <point x="690" y="1059"/>
      <point x="652" y="1054"/>
      <point x="619" y="1046" type="curve"/>
    </contour>
  </outline>
</glyph>
<glyph name="six" format="2">
  <advance width="1300"/>
  <unicode hex="0036"/>
  <outline>
    <contour>
      <point x="1204" y="1498" type="line"/>
      <point x="1140" y="1517"/>
      <point x="1096" y="1517"/>
      <point x="1072" y="1517" type="curve" smooth="yes"/>
      <point x="578" y="1517"/>
      <point x="192" y="1099"/>
      <point x="108" y="627" type="curve" smooth="yes"/>
      <point x="95" y="551"/>
      <point x="96" y="495"/>
      <point x="96" y="486" type="curve" smooth="yes"/>
      <point x="96" y="279"/>
      <point x="187" y="-17"/>
      <point x="547" y="-17" type="curve" smooth="yes"/>
      <point x="877" y="-17"/>
      <point x="1142" y="229"/>
      <point x="1195" y="525" type="curve"/>
      <point x="1200" y="557"/>
      <point x="1203" y="587"/>
      <point x="1203" y="615" type="curve" smooth="yes"/>
      <point x="1203" y="692"/>
      <point x="1180" y="785"/>
      <point x="1099" y="855" type="curve" smooth="yes"/>
      <point x="1018" y="925"/>
      <point x="898" y="956"/>
      <point x="769" y="956" type="curve" smooth="yes"/>
      <point x="739" y="956"/>
      <point x="705" y="952"/>
      <point x="666" y="945" type="curve"/>
      <point x="475" y="800" type="line"/>
      <point x="579" y="1117"/>
      <point x="841" y="1300"/>
      <point x="1024" y="1300" type="curve" smooth="yes"/>
      <point x="1056" y="1300"/>
      <point x="1101" y="1299"/>
      <point x="1132" y="1280" type="curve"/>
    </contour>
    <contour>
      <point x="720" y="756" type="curve" smooth="yes"/>
      <point x="771" y="756"/>
      <point x="811" y="730"/>
      <point x="835" y="687" type="curve" smooth="yes"/>
      <point x="859" y="643"/>
      <point x="861" y="598"/>
      <point x="861" y="574" type="curve" smooth="yes"/>
      <point x="861" y="555"/>
      <point x="859" y="536"/>
      <point x="856" y="516" type="curve"/>
      <point x="829" y="368"/>
      <point x="734" y="200"/>
      <point x="589" y="200" type="curve" smooth="yes"/>
      <point x="491" y="200"/>
      <point x="439" y="309"/>
      <point x="428" y="434" type="curve" smooth="yes"/>
      <point x="423" y="490"/>
      <point x="427" y="532"/>
      <point x="440" y="601" type="curve"/>
      <point x="505" y="666"/>
      <point x="623" y="756"/>
    </contour>
  </outline>
</glyph>
<glyph name="seven" format="2">
  <advance width="1300"/>
  <unicode hex="0037"/>
  <outline>
    <contour>
      <point x="139" y="1272" type="line"/>
      <point x="775" y="1272" type="line"/>
      <point x="751" y="1228"/>
      <point x="698" y="1162"/>
      <point x="638" y="1086" type="curve" smooth="yes"/>
      <point x="494" y="905"/>
      <point x="303" y="657"/>
      <point x="212" y="418" type="curve"/>
      <point x="169" y="309"/>
      <point x="130" y="85"/>
      <point x="114" y="0" type="curve"/>
      <point x="451" y="0" type="line"/>
      <point x="469" y="103"/>
      <point x="494" y="250"/>
      <point x="523" y="346" type="curve" smooth="yes"/>
      <point x="582" y="546"/>
      <point x="771" y="789"/>
      <point x="915" y="976" type="curve"/>
      <point x="1039" y="1132"/>
      <point x="1144" y="1268"/>
      <point x="1157" y="1339" type="curve" smooth="yes"/>
      <point x="1186" y="1500" type="line"/>
      <point x="179" y="1500" type="line"/>
    </contour>
  </outline>
</glyph>
<glyph name="eight" format="2">
  <advance width="1300"/>
  <unicode hex="0038"/>
  <outline>
    <contour>
      <point x="810" y="1517" type="curve" smooth="yes"/>
      <point x="610" y="1517"/>
      <point x="327" y="1398"/>
      <point x="279" y="1124" type="curve"/>
      <point x="276" y="1111"/>
      <point x="275" y="1098"/>
      <point x="275" y="1086" type="curve" smooth="yes"/>
      <point x="275" y="1055"/>
      <point x="283" y="1015"/>
      <point x="314" y="970" type="curve" smooth="yes"/>
      <point x="345" y="925"/>
      <point x="391" y="884"/>
      <point x="446" y="848" type="curve"/>
      <point x="266" y="768"/>
      <point x="118" y="631"/>
      <point x="86" y="441" type="curve" smooth="yes"/>
      <point x="81" y="412"/>
      <point x="78" y="383"/>
      <point x="78" y="356" type="curve" smooth="yes"/>
      <point x="78" y="275"/>
      <point x="105" y="177"/>
      <point x="192" y="100" type="curve" smooth="yes"/>
      <point x="279" y="23"/>
      <point x="406" y="-17"/>
      <point x="545" y="-17" type="curve" smooth="yes"/>
      <point x="830" y="-17"/>
      <point x="1133" y="119"/>
      <point x="1189" y="427" type="curve" smooth="yes"/>
      <point x="1193" y="449"/>
      <point x="1195" y="471"/>
      <point x="1195" y="492" type="curve" smooth="yes"/>
      <point x="1195" y="539"/>
      <point x="1185" y="605"/>
      <point x="1140" y="675" type="curve" smooth="yes"/>
      <point x="1095" y="745"/>
      <point x="1026" y="801"/>
      <point x="945" y="844" type="curve"/>
      <point x="1064" y="905"/>
      <point x="1196" y="998"/>
      <point x="1220" y="1134" type="curve" smooth="yes"/>
      <point x="1224" y="1158"/>
      <point x="1226" y="1181"/>
      <point x="1226" y="1203" type="curve" smooth="yes"/>
      <point x="1226" y="1268"/>
      <point x="1207" y="1349"/>
      <point x="1134" y="1415" type="curve" smooth="yes"/>
      <point x="1061" y="1481"/>
      <point x="947" y="1517"/>
    </contour>
    <contour>
      <point x="605" y="1156" type="curve"/>
      <point x="618" y="1237"/>
      <point x="714" y="1300"/>
      <point x="789" y="1300" type="curve" smooth="yes"/>
      <point x="816" y="1300"/>
      <point x="849" y="1288"/>
      <point x="873" y="1264" type="curve" smooth="yes"/>
      <point x="897" y="1240"/>
      <point x="906" y="1209"/>
      <point x="906" y="1182" type="curve" smooth="yes"/>
      <point x="906" y="1173"/>
      <point x="905" y="1163"/>
      <point x="903" y="1152" type="curve" smooth="yes"/>
      <point x="888" y="1068"/>
      <point x="819" y="1003"/>
      <point x="739" y="964" type="curve"/>
      <point x="699" y="984"/>
      <point x="663" y="1009"/>
      <point x="637" y="1041" type="curve" smooth="yes"/>
      <point x="611" y="1073"/>
      <point x="603" y="1105"/>
      <point x="603" y="1130" type="curve" smooth="yes"/>
      <point x="603" y="1138"/>
      <point x="604" y="1147"/>
    </contour>
    <contour>
      <point x="863" y="422" type="curve" smooth="yes"/>
      <point x="839" y="282"/>
      <point x="705" y="200"/>
      <point x="585" y="200" type="curve" smooth="yes"/>
      <point x="533" y="200"/>
      <point x="483" y="223"/>
      <point x="448" y="262" type="curve" smooth="yes"/>
      <point x="413" y="301"/>
      <point x="403" y="348"/>
      <point x="403" y="384" type="curve" smooth="yes"/>
      <point x="403" y="396"/>
      <point x="404" y="408"/>
      <point x="406" y="421" type="curve"/>
      <point x="433" y="565"/>
      <point x="534" y="655"/>
      <point x="659" y="711" type="curve"/>
      <point x="714" y="683"/>
      <point x="771" y="647"/>
      <point x="812" y="600" type="curve" smooth="yes"/>
      <point x="852" y="552"/>
      <point x="866" y="504"/>
      <point x="866" y="461" type="curve" smooth="yes"/>
      <point x="866" y="448"/>
      <point x="865" y="435"/>
    </contour>
  </outline>
</glyph>
<glyph name="nine" format="2">
  <advance width="1300"/>
  <unicode hex="0039"/>
  <outline>
    <contour>
      <point x="190" y="-17" type="line"/>
      <point x="725" y="26"/>
      <point x="1098" y="400"/>
      <point x="1181" y="873" type="curve"/>
      <point x="1196" y="953"/>
      <point x="1194" y="1011"/>
      <point x="1194" y="1024" type="curve" smooth="yes"/>
      <point x="1194" y="1105"/>
      <point x="1181" y="1196"/>
      <point x="1142" y="1285" type="curve" smooth="yes"/>
      <point x="1085" y="1417"/>
      <point x="959" y="1517"/>
      <point x="741" y="1517" type="curve" smooth="yes"/>
      <point x="411" y="1517"/>
      <point x="163" y="1313"/>
      <point x="112" y="1017" type="curve" smooth="yes"/>
      <point x="107" y="986"/>
      <point x="104" y="956"/>
      <point x="104" y="927" type="curve" smooth="yes"/>
      <point x="104" y="890"/>
      <point x="110" y="849"/>
      <point x="123" y="804" type="curve" smooth="yes"/>
      <point x="136" y="758"/>
      <point x="162" y="714"/>
      <point x="201" y="673" type="curve" smooth="yes"/>
      <point x="280" y="590"/>
      <point x="402" y="544"/>
      <point x="547" y="544" type="curve" smooth="yes"/>
      <point x="570" y="544"/>
      <point x="593" y="545"/>
      <point x="614" y="548" type="curve"/>
      <point x="819" y="700" type="line"/>
      <point x="772" y="455"/>
      <point x="467" y="208"/>
      <point x="190" y="200" type="curve"/>
    </contour>
    <contour>
      <point x="594" y="761" type="curve" smooth="yes"/>
      <point x="531" y="761"/>
      <point x="488" y="793"/>
      <point x="463" y="844" type="curve" smooth="yes"/>
      <point x="438" y="895"/>
      <point x="438" y="941"/>
      <point x="438" y="962" type="curve" smooth="yes"/>
      <point x="438" y="985"/>
      <point x="440" y="1009"/>
      <point x="445" y="1034" type="curve"/>
      <point x="469" y="1178"/>
      <point x="585" y="1300"/>
      <point x="709" y="1300" type="curve" smooth="yes"/>
      <point x="773" y="1300"/>
      <point x="819" y="1254"/>
      <point x="845" y="1186" type="curve" smooth="yes"/>
      <point x="871" y="1118"/>
      <point x="872" y="1055"/>
      <point x="872" y="1023" type="curve" smooth="yes"/>
      <point x="872" y="997"/>
      <point x="870" y="971"/>
      <point x="866" y="945" type="curve"/>
      <point x="807" y="854"/>
      <point x="685" y="761"/>
    </contour>
  </outline>
</glyph>
<glyph name="colon" format="2">
  <advance width="1300"/>
  <unicode hex="003A"/>
  <outline>
    <contour>
      <point x="443" y="700" type="curve" smooth="yes"/>
      <point x="441" y="688"/>
      <point x="440" y="676"/>
      <point x="440" y="665" type="curve" smooth="yes"/>
      <point x="440" y="636"/>
      <point x="447" y="595"/>
      <point x="477" y="559" type="curve" smooth="yes"/>
      <point x="507" y="523"/>
      <point x="552" y="500"/>
      <point x="607" y="500" type="curve" smooth="yes"/>
      <point x="716" y="500"/>
      <point x="819" y="590"/>
      <point x="838" y="700" type="curve" smooth="yes"/>
      <point x="840" y="712"/>
      <point x="841" y="724"/>
      <point x="841" y="735" type="curve" smooth="yes"/>
      <point x="841" y="764"/>
      <point x="834" y="804"/>
      <point x="805" y="840" type="curve" smooth="yes"/>
      <point x="776" y="876"/>
      <point x="730" y="898"/>
      <point x="675" y="898" type="curve" smooth="yes"/>
      <point x="568" y="898"/>
      <point x="462" y="809"/>
    </contour>
    <contour>
      <point x="352" y="183" type="curve" smooth="yes"/>
      <point x="350" y="171"/>
      <point x="349" y="159"/>
      <point x="349" y="148" type="curve" smooth="yes"/>
      <point x="349" y="119"/>
      <point x="356" y="78"/>
      <point x="385" y="42" type="curve" smooth="yes"/>
      <point x="414" y="6"/>
      <point x="461" y="-17"/>
      <point x="516" y="-17" type="curve" smooth="yes"/>
      <point x="623" y="-17"/>
      <point x="728" y="74"/>
      <point x="747" y="183" type="curve" smooth="yes"/>
      <point x="749" y="195"/>
      <point x="750" y="207"/>
      <point x="750" y="218" type="curve" smooth="yes"/>
      <point x="750" y="247"/>
      <point x="743" y="287"/>
      <point x="714" y="323" type="curve" smooth="yes"/>
      <point x="685" y="359"/>
      <point x="639" y="381"/>
      <point x="584" y="381" type="curve" smooth="yes"/>
      <point x="477" y="381"/>
      <point x="371" y="292"/>
    </contour>
  </outline>
</glyph>
<glyph name="semicolon" format="2">
  <advance width="1300"/>
  <unicode hex="003B"/>
  <outline>
    <contour>
      <point x="443" y="700" type="curve" smooth="yes"/>
      <point x="441" y="688"/>
      <point x="440" y="676"/>
      <point x="440" y="665" type="curve" smooth="yes"/>
      <point x="440" y="636"/>
      <point x="447" y="595"/>
      <point x="476" y="559" type="curve" smooth="yes"/>
      <point x="505" y="523"/>
      <point x="552" y="500"/>
      <point x="607" y="500" type="curve" smooth="yes"/>
      <point x="714" y="500"/>
      <point x="819" y="591"/>
      <point x="838" y="700" type="curve" smooth="yes"/>
      <point x="840" y="712"/>
      <point x="841" y="724"/>
      <point x="841" y="735" type="curve" smooth="yes"/>
      <point x="841" y="764"/>
      <point x="835" y="804"/>
      <point x="805" y="840" type="curve" smooth="yes"/>
      <point x="775" y="876"/>
      <point x="730" y="898"/>
      <point x="675" y="898" type="curve" smooth="yes"/>
      <point x="567" y="898"/>
      <point x="462" y="809"/>
    </contour>
    <contour>
      <point x="366" y="156" type="curve" smooth="yes"/>
      <point x="364" y="143"/>
      <point x="363" y="130"/>
      <point x="363" y="118" type="curve" smooth="yes"/>
      <point x="363" y="93"/>
      <point x="368" y="57"/>
      <point x="393" y="29" type="curve" smooth="yes"/>
      <point x="418" y="1"/>
      <point x="456" y="-16"/>
      <point x="496" y="-17" type="curve"/>
      <point x="483" y="-88"/>
      <point x="446" y="-165"/>
      <point x="410" y="-228" type="curve" smooth="yes"/>
      <point x="389" y="-265"/>
      <point x="366" y="-302"/>
      <point x="342" y="-337" type="curve"/>
      <point x="399" y="-365" type="line"/>
      <point x="632" y="-180"/>
      <point x="689" y="-32"/>
      <point x="718" y="136" type="curve" smooth="yes"/>
      <point x="721" y="152"/>
      <point x="723" y="167"/>
      <point x="723" y="181" type="curve" smooth="yes"/>
      <point x="723" y="208"/>
      <point x="717" y="248"/>
      <point x="689" y="280" type="curve" smooth="yes"/>
      <point x="661" y="312"/>
      <point x="622" y="329"/>
      <point x="575" y="329" type="curve" smooth="yes"/>
      <point x="477" y="329"/>
      <point x="382" y="249"/>
    </contour>
  </outline>
</glyph>
<glyph name="less" format="2">
  <advance width="1300"/>
  <unicode hex="003C"/>
  <outline>
    <contour>
      <point x="123" y="770" type="line"/>
      <point x="83" y="545" type="line"/>
      <point x="1000" y="34" type="line"/>
      <point x="1047" y="302" type="line"/>
      <point x="442" y="654" type="line"/>
      <point x="1172" y="1009" type="line"/>
      <point x="1219" y="1277" type="line"/>
    </contour>
  </outline>
</glyph>
<glyph name="equal" format="2">
  <advance width="1300"/>
  <unicode hex="003D"/>
  <outline>
    <contour>
      <point x="265" y="581" type="line"/>
      <point x="1065" y="581" type="line"/>
      <point x="1104" y="800" type="line"/>
      <point x="304" y="800" type="line"/>
    </contour>
    <contour>
      <point x="195" y="181" type="line"/>
      <point x="995" y="181" type="line"/>
      <point x="1034" y="400" type="line"/>
      <point x="234" y="400" type="line"/>
    </contour>
  </outline>
</glyph>
<glyph name="greater" format="2">
  <advance width="1300"/>
  <unicode hex="003E"/>
  <outline>
    <contour>
      <point x="299" y="1278" type="line"/>
      <point x="252" y="1009" type="line"/>
      <point x="856" y="654" type="line"/>
      <point x="127" y="302" type="line"/>
      <point x="80" y="34" type="line"/>
      <point x="1177" y="545" type="line"/>
      <point x="1217" y="770" type="line"/>
    </contour>
  </outline>
</glyph>
<glyph name="question" format="2">
  <advance width="1300"/>
  <unicode hex="003F"/>
  <outline>
    <contour>
      <point x="1146" y="1124" type="curve" smooth="yes"/>
      <point x="1151" y="1150"/>
      <point x="1153" y="1175"/>
      <point x="1153" y="1198" type="curve" smooth="yes"/>
      <point x="1153" y="1273"/>
      <point x="1127" y="1357"/>
      <point x="1047" y="1422" type="curve" smooth="yes"/>
      <point x="967" y="1486"/>
      <point x="850" y="1517"/>
      <point x="723" y="1517" type="curve" smooth="yes"/>
      <point x="567" y="1517"/>
      <point x="355" y="1471"/>
      <point x="168" y="1268" type="curve"/>
      <point x="323" y="1117" type="line"/>
      <point x="438" y="1241"/>
      <point x="588" y="1283"/>
      <point x="657" y="1283" type="curve" smooth="yes"/>
      <point x="702" y="1283"/>
      <point x="745" y="1272"/>
      <point x="774" y="1248" type="curve"/>
      <point x="802" y="1223"/>
      <point x="810" y="1191"/>
      <point x="810" y="1164" type="curve" smooth="yes"/>
      <point x="810" y="1154"/>
      <point x="809" y="1143"/>
      <point x="807" y="1132" type="curve" smooth="yes"/>
      <point x="791" y="1045"/>
      <point x="727" y="993"/>
      <point x="657" y="942" type="curve"/>
      <point x="445" y="801"/>
      <point x="356" y="631"/>
      <point x="313" y="399" type="curve"/>
      <point x="630" y="434" type="line"/>
      <point x="659" y="601"/>
      <point x="762" y="699"/>
      <point x="852" y="765" type="curve"/>
      <point x="987" y="867"/>
      <point x="1116" y="963"/>
    </contour>
    <contour>
      <point x="273" y="149" type="curve" smooth="yes"/>
      <point x="271" y="139"/>
      <point x="270" y="129"/>
      <point x="270" y="119" type="curve" smooth="yes"/>
      <point x="270" y="96"/>
      <point x="275" y="63"/>
      <point x="300" y="33" type="curve" smooth="yes"/>
      <point x="324" y="3"/>
      <point x="363" y="-17"/>
      <point x="407" y="-17" type="curve" smooth="yes"/>
      <point x="498" y="-17"/>
      <point x="583" y="60"/>
      <point x="599" y="149" type="curve" smooth="yes"/>
      <point x="601" y="159"/>
      <point x="602" y="169"/>
      <point x="602" y="178" type="curve" smooth="yes"/>
      <point x="602" y="202"/>
      <point x="596" y="235"/>
      <point x="572" y="265" type="curve" smooth="yes"/>
      <point x="547" y="295"/>
      <point x="509" y="313"/>
      <point x="464" y="313" type="curve" smooth="yes"/>
      <point x="374" y="313"/>
      <point x="289" y="239"/>
    </contour>
  </outline>
</glyph>
<glyph name="at" format="2">
  <advance width="1300"/>
  <unicode hex="0040"/>
  <outline>
    <contour>
      <point x="1052" y="570" type="curve" smooth="yes"/>
      <point x="1004" y="317"/>
      <point x="895" y="169"/>
      <point x="851" y="169" type="curve" smooth="yes"/>
      <point x="836" y="169"/>
      <point x="828" y="173"/>
      <point x="828" y="180" type="curve"/>
      <point x="827" y="187"/>
      <point x="827" y="191"/>
      <point x="827" y="192" type="curve"/>
      <point x="827" y="205"/>
      <point x="830" y="224"/>
      <point x="835" y="249" type="curve"/>
      <point x="1001" y="952" type="line"/>
      <point x="969" y="969"/>
      <point x="916" y="981"/>
      <point x="836" y="981" type="curve" smooth="yes"/>
      <point x="652" y="981"/>
      <point x="354" y="770"/>
      <point x="314" y="340" type="curve" smooth="yes"/>
      <point x="311" y="313"/>
      <point x="310" y="288"/>
      <point x="310" y="265" type="curve" smooth="yes"/>
      <point x="310" y="184"/>
      <point x="327" y="102"/>
      <point x="374" y="50" type="curve" smooth="yes"/>
      <point x="421" y="-2"/>
      <point x="487" y="-17"/>
      <point x="555" y="-17" type="curve"/>
      <point x="621" y="57" type="line"/>
      <point x="637" y="12"/>
      <point x="688" y="-32"/>
      <point x="753" y="-32" type="curve" smooth="yes"/>
      <point x="1012" y="-32"/>
      <point x="1186" y="135"/>
      <point x="1266" y="519" type="curve" smooth="yes"/>
      <point x="1299" y="679"/>
      <point x="1307" y="802"/>
      <point x="1307" y="886" type="curve" smooth="yes"/>
      <point x="1307" y="949"/>
      <point x="1305" y="1053"/>
      <point x="1269" y="1171" type="curve" smooth="yes"/>
      <point x="1214" y="1346"/>
      <point x="1095" y="1460"/>
      <point x="894" y="1460" type="curve" smooth="yes"/>
      <point x="462" y="1460"/>
      <point x="105" y="1052"/>
      <point x="17" y="547" type="curve" smooth="yes"/>
      <point x="-6" y="416"/>
      <point x="-6" y="323"/>
      <point x="-6" y="284" type="curve" smooth="yes"/>
      <point x="-6" y="181"/>
      <point x="5" y="60"/>
      <point x="46" y="-65" type="curve" smooth="yes"/>
      <point x="106" y="-249"/>
      <point x="236" y="-382"/>
      <point x="450" y="-382" type="curve" smooth="yes"/>
      <point x="498" y="-382"/>
      <point x="613" y="-358"/>
      <point x="656" y="-313" type="curve"/>
      <point x="722" y="-66" type="line"/>
      <point x="646" y="-135"/>
      <point x="540" y="-162"/>
      <point x="499" y="-162" type="curve" smooth="yes"/>
      <point x="391" y="-162"/>
      <point x="319" y="-109"/>
      <point x="276" y="-26" type="curve" smooth="yes"/>
      <point x="232" y="58"/>
      <point x="220" y="164"/>
      <point x="220" y="261" type="curve" smooth="yes"/>
      <point x="220" y="273"/>
      <point x="221" y="298"/>
      <point x="222" y="335" type="curve" smooth="yes"/>
      <point x="223" y="372"/>
      <point x="229" y="422"/>
      <point x="240" y="487" type="curve" smooth="yes"/>
      <point x="251" y="552"/>
      <point x="264" y="614"/>
      <point x="281" y="673" type="curve" smooth="yes"/>
      <point x="357" y="949"/>
      <point x="628" y="1247"/>
      <point x="868" y="1247" type="curve" smooth="yes"/>
      <point x="947" y="1247"/>
      <point x="1002" y="1208"/>
      <point x="1036" y="1144" type="curve" smooth="yes"/>
      <point x="1053" y="1112"/>
      <point x="1065" y="1075"/>
      <point x="1073" y="1032" type="curve" smooth="yes"/>
      <point x="1089" y="946"/>
      <point x="1086" y="889"/>
      <point x="1086" y="884" type="curve" smooth="yes"/>
      <point x="1086" y="788"/>
      <point x="1073" y="679"/>
    </contour>
    <contour>
      <point x="619" y="181" type="line"/>
      <point x="598" y="170"/>
      <point x="580" y="168"/>
      <point x="571" y="168" type="curve" smooth="yes"/>
      <point x="558" y="168"/>
      <point x="540" y="171"/>
      <point x="524" y="194" type="curve" smooth="yes"/>
      <point x="508" y="217"/>
      <point x="507" y="252"/>
      <point x="507" y="269" type="curve" smooth="yes"/>
      <point x="507" y="304"/>
      <point x="511" y="356"/>
      <point x="538" y="457" type="curve" smooth="yes"/>
      <point x="599" y="686"/>
      <point x="718" y="758"/>
      <point x="783" y="774" type="curve"/>
      <point x="728" y="636" type="line"/>
    </contour>
  </outline>
</glyph>
<glyph name="A" format="2">
  <advance width="1300"/>
  <unicode hex="0041"/>
  <outline>
    <contour>
      <point x="627" y="646" type="line"/>
      <point x="763" y="990" type="line"/>
      <point x="862" y="1331" type="line"/>
      <point x="840" y="990" type="line"/>
      <point x="851" y="646" type="line"/>
    </contour>
    <contour>
      <point x="872" y="427" type="line"/>
      <point x="900" y="0" type="line"/>
      <point x="1234" y="0" type="line"/>
      <point x="1072" y="1520" type="line"/>
      <point x="680" y="1500" type="line"/>
      <point x="616" y="1284" type="line"/>
      <point x="35" y="0" type="line"/>
      <point x="353" y="0" type="line"/>
      <point x="530" y="427" type="line"/>
    </contour>
  </outline>
</glyph>
<glyph name="B" format="2">
  <advance width="1300"/>
  <unicode hex="0042"/>
  <outline>
    <contour>
      <point x="527" y="0" type="line" smooth="yes"/>
      <point x="888" y="0"/>
      <point x="1128" y="103"/>
      <point x="1192" y="455" type="curve" smooth="yes"/>
      <point x="1196" y="478"/>
      <point x="1198" y="500"/>
      <point x="1198" y="521" type="curve" smooth="yes"/>
      <point x="1198" y="565"/>
      <point x="1190" y="628"/>
      <point x="1147" y="690" type="curve" smooth="yes"/>
      <point x="1103" y="752"/>
      <point x="1035" y="797"/>
      <point x="954" y="826" type="curve"/>
      <point x="1101" y="886"/>
      <point x="1189" y="993"/>
      <point x="1214" y="1138" type="curve" smooth="yes"/>
      <point x="1218" y="1163"/>
      <point x="1220" y="1186"/>
      <point x="1220" y="1207" type="curve" smooth="yes"/>
      <point x="1220" y="1294"/>
      <point x="1184" y="1378"/>
      <point x="1081" y="1437" type="curve" smooth="yes"/>
      <point x="977" y="1496"/>
      <point x="828" y="1517"/>
      <point x="668" y="1517" type="curve" smooth="yes"/>
      <point x="580" y="1517"/>
      <point x="401" y="1505"/>
      <point x="284" y="1489" type="curve"/>
      <point x="284" y="1262" type="line"/>
      <point x="63" y="0" type="line"/>
    </contour>
    <contour>
      <point x="626" y="1301" type="line"/>
      <point x="647" y="1304"/>
      <point x="673" y="1305"/>
      <point x="692" y="1305" type="curve" smooth="yes"/>
      <point x="747" y="1305"/>
      <point x="807" y="1297"/>
      <point x="851" y="1272" type="curve" smooth="yes"/>
      <point x="894" y="1247"/>
      <point x="911" y="1206"/>
      <point x="911" y="1166" type="curve" smooth="yes"/>
      <point x="911" y="1154"/>
      <point x="910" y="1141"/>
      <point x="907" y="1128" type="curve"/>
      <point x="878" y="966"/>
      <point x="725" y="900"/>
      <point x="600" y="900" type="curve" smooth="yes"/>
      <point x="571" y="900" type="line"/>
      <point x="612" y="1130" type="line"/>
    </contour>
    <contour>
      <point x="535" y="693" type="line"/>
      <point x="630" y="693" type="line" smooth="yes"/>
      <point x="710" y="693"/>
      <point x="777" y="679"/>
      <point x="821" y="644" type="curve" smooth="yes"/>
      <point x="864" y="608"/>
      <point x="873" y="560"/>
      <point x="873" y="520" type="curve" smooth="yes"/>
      <point x="873" y="503"/>
      <point x="871" y="485"/>
      <point x="868" y="465" type="curve" smooth="yes"/>
      <point x="836" y="285"/>
      <point x="710" y="228"/>
      <point x="510" y="228" type="curve" smooth="yes"/>
      <point x="453" y="228" type="line"/>
    </contour>
  </outline>
</glyph>
<glyph name="C" format="2">
  <advance width="1300"/>
  <unicode hex="0043"/>
  <outline>
    <contour>
      <point x="975" y="340" type="line"/>
      <point x="818" y="260"/>
      <point x="734" y="233"/>
      <point x="643" y="233" type="curve" smooth="yes"/>
      <point x="440" y="233"/>
      <point x="386" y="448"/>
      <point x="386" y="614" type="curve" smooth="yes"/>
      <point x="386" y="637"/>
      <point x="385" y="691"/>
      <point x="400" y="772" type="curve"/>
      <point x="448" y="1048"/>
      <point x="569" y="1270"/>
      <point x="822" y="1270" type="curve" smooth="yes"/>
      <point x="913" y="1270"/>
      <point x="1013" y="1219"/>
      <point x="1091" y="1160" type="curve"/>
      <point x="1271" y="1344" type="line"/>
      <point x="1176" y="1455"/>
      <point x="1021" y="1517"/>
      <point x="850" y="1517" type="curve" smooth="yes"/>
      <point x="300" y="1517"/>
      <point x="122" y="1172"/>
      <point x="50" y="769" type="curve" smooth="yes"/>
      <point x="39" y="708"/>
      <point x="34" y="648"/>
      <point x="34" y="589" type="curve" smooth="yes"/>
      <point x="34" y="254"/>
      <point x="211" y="-17"/>
      <point x="575" y="-17" type="curve" smooth="yes"/>
      <point x="748" y="-17"/>
      <point x="905" y="25"/>
      <point x="1058" y="133" type="curve"/>
    </contour>
  </outline>
</glyph>
<glyph name="D" format="2">
  <advance width="1300"/>
  <unicode hex="0044"/>
  <outline>
    <contour>
      <point x="223" y="1262" type="line"/>
      <point x="2" y="0" type="line"/>
      <point x="353" y="0" type="line" smooth="yes"/>
      <point x="900" y="0"/>
      <point x="1171" y="226"/>
      <point x="1272" y="807" type="curve" smooth="yes"/>
      <point x="1281" y="860"/>
      <point x="1286" y="909"/>
      <point x="1286" y="955" type="curve" smooth="yes"/>
      <point x="1286" y="982"/>
      <point x="1283" y="1019"/>
      <point x="1277" y="1066" type="curve" smooth="yes"/>
      <point x="1271" y="1112"/>
      <point x="1255" y="1161"/>
      <point x="1228" y="1214" type="curve" smooth="yes"/>
      <point x="1201" y="1267"/>
      <point x="1166" y="1312"/>
      <point x="1123" y="1350" type="curve" smooth="yes"/>
      <point x="995" y="1464"/>
      <point x="816" y="1517"/>
      <point x="628" y="1517" type="curve" smooth="yes"/>
      <point x="539" y="1517"/>
      <point x="356" y="1513"/>
      <point x="223" y="1500" type="curve"/>
    </contour>
    <contour>
      <point x="557" y="1282" type="line"/>
      <point x="565" y="1282" type="line" smooth="yes"/>
      <point x="570" y="1282"/>
      <point x="575" y="1283"/>
      <point x="579" y="1283" type="curve" smooth="yes"/>
      <point x="759" y="1283"/>
      <point x="859" y="1232"/>
      <point x="907" y="1143" type="curve" smooth="yes"/>
      <point x="931" y="1098"/>
      <point x="943" y="1060"/>
      <point x="944" y="1027" type="curve" smooth="yes"/>
      <point x="945" y="994"/>
      <point x="945" y="975"/>
      <point x="945" y="970" type="curve" smooth="yes"/>
      <point x="945" y="911"/>
      <point x="939" y="847"/>
      <point x="926" y="778" type="curve" smooth="yes"/>
      <point x="890" y="583"/>
      <point x="817" y="250"/>
      <point x="396" y="250" type="curve"/>
      <point x="549" y="1121" type="line"/>
    </contour>
  </outline>
</glyph>
<glyph name="F" format="2">
  <advance width="1300"/>
  <unicode hex="0046"/>
  <outline>
    <contour>
      <point x="507" y="703" type="line"/>
      <point x="1020" y="703" type="line"/>
      <point x="1058" y="916" type="line"/>
      <point x="545" y="916" type="line"/>
      <point x="583" y="1134" type="line"/>
      <point x="593" y="1272" type="line"/>
      <point x="1197" y="1272" type="line"/>
      <point x="1264" y="1500" type="line"/>
      <point x="255" y="1500" type="line"/>
      <point x="255" y="1263" type="line"/>
      <point x="32" y="0" type="line"/>
      <point x="383" y="0" type="line"/>
    </contour>
  </outline>
</glyph>
<glyph name="G" format="2">
  <advance width="1300"/>
  <unicode hex="0047"/>
  <outline>
    <contour>
      <point x="1266" y="840" type="line"/>
      <point x="640" y="840" type="line"/>
      <point x="604" y="635" type="line"/>
      <point x="895" y="616" type="line"/>
      <point x="837" y="289" type="line"/>
      <point x="789" y="255"/>
      <point x="705" y="221"/>
      <point x="639" y="221" type="curve" smooth="yes"/>
      <point x="435" y="221"/>
      <point x="384" y="446"/>
      <point x="384" y="611" type="curve" smooth="yes"/>
      <point x="384" y="884"/>
      <point x="511" y="1280"/>
      <point x="838" y="1280" type="curve" smooth="yes"/>
      <point x="931" y="1280"/>
      <point x="1030" y="1229"/>
      <point x="1108" y="1170" type="curve"/>
      <point x="1286" y="1344" type="line"/>
      <point x="1189" y="1456"/>
      <point x="1037" y="1517"/>
      <point x="865" y="1517" type="curve" smooth="yes"/>
      <point x="395" y="1517"/>
      <point x="119" y="1173"/>
      <point x="47" y="769" type="curve" smooth="yes"/>
      <point x="36" y="707"/>
      <point x="31" y="647"/>
      <point x="31" y="589" type="curve" smooth="yes"/>
      <point x="31" y="546"/>
      <point x="36" y="491"/>
      <point x="46" y="424" type="curve" smooth="yes"/>
      <point x="55" y="356"/>
      <point x="82" y="286"/>
      <point x="127" y="215" type="curve"/>
      <point x="215" y="72"/>
      <point x="365" y="-17"/>
      <point x="572" y="-17" type="curve" smooth="yes"/>
      <point x="817" y="-17"/>
      <point x="1013" y="88"/>
      <point x="1157" y="221" type="curve"/>
    </contour>
  </outline>
</glyph>
<glyph name="H" format="2">
  <advance width="1300"/>
  <unicode hex="0048"/>
  <outline>
    <contour>
      <point x="1018" y="0" type="line"/>
      <point x="1287" y="1520" type="line"/>
      <point x="937" y="1500" type="line"/>
      <point x="834" y="916" type="line"/>
      <point x="518" y="916" type="line"/>
      <point x="625" y="1520" type="line"/>
      <point x="232" y="1500" type="line"/>
      <point x="232" y="1263" type="line"/>
      <point x="10" y="0" type="line"/>
      <point x="356" y="0" type="line"/>
      <point x="478" y="688" type="line"/>
      <point x="794" y="688" type="line"/>
      <point x="672" y="0" type="line"/>
    </contour>
  </outline>
</glyph>
<glyph name="I" format="2">
  <advance width="1300"/>
  <unicode hex="0049"/>
  <outline>
    <contour>
      <point x="272" y="1272" type="line"/>
      <point x="578" y="1272" type="line"/>
      <point x="393" y="228" type="line"/>
      <point x="115" y="228" type="line"/>
      <point x="75" y="0" type="line"/>
      <point x="953" y="0" type="line"/>
      <point x="1028" y="228" type="line"/>
      <point x="727" y="228" type="line"/>
      <point x="912" y="1272" type="line"/>
      <point x="1185" y="1272" type="line"/>
      <point x="1225" y="1500" type="line"/>
      <point x="347" y="1500" type="line"/>
    </contour>
  </outline>
</glyph>
<glyph name="J" format="2">
  <advance width="1300"/>
  <unicode hex="004A"/>
  <outline>
    <contour>
      <point x="450" y="1266" type="line"/>
      <point x="871" y="1266" type="line"/>
      <point x="827" y="1132" type="line"/>
      <point x="706" y="444" type="line" smooth="yes"/>
      <point x="679" y="289"/>
      <point x="584" y="244"/>
      <point x="504" y="244" type="curve" smooth="yes"/>
      <point x="336" y="244"/>
      <point x="271" y="353"/>
      <point x="239" y="400" type="curve"/>
      <point x="50" y="200" type="line"/>
      <point x="124" y="84"/>
      <point x="230" y="-17"/>
      <point x="489" y="-17" type="curve" smooth="yes"/>
      <point x="645" y="-17"/>
      <point x="797" y="34"/>
      <point x="884" y="121" type="curve" smooth="yes"/>
      <point x="977" y="214"/>
      <point x="1036" y="321"/>
      <point x="1057" y="446" type="curve"/>
      <point x="1243" y="1500" type="line"/>
      <point x="471" y="1500" type="line"/>
    </contour>
  </outline>
</glyph>
<glyph name="K" format="2">
  <advance width="1300"/>
  <unicode hex="004B"/>
  <outline>
    <contour>
      <point x="358" y="0" type="line"/>
      <point x="454" y="540" type="line"/>
      <point x="758" y="0" type="line"/>
      <point x="1138" y="0" type="line"/>
      <point x="735" y="716" type="line"/>
      <point x="527" y="800" type="line"/>
      <point x="777" y="900" type="line"/>
      <point x="1292" y="1500" type="line"/>
      <point x="924" y="1500" type="line"/>
      <point x="541" y="1035" type="line"/>
      <point x="627" y="1520" type="line"/>
      <point x="230" y="1500" type="line"/>
      <point x="230" y="1263" type="line"/>
      <point x="8" y="0" type="line"/>
    </contour>
  </outline>
</glyph>
<glyph name="O" format="2">
  <advance width="1300"/>
  <unicode hex="004F"/>
  <outline>
    <contour>
      <point x="562" y="226" type="curve" smooth="yes"/>
      <point x="413" y="226"/>
      <point x="378" y="368"/>
      <point x="378" y="513" type="curve" smooth="yes"/>
      <point x="378" y="604"/>
      <point x="391" y="694"/>
      <point x="406" y="783" type="curve" smooth="yes"/>
      <point x="442" y="999"/>
      <point x="530" y="1274"/>
      <point x="736" y="1274" type="curve" smooth="yes"/>
      <point x="886" y="1274"/>
      <point x="921" y="1131"/>
      <point x="921" y="994" type="curve" smooth="yes"/>
      <point x="921" y="945"/>
      <point x="917" y="897"/>
      <point x="911" y="848" type="curve" smooth="yes"/>
      <point x="887" y="645"/>
      <point x="813" y="226"/>
    </contour>
    <contour>
      <point x="514" y="-17" type="curve" smooth="yes"/>
      <point x="917" y="-17"/>
      <point x="1172" y="330"/>
      <point x="1248" y="750" type="curve" smooth="yes"/>
      <point x="1261" y="820"/>
      <point x="1267" y="887"/>
      <point x="1267" y="952" type="curve" smooth="yes"/>
      <point x="1267" y="984"/>
      <point x="1264" y="1031"/>
      <point x="1258" y="1094" type="curve" smooth="yes"/>
      <point x="1251" y="1156"/>
      <point x="1229" y="1222"/>
      <point x="1191" y="1291" type="curve" smooth="yes"/>
      <point x="1115" y="1430"/>
      <point x="981" y="1517"/>
      <point x="785" y="1517" type="curve" smooth="yes"/>
      <point x="384" y="1517"/>
      <point x="123" y="1170"/>
      <point x="51" y="750" type="curve"/>
      <point x="-25" y="330"/>
      <point x="124" y="-17"/>
    </contour>
  </outline>
</glyph>
<glyph name="Q" format="2">
  <advance width="1300"/>
  <unicode hex="0051"/>
  <outline>
    <contour>
      <point x="1075" y="50" type="line"/>
      <point x="1002" y="50"/>
      <point x="914" y="47"/>
      <point x="879" y="127" type="curve"/>
      <point x="1074" y="258"/>
      <point x="1209" y="534"/>
      <point x="1252" y="780" type="curve" smooth="yes"/>
      <point x="1264" y="849"/>
      <point x="1270" y="914"/>
      <point x="1270" y="976" type="curve" smooth="yes"/>
      <point x="1270" y="1009"/>
      <point x="1267" y="1056"/>
      <point x="1260" y="1117" type="curve" smooth="yes"/>
      <point x="1253" y="1178"/>
      <point x="1231" y="1241"/>
      <point x="1192" y="1307" type="curve" smooth="yes"/>
      <point x="1115" y="1438"/>
      <point x="980" y="1517"/>
      <point x="784" y="1517" type="curve" smooth="yes"/>
      <point x="383" y="1517"/>
      <point x="122" y="1170"/>
      <point x="50" y="750" type="curve" smooth="yes"/>
      <point x="27" y="617"/>
      <point x="31" y="549"/>
      <point x="31" y="538" type="curve" smooth="yes"/>
      <point x="31" y="423"/>
      <point x="51" y="312"/>
      <point x="96" y="217" type="curve" smooth="yes"/>
      <point x="162" y="75"/>
      <point x="285" y="-17"/>
      <point x="466" y="-17" type="curve" smooth="yes"/>
      <point x="499" y="-17"/>
      <point x="530" y="-15"/>
      <point x="565" y="-11" type="curve"/>
      <point x="584" y="100" type="line"/>
      <point x="675" y="-138"/>
      <point x="780" y="-180"/>
      <point x="1035" y="-180" type="curve"/>
    </contour>
    <contour>
      <point x="398" y="783" type="curve"/>
      <point x="434" y="1000"/>
      <point x="541" y="1279"/>
      <point x="736" y="1279" type="curve" smooth="yes"/>
      <point x="805" y="1279"/>
      <point x="853" y="1248"/>
      <point x="883" y="1197" type="curve" smooth="yes"/>
      <point x="898" y="1172"/>
      <point x="909" y="1142"/>
      <point x="916" y="1108" type="curve" smooth="yes"/>
      <point x="930" y="1039"/>
      <point x="928" y="991"/>
      <point x="928" y="975" type="curve" smooth="yes"/>
      <point x="928" y="911"/>
      <point x="920" y="834"/>
      <point x="905" y="751" type="curve" smooth="yes"/>
      <point x="886" y="644"/>
      <point x="856" y="564"/>
      <point x="832" y="500" type="curve"/>
      <point x="797" y="300" type="line"/>
      <point x="700" y="601" type="line"/>
      <point x="455" y="500" type="line"/>
      <point x="471" y="452"/>
      <point x="520" y="299"/>
      <point x="541" y="239" type="curve"/>
      <point x="464" y="239"/>
      <point x="418" y="273"/>
      <point x="393" y="327" type="curve" smooth="yes"/>
      <point x="368" y="381"/>
      <point x="366" y="442"/>
      <point x="366" y="487" type="curve" smooth="yes"/>
      <point x="366" y="503"/>
      <point x="367" y="525"/>
      <point x="369" y="554" type="curve" smooth="yes"/>
      <point x="372" y="610"/>
      <point x="386" y="703"/>
    </contour>
  </outline>
</glyph>
<glyph name="R" format="2">
  <advance width="1300"/>
  <unicode hex="0052"/>
  <outline>
    <contour>
      <point x="771" y="0" type="line"/>
      <point x="1136" y="0" type="line"/>
      <point x="834" y="600" type="line"/>
      <point x="746" y="624" type="line"/>
      <point x="995" y="685"/>
      <point x="1172" y="825"/>
      <point x="1212" y="1061" type="curve"/>
      <point x="1217" y="1086"/>
      <point x="1219" y="1109"/>
      <point x="1219" y="1132" type="curve" smooth="yes"/>
      <point x="1219" y="1217"/>
      <point x="1186" y="1315"/>
      <point x="1086" y="1395" type="curve" smooth="yes"/>
      <point x="986" y="1474"/>
      <point x="837" y="1517"/>
      <point x="668" y="1517" type="curve" smooth="yes"/>
      <point x="550" y="1517"/>
      <point x="402" y="1501"/>
      <point x="282" y="1488" type="curve"/>
      <point x="282" y="1262" type="line"/>
      <point x="61" y="0" type="line"/>
      <point x="385" y="0" type="line"/>
      <point x="491" y="600" type="line"/>
    </contour>
    <contour>
      <point x="597" y="1294" type="line"/>
      <point x="613" y="1295"/>
      <point x="632" y="1296"/>
      <point x="653" y="1296" type="curve" smooth="yes"/>
      <point x="714" y="1296"/>
      <point x="782" y="1286"/>
      <point x="831" y="1252" type="curve" smooth="yes"/>
      <point x="879" y="1218"/>
      <point x="896" y="1166"/>
      <point x="896" y="1118" type="curve" smooth="yes"/>
      <point x="896" y="1102"/>
      <point x="894" y="1085"/>
      <point x="891" y="1066" type="curve" smooth="yes"/>
      <point x="867" y="924"/>
      <point x="743" y="800"/>
      <point x="562" y="800" type="curve" smooth="yes"/>
      <point x="526" y="800" type="line"/>
      <point x="582" y="1121" type="line"/>
    </contour>
  </outline>
</glyph>
<glyph name="S" format="2">
  <advance width="1300"/>
  <unicode hex="0053"/>
  <outline>
    <contour>
      <point x="1232" y="1369" type="line"/>
      <point x="1101" y="1468"/>
      <point x="970" y="1517"/>
      <point x="814" y="1517" type="curve" smooth="yes"/>
      <point x="557" y="1517"/>
      <point x="292" y="1396"/>
      <point x="244" y="1127" type="curve" smooth="yes"/>
      <point x="240" y="1106"/>
      <point x="238" y="1085"/>
      <point x="238" y="1066" type="curve" smooth="yes"/>
      <point x="238" y="1009"/>
      <point x="257" y="937"/>
      <point x="314" y="866" type="curve" smooth="yes"/>
      <point x="370" y="795"/>
      <point x="454" y="738"/>
      <point x="542" y="693" type="curve" smooth="yes"/>
      <point x="605" y="661"/>
      <point x="670" y="631"/>
      <point x="716" y="592" type="curve" smooth="yes"/>
      <point x="762" y="552"/>
      <point x="779" y="508"/>
      <point x="779" y="467" type="curve" smooth="yes"/>
      <point x="779" y="456"/>
      <point x="778" y="443"/>
      <point x="775" y="430" type="curve"/>
      <point x="749" y="282"/>
      <point x="621" y="246"/>
      <point x="503" y="246" type="curve" smooth="yes"/>
      <point x="402" y="246"/>
      <point x="281" y="300"/>
      <point x="217" y="348" type="curve"/>
      <point x="39" y="121" type="line"/>
      <point x="168" y="33"/>
      <point x="290" y="-17"/>
      <point x="460" y="-17" type="curve" smooth="yes"/>
      <point x="753" y="-17"/>
      <point x="1051" y="90"/>
      <point x="1104" y="398" type="curve"/>
      <point x="1111" y="433"/>
      <point x="1114" y="466"/>
      <point x="1114" y="497" type="curve" smooth="yes"/>
      <point x="1114" y="552"/>
      <point x="1105" y="632"/>
      <point x="1046" y="714" type="curve" smooth="yes"/>
      <point x="986" y="796"/>
      <point x="890" y="861"/>
      <point x="766" y="921" type="curve" smooth="yes"/>
      <point x="711" y="948"/>
      <point x="656" y="971"/>
      <point x="617" y="1002" type="curve" smooth="yes"/>
      <point x="578" y="1033"/>
      <point x="562" y="1066"/>
      <point x="562" y="1098" type="curve" smooth="yes"/>
      <point x="562" y="1107"/>
      <point x="563" y="1116"/>
      <point x="565" y="1125" type="curve" smooth="yes"/>
      <point x="584" y="1241"/>
      <point x="698" y="1274"/>
      <point x="795" y="1274" type="curve" smooth="yes"/>
      <point x="870" y="1274"/>
      <point x="937" y="1249"/>
      <point x="1048" y="1178" type="curve"/>
    </contour>
  </outline>
</glyph>
<glyph name="U" format="2">
  <advance width="1300"/>
  <unicode hex="0055"/>
  <outline>
    <contour>
      <point x="929" y="1500" type="line"/>
      <point x="756" y="516" type="line" smooth="yes"/>
      <point x="721" y="319"/>
      <point x="637" y="221"/>
      <point x="516" y="221" type="curve" smooth="yes"/>
      <point x="395" y="221"/>
      <point x="373" y="301"/>
      <point x="373" y="382" type="curve" smooth="yes"/>
      <point x="373" y="406"/>
      <point x="375" y="456"/>
      <point x="394" y="564" type="curve" smooth="yes"/>
      <point x="563" y="1520" type="line"/>
      <point x="186" y="1500" type="line"/>
      <point x="186" y="1263" type="line"/>
      <point x="66" y="582" type="line"/>
      <point x="53" y="512"/>
      <point x="47" y="447"/>
      <point x="47" y="386" type="curve" smooth="yes"/>
      <point x="47" y="293"/>
      <point x="52" y="232"/>
      <point x="100" y="148" type="curve" smooth="yes"/>
      <point x="159" y="43"/>
      <point x="272" y="-17"/>
      <point x="453" y="-17" type="curve" smooth="yes"/>
      <point x="789" y="-17"/>
      <point x="1027" y="163"/>
      <point x="1091" y="534" type="curve"/>
      <point x="1261" y="1500" type="line"/>
    </contour>
  </outline>
</glyph>
<glyph name="W" format="2">
  <advance width="1300"/>
  <unicode hex="0057"/>
  <outline>
    <contour>
      <point x="31" y="1500" type="line"/>
      <point x="30" y="0" type="line"/>
      <point x="286" y="0" type="line"/>
      <point x="401" y="300" type="line"/>
      <point x="504" y="650" type="line"/>
      <point x="482" y="300" type="line"/>
      <point x="490" y="0" type="line"/>
      <point x="743" y="0" type="line"/>
      <point x="1276" y="1500" type="line"/>
      <point x="985" y="1500" type="line"/>
      <point x="787" y="957" type="line"/>
      <point x="691" y="400" type="line"/>
      <point x="681" y="400" type="line"/>
      <point x="682" y="701" type="line"/>
      <point x="678" y="1000" type="line"/>
      <point x="452" y="1000" type="line"/>
      <point x="348" y="701" type="line"/>
      <point x="241" y="400" type="line"/>
      <point x="231" y="400" type="line"/>
      <point x="333" y="959" type="line"/>
      <point x="319" y="1520" type="line"/>
    </contour>
  </outline>
</glyph>
<glyph name="Y" format="2">
  <advance width="1300"/>
  <unicode hex="0059"/>
  <outline>
    <contour>
      <point x="393" y="1520" type="line"/>
      <point x="50" y="1500" type="line"/>
      <point x="329" y="650" type="line"/>
      <point x="214" y="0" type="line"/>
      <point x="565" y="0" type="line"/>
      <point x="680" y="650" type="line"/>
      <point x="1263" y="1500" type="line"/>
      <point x="928" y="1500" type="line"/>
      <point x="683" y="1143" type="line"/>
      <point x="560" y="773" type="line"/>
      <point x="518" y="1143" type="line"/>
    </contour>
  </outline>
</glyph>
<glyph name="Z" format="2">
  <advance width="1300"/>
  <unicode hex="005A"/>
  <outline>
    <contour>
      <point x="524" y="228" type="line"/>
      <point x="387" y="200" type="line"/>
      <point x="541" y="314" type="line"/>
      <point x="1287" y="1442" type="line"/>
      <point x="1256" y="1500" type="line"/>
      <point x="342" y="1500" type="line"/>
      <point x="329" y="1272" type="line"/>
      <point x="787" y="1272" type="line"/>
      <point x="922" y="1300" type="line"/>
      <point x="765" y="1187" type="line"/>
      <point x="30" y="86" type="line"/>
      <point x="48" y="0" type="line"/>
      <point x="1087" y="0" type="line"/>
      <point x="1100" y="228" type="line"/>
    </contour>
  </outline>
</glyph>
<glyph name="backslash" format="2">
  <advance width="1300"/>
  <unicode hex="005C"/>
  <outline>
    <contour>
      <point x="683" y="-100" type="line"/>
      <point x="1016" y="-100" type="line"/>
      <point x="609" y="1600" type="line"/>
      <point x="287" y="1600" type="line"/>
    </contour>
  </outline>
</glyph>
<glyph name="bracketright" format="2">
  <advance width="1300"/>
  <unicode hex="005D"/>
  <outline>
    <contour>
      <point x="1119" y="1288" type="line"/>
      <point x="1186" y="1520" type="line"/>
      <point x="486" y="1520" type="line"/>
      <point x="447" y="1302" type="line"/>
      <point x="796" y="1302" type="line"/>
      <point x="755" y="1154" type="line"/>
      <point x="546" y="-31" type="line"/>
      <point x="535" y="-179" type="line"/>
      <point x="186" y="-179" type="line"/>
      <point x="147" y="-398" type="line"/>
      <point x="847" y="-398" type="line"/>
      <point x="862" y="-166" type="line"/>
    </contour>
  </outline>
</glyph>
<glyph name="asciicircum" format="2">
  <advance width="1300"/>
  <unicode hex="005E"/>
  <outline>
    <contour>
      <point x="850" y="1520" type="line"/>
      <point x="638" y="1500" type="line"/>
      <point x="43" y="868" type="line"/>
      <point x="342" y="868" type="line"/>
      <point x="701" y="1200" type="line"/>
      <point x="942" y="866" type="line"/>
      <point x="1242" y="866" type="line"/>
    </contour>
  </outline>
</glyph>
<glyph name="underscore" format="2">
  <advance width="1300"/>
  <unicode hex="005F"/>
  <outline>
    <contour>
      <point x="67" y="-455" type="line"/>
      <point x="1167" y="-455" type="line"/>
      <point x="1212" y="-200" type="line"/>
      <point x="112" y="-200" type="line"/>
    </contour>
  </outline>
</glyph>
<glyph name="a" format="2">
  <advance width="1300"/>
  <unicode hex="0061"/>
  <outline>
    <contour>
      <point x="745" y="329" type="line"/>
      <point x="705" y="279"/>
      <point x="632" y="209"/>
      <point x="541" y="209" type="curve" smooth="yes"/>
      <point x="455" y="209"/>
      <point x="446" y="366"/>
      <point x="446" y="427" type="curve" smooth="yes"/>
      <point x="446" y="634"/>
      <point x="532" y="893"/>
      <point x="779" y="893" type="curve"/>
      <point x="788" y="892"/>
      <point x="813" y="889"/>
      <point x="840" y="885" type="curve"/>
    </contour>
    <contour>
      <point x="504" y="-16" type="line" smooth="yes"/>
      <point x="533" y="-16"/>
      <point x="553" y="-13"/>
      <point x="568" y="-10" type="curve"/>
      <point x="723" y="162" type="line"/>
      <point x="695" y="0" type="line"/>
      <point x="1017" y="0" type="line"/>
      <point x="1031" y="209" type="line"/>
      <point x="1174" y="1043" type="line"/>
      <point x="1066" y="1095"/>
      <point x="933" y="1114"/>
      <point x="813" y="1117" type="curve"/>
      <point x="390" y="1117"/>
      <point x="139" y="818"/>
      <point x="139" y="416" type="curve" smooth="yes"/>
      <point x="139" y="193"/>
      <point x="227" y="-13"/>
      <point x="484" y="-16" type="curve"/>
    </contour>
  </outline>
</glyph>
<glyph name="c" format="2">
  <advance width="1300"/>
  <unicode hex="0063"/>
  <outline>
    <contour>
      <point x="1201" y="957" type="line"/>
      <point x="1117" y="1070"/>
      <point x="976" y="1117"/>
      <point x="797" y="1117" type="curve" smooth="yes"/>
      <point x="344" y="1117"/>
      <point x="154" y="833"/>
      <point x="106" y="555" type="curve" smooth="yes"/>
      <point x="100" y="520"/>
      <point x="97" y="485"/>
      <point x="97" y="452" type="curve" smooth="yes"/>
      <point x="97" y="412"/>
      <point x="103" y="365"/>
      <point x="115" y="312" type="curve" smooth="yes"/>
      <point x="127" y="259"/>
      <point x="154" y="206"/>
      <point x="197" y="154" type="curve"/>
      <point x="281" y="49"/>
      <point x="417" y="-17"/>
      <point x="594" y="-17" type="curve" smooth="yes"/>
      <point x="837" y="-17"/>
      <point x="995" y="94"/>
      <point x="1051" y="137" type="curve"/>
      <point x="965" y="353" type="line"/>
      <point x="907" y="292"/>
      <point x="809" y="236"/>
      <point x="671" y="236" type="curve" smooth="yes"/>
      <point x="524" y="236"/>
      <point x="411" y="351"/>
      <point x="411" y="497" type="curve" smooth="yes"/>
      <point x="411" y="696"/>
      <point x="582" y="885"/>
      <point x="785" y="885" type="curve" smooth="yes"/>
      <point x="888" y="885"/>
      <point x="958" y="853"/>
      <point x="1007" y="772" type="curve"/>
    </contour>
  </outline>
</glyph>
<glyph name="e" format="2">
  <advance width="1300"/>
  <unicode hex="0065"/>
  <outline>
    <contour>
      <point x="381" y="653" type="line"/>
      <point x="490" y="756" type="line"/>
      <point x="520" y="807"/>
      <point x="583" y="900"/>
      <point x="718" y="900" type="curve" smooth="yes"/>
      <point x="828" y="900"/>
      <point x="891" y="830"/>
      <point x="891" y="723" type="curve" smooth="yes"/>
      <point x="891" y="706"/>
      <point x="889" y="689"/>
      <point x="886" y="672" type="curve"/>
      <point x="557" y="671" type="line"/>
    </contour>
    <contour>
      <point x="901" y="310" type="line"/>
      <point x="859" y="278"/>
      <point x="782" y="210"/>
      <point x="644" y="210" type="curve" smooth="yes"/>
      <point x="532" y="210"/>
      <point x="465" y="238"/>
      <point x="428" y="284" type="curve" smooth="yes"/>
      <point x="391" y="330"/>
      <point x="391" y="378"/>
      <point x="391" y="409" type="curve" smooth="yes"/>
      <point x="391" y="427"/>
      <point x="392" y="446"/>
      <point x="395" y="466" type="curve"/>
      <point x="1132" y="466" type="line"/>
      <point x="1151" y="534"/>
      <point x="1166" y="596"/>
      <point x="1173" y="632" type="curve" smooth="yes"/>
      <point x="1180" y="669"/>
      <point x="1183" y="704"/>
      <point x="1183" y="737" type="curve" smooth="yes"/>
      <point x="1183" y="769"/>
      <point x="1178" y="807"/>
      <point x="1169" y="852" type="curve" smooth="yes"/>
      <point x="1160" y="896"/>
      <point x="1137" y="939"/>
      <point x="1102" y="982" type="curve"/>
      <point x="1030" y="1067"/>
      <point x="912" y="1117"/>
      <point x="752" y="1117" type="curve" smooth="yes"/>
      <point x="360" y="1117"/>
      <point x="148" y="833"/>
      <point x="100" y="550" type="curve"/>
      <point x="93" y="513"/>
      <point x="90" y="476"/>
      <point x="90" y="440" type="curve" smooth="yes"/>
      <point x="90" y="405"/>
      <point x="95" y="362"/>
      <point x="105" y="311" type="curve" smooth="yes"/>
      <point x="114" y="260"/>
      <point x="139" y="209"/>
      <point x="179" y="157" type="curve" smooth="yes"/>
      <point x="259" y="52"/>
      <point x="394" y="-16"/>
      <point x="586" y="-16" type="curve" smooth="yes"/>
      <point x="804" y="-16"/>
      <point x="956" y="60"/>
      <point x="1078" y="158" type="curve"/>
    </contour>
  </outline>
</glyph>
<glyph name="f" format="2">
  <advance width="1300"/>
  <unicode hex="0066"/>
  <outline>
    <contour>
      <point x="333" y="0" type="line"/>
      <point x="306" y="-118"/>
      <point x="278" y="-194"/>
      <point x="201" y="-202" type="curve"/>
      <point x="191" y="-202" type="line" smooth="yes"/>
      <point x="163" y="-202"/>
      <point x="134" y="-191"/>
      <point x="109" y="-180" type="curve"/>
      <point x="108" y="-180"/>
      <point x="107" y="-179"/>
      <point x="106" y="-179" type="curve"/>
      <point x="16" y="-376" type="line"/>
      <point x="42" y="-391"/>
      <point x="115" y="-423"/>
      <point x="214" y="-428" type="curve" smooth="yes"/>
      <point x="231" y="-429"/>
      <point x="247" y="-430"/>
      <point x="263" y="-430" type="curve" smooth="yes"/>
      <point x="370" y="-430"/>
      <point x="457" y="-405"/>
      <point x="521" y="-333" type="curve" smooth="yes"/>
      <point x="584" y="-261"/>
      <point x="617" y="-149"/>
      <point x="644" y="0" type="curve"/>
      <point x="798" y="876" type="line"/>
      <point x="1054" y="876" type="line"/>
      <point x="1120" y="1100" type="line"/>
      <point x="823" y="1100" type="line"/>
      <point x="847" y="1233" type="line" smooth="yes"/>
      <point x="858" y="1297"/>
      <point x="873" y="1339"/>
      <point x="894" y="1364" type="curve" smooth="yes"/>
      <point x="914" y="1389"/>
      <point x="938" y="1394"/>
      <point x="961" y="1394" type="curve" smooth="yes"/>
      <point x="966" y="1394"/>
      <point x="972" y="1394"/>
      <point x="977" y="1393" type="curve" smooth="yes"/>
      <point x="1036" y="1386"/>
      <point x="1079" y="1368"/>
      <point x="1118" y="1341" type="curve"/>
      <point x="1282" y="1501" type="line"/>
      <point x="1227" y="1546"/>
      <point x="1124" y="1609"/>
      <point x="985" y="1617" type="curve" smooth="yes"/>
      <point x="970" y="1618"/>
      <point x="956" y="1618"/>
      <point x="943" y="1618" type="curve" smooth="yes"/>
      <point x="847" y="1618"/>
      <point x="758" y="1597"/>
      <point x="689" y="1533" type="curve" smooth="yes"/>
      <point x="620" y="1469"/>
      <point x="576" y="1371"/>
      <point x="551" y="1242" type="curve"/>
      <point x="526" y="1100" type="line"/>
      <point x="270" y="1100" type="line"/>
      <point x="231" y="876" type="line"/>
      <point x="487" y="876" type="line"/>
    </contour>
  </outline>
</glyph>
<glyph name="g" format="2">
  <advance width="1300"/>
  <unicode hex="0067"/>
  <outline>
    <contour>
      <point x="774" y="287" type="line"/>
      <point x="723" y="238"/>
      <point x="667" y="200"/>
      <point x="588" y="200" type="curve" smooth="yes"/>
      <point x="539" y="200"/>
      <point x="494" y="236"/>
      <point x="466" y="296" type="curve" smooth="yes"/>
      <point x="438" y="356"/>
      <point x="435" y="417"/>
      <point x="435" y="450" type="curve" smooth="yes"/>
      <point x="435" y="614"/>
      <point x="547" y="900"/>
      <point x="734" y="900" type="curve" smooth="yes"/>
      <point x="794" y="900"/>
      <point x="837" y="863"/>
      <point x="868" y="820" type="curve"/>
    </contour>
    <contour>
      <point x="720" y="-27" type="line"/>
      <point x="693" y="-176"/>
      <point x="563" y="-293"/>
      <point x="450" y="-293" type="curve" smooth="yes"/>
      <point x="361" y="-293"/>
      <point x="265" y="-229"/>
      <point x="231" y="-192" type="curve"/>
      <point x="58" y="-359" type="line"/>
      <point x="146" y="-460"/>
      <point x="243" y="-517"/>
      <point x="419" y="-517" type="curve" smooth="yes"/>
      <point x="748" y="-517"/>
      <point x="997" y="-304"/>
      <point x="1042" y="-41" type="curve"/>
      <point x="1243" y="1100" type="line"/>
      <point x="921" y="1120" type="line"/>
      <point x="892" y="958" type="line"/>
      <point x="829" y="1114" type="line"/>
      <point x="816" y="1117"/>
      <point x="801" y="1117"/>
      <point x="777" y="1117" type="curve" smooth="yes"/>
      <point x="433" y="1117"/>
      <point x="173" y="857"/>
      <point x="117" y="545" type="curve" smooth="yes"/>
      <point x="111" y="510"/>
      <point x="108" y="477"/>
      <point x="108" y="444" type="curve" smooth="yes"/>
      <point x="108" y="202"/>
      <point x="280" y="-17"/>
      <point x="534" y="-17" type="curve" smooth="yes"/>
      <point x="611" y="-17"/>
      <point x="680" y="-3"/>
      <point x="727" y="16" type="curve"/>
    </contour>
  </outline>
</glyph>
<glyph name="h" format="2">
  <advance width="1300"/>
  <unicode hex="0068"/>
  <outline>
    <contour>
      <point x="552" y="808" type="line"/>
      <point x="600" y="848"/>
      <point x="651" y="892"/>
      <point x="762" y="892" type="curve" smooth="yes"/>
      <point x="791" y="892"/>
      <point x="822" y="879"/>
      <point x="842" y="848" type="curve"/>
      <point x="861" y="816"/>
      <point x="864" y="778"/>
      <point x="864" y="757" type="curve" smooth="yes"/>
      <point x="864" y="739"/>
      <point x="862" y="719"/>
      <point x="858" y="698" type="curve" smooth="yes"/>
      <point x="734" y="0" type="line"/>
      <point x="1060" y="0" type="line"/>
      <point x="1187" y="718" type="line" smooth="yes"/>
      <point x="1194" y="758"/>
      <point x="1198" y="795"/>
      <point x="1198" y="830" type="curve" smooth="yes"/>
      <point x="1198" y="905"/>
      <point x="1177" y="972"/>
      <point x="1135" y="1030" type="curve" smooth="yes"/>
      <point x="1092" y="1088"/>
      <point x="1012" y="1117"/>
      <point x="894" y="1117" type="curve" smooth="yes"/>
      <point x="809" y="1117"/>
      <point x="741" y="1113"/>
      <point x="680" y="1100" type="curve"/>
      <point x="586" y="1000" type="line"/>
      <point x="692" y="1600" type="line"/>
      <point x="329" y="1568" type="line"/>
      <point x="329" y="1339" type="line"/>
      <point x="92" y="0" type="line"/>
      <point x="409" y="0" type="line"/>
    </contour>
  </outline>
</glyph>
<glyph name="i" format="2">
  <advance width="1300"/>
  <unicode hex="0069"/>
  <outline>
    <contour>
      <point x="542" y="1240" type="line"/>
      <point x="879" y="1240" type="line"/>
      <point x="925" y="1501" type="line"/>
      <point x="588" y="1501" type="line"/>
    </contour>
    <contour>
      <point x="473" y="800" type="line"/>
      <point x="409" y="432" type="line" smooth="yes"/>
      <point x="403" y="397"/>
      <point x="400" y="364"/>
      <point x="400" y="331" type="curve" smooth="yes"/>
      <point x="400" y="306"/>
      <point x="403" y="275"/>
      <point x="409" y="236" type="curve" smooth="yes"/>
      <point x="414" y="197"/>
      <point x="432" y="158"/>
      <point x="461" y="117" type="curve" smooth="yes"/>
      <point x="519" y="35"/>
      <point x="621" y="-17"/>
      <point x="774" y="-17" type="curve" smooth="yes"/>
      <point x="962" y="-17"/>
      <point x="1050" y="69"/>
      <point x="1090" y="98" type="curve"/>
      <point x="1072" y="330" type="line"/>
      <point x="992" y="263"/>
      <point x="929" y="236"/>
      <point x="842" y="236" type="curve" smooth="yes"/>
      <point x="802" y="236"/>
      <point x="769" y="257"/>
      <point x="749" y="290" type="curve" smooth="yes"/>
      <point x="728" y="323"/>
      <point x="725" y="360"/>
      <point x="725" y="381" type="curve" smooth="yes"/>
      <point x="725" y="394"/>
      <point x="726" y="408"/>
      <point x="729" y="423" type="curve" smooth="yes"/>
      <point x="854" y="1100" type="line"/>
      <point x="212" y="1100" type="line"/>
      <point x="212" y="876" type="line"/>
      <point x="406" y="876" type="line"/>
      <point x="570" y="920" type="line"/>
    </contour>
  </outline>
</glyph>
<glyph name="j" format="2">
  <advance width="1300"/>
  <unicode hex="006A"/>
  <outline>
    <contour>
      <point x="809" y="1240" type="line"/>
      <point x="1146" y="1240" type="line"/>
      <point x="1192" y="1501" type="line"/>
      <point x="855" y="1501" type="line"/>
    </contour>
    <contour>
      <point x="737" y="800" type="line"/>
      <point x="582" y="-77" type="line" smooth="yes"/>
      <point x="563" y="-187"/>
      <point x="491" y="-264"/>
      <point x="413" y="-264" type="curve" smooth="yes"/>
      <point x="325" y="-264"/>
      <point x="269" y="-237"/>
      <point x="212" y="-170" type="curve"/>
      <point x="112" y="-402" type="line"/>
      <point x="143" y="-430"/>
      <point x="198" y="-517"/>
      <point x="388" y="-517" type="curve" smooth="yes"/>
      <point x="694" y="-517"/>
      <point x="868" y="-311"/>
      <point x="911" y="-68" type="curve" smooth="yes"/>
      <point x="1117" y="1100" type="line"/>
      <point x="476" y="1100" type="line"/>
      <point x="475" y="876" type="line"/>
      <point x="670" y="876" type="line"/>
      <point x="834" y="920" type="line"/>
    </contour>
  </outline>
</glyph>
<glyph name="k" format="2">
  <advance width="1300"/>
  <unicode hex="006B"/>
  <outline>
    <contour>
      <point x="409" y="0" type="line"/>
      <point x="489" y="458" type="line"/>
      <point x="768" y="0" type="line"/>
      <point x="1116" y="0" type="line"/>
      <point x="737" y="564" type="line"/>
      <point x="559" y="627" type="line"/>
      <point x="776" y="700" type="line"/>
      <point x="1209" y="1100" type="line"/>
      <point x="868" y="1100" type="line"/>
      <point x="544" y="769" type="line"/>
      <point x="696" y="1631" type="line"/>
      <point x="349" y="1600" type="line"/>
      <point x="349" y="1397" type="line"/>
      <point x="103" y="0" type="line"/>
    </contour>
  </outline>
</glyph>
<glyph name="l" format="2">
  <advance width="1300"/>
  <unicode hex="006C"/>
  <outline>
    <contour>
      <point x="549" y="1266" type="line"/>
      <point x="398" y="410" type="line" smooth="yes"/>
      <point x="392" y="376"/>
      <point x="389" y="343"/>
      <point x="389" y="311" type="curve" smooth="yes"/>
      <point x="389" y="288"/>
      <point x="392" y="259"/>
      <point x="397" y="222" type="curve" smooth="yes"/>
      <point x="402" y="185"/>
      <point x="418" y="148"/>
      <point x="445" y="109" type="curve" smooth="yes"/>
      <point x="500" y="32"/>
      <point x="594" y="-17"/>
      <point x="738" y="-17" type="curve" smooth="yes"/>
      <point x="925" y="-17"/>
      <point x="1015" y="83"/>
      <point x="1047" y="107" type="curve"/>
      <point x="973" y="300" type="line"/>
      <point x="930" y="257"/>
      <point x="870" y="208"/>
      <point x="796" y="208" type="curve" smooth="yes"/>
      <point x="768" y="208"/>
      <point x="740" y="219"/>
      <point x="724" y="247" type="curve"/>
      <point x="707" y="275"/>
      <point x="705" y="310"/>
      <point x="705" y="327" type="curve" smooth="yes"/>
      <point x="705" y="345"/>
      <point x="707" y="365"/>
      <point x="711" y="388" type="curve" smooth="yes"/>
      <point x="919" y="1566" type="line"/>
      <point x="287" y="1566" type="line"/>
      <point x="287" y="1342" type="line"/>
      <point x="482" y="1342" type="line"/>
      <point x="646" y="1386" type="line"/>
    </contour>
  </outline>
</glyph>
<glyph name="m" format="2">
  <advance width="1300"/>
  <unicode hex="006D"/>
  <outline>
    <contour>
      <point x="427" y="804" type="line"/>
      <point x="450" y="861"/>
      <point x="490" y="885"/>
      <point x="529" y="885" type="curve" smooth="yes"/>
      <point x="563" y="885"/>
      <point x="560" y="838"/>
      <point x="560" y="829" type="curve" smooth="yes"/>
      <point x="560" y="802"/>
      <point x="555" y="764"/>
      <point x="546" y="708" type="curve"/>
      <point x="421" y="0" type="line"/>
      <point x="725" y="0" type="line"/>
      <point x="851" y="715" type="line"/>
      <point x="854" y="726"/>
      <point x="861" y="779"/>
      <point x="864" y="798" type="curve"/>
      <point x="880" y="845"/>
      <point x="927" y="885"/>
      <point x="972" y="885" type="curve" smooth="yes"/>
      <point x="1010" y="885"/>
      <point x="1007" y="848"/>
      <point x="1007" y="839" type="curve" smooth="yes"/>
      <point x="1007" y="816"/>
      <point x="1001" y="782"/>
      <point x="992" y="727" type="curve"/>
      <point x="864" y="0" type="line"/>
      <point x="1179" y="0" type="line"/>
      <point x="1308" y="736" type="line" smooth="yes"/>
      <point x="1329" y="852"/>
      <point x="1329" y="902"/>
      <point x="1329" y="919" type="curve" smooth="yes"/>
      <point x="1329" y="1027"/>
      <point x="1289" y="1117"/>
      <point x="1093" y="1117" type="curve" smooth="yes"/>
      <point x="1011" y="1117"/>
      <point x="912" y="1073"/>
      <point x="854" y="1039" type="curve"/>
      <point x="814" y="1100"/>
      <point x="769" y="1117"/>
      <point x="640" y="1117" type="curve" smooth="yes"/>
      <point x="615" y="1117"/>
      <point x="570" y="1108"/>
      <point x="557" y="1100" type="curve"/>
      <point x="462" y="1000" type="line"/>
      <point x="483" y="1120" type="line"/>
      <point x="165" y="1100" type="line"/>
      <point x="-28" y="0" type="line"/>
      <point x="286" y="0" type="line"/>
    </contour>
  </outline>
</glyph>
<glyph name="n" format="2">
  <advance width="1300"/>
  <unicode hex="006E"/>
  <outline>
    <contour>
      <point x="554" y="808" type="line"/>
      <point x="617" y="865"/>
      <point x="675" y="892"/>
      <point x="759" y="892" type="curve" smooth="yes"/>
      <point x="796" y="892"/>
      <point x="830" y="880"/>
      <point x="853" y="855" type="curve" smooth="yes"/>
      <point x="876" y="830"/>
      <point x="880" y="798"/>
      <point x="880" y="775" type="curve" smooth="yes"/>
      <point x="880" y="763"/>
      <point x="879" y="750"/>
      <point x="876" y="736" type="curve"/>
      <point x="747" y="0" type="line"/>
      <point x="1064" y="0" type="line"/>
      <point x="1193" y="736" type="line" smooth="yes"/>
      <point x="1198" y="767"/>
      <point x="1201" y="796"/>
      <point x="1201" y="823" type="curve" smooth="yes"/>
      <point x="1201" y="872"/>
      <point x="1194" y="948"/>
      <point x="1138" y="1014" type="curve" smooth="yes"/>
      <point x="1082" y="1080"/>
      <point x="990" y="1117"/>
      <point x="869" y="1117" type="curve" smooth="yes"/>
      <point x="792" y="1117"/>
      <point x="735" y="1113"/>
      <point x="683" y="1100" type="curve"/>
      <point x="588" y="1000" type="line"/>
      <point x="609" y="1120" type="line"/>
      <point x="289" y="1100" type="line"/>
      <point x="95" y="0" type="line"/>
      <point x="412" y="0" type="line"/>
    </contour>
  </outline>
</glyph>
<glyph name="o" format="2">
  <advance width="1300"/>
  <unicode hex="006F"/>
  <outline>
    <contour>
      <point x="863" y="528" type="curve" smooth="yes"/>
      <point x="834" y="364"/>
      <point x="744" y="203"/>
      <point x="599" y="203" type="curve" smooth="yes"/>
      <point x="520" y="203"/>
      <point x="473" y="250"/>
      <point x="449" y="319" type="curve" smooth="yes"/>
      <point x="425" y="387"/>
      <point x="430" y="439"/>
      <point x="430" y="446" type="curve" smooth="yes"/>
      <point x="430" y="487"/>
      <point x="434" y="528"/>
      <point x="441" y="571" type="curve" smooth="yes"/>
      <point x="470" y="736"/>
      <point x="565" y="897"/>
      <point x="713" y="897" type="curve" smooth="yes"/>
      <point x="869" y="897"/>
      <point x="895" y="709"/>
    </contour>
    <contour>
      <point x="556" y="-17" type="curve" smooth="yes"/>
      <point x="886" y="-17"/>
      <point x="1138" y="229"/>
      <point x="1194" y="553" type="curve" smooth="yes"/>
      <point x="1201" y="594"/>
      <point x="1205" y="633"/>
      <point x="1205" y="671" type="curve" smooth="yes"/>
      <point x="1205" y="941"/>
      <point x="1031" y="1117"/>
      <point x="757" y="1117" type="curve" smooth="yes"/>
      <point x="383" y="1117"/>
      <point x="101" y="802"/>
      <point x="101" y="438" type="curve" smooth="yes"/>
      <point x="101" y="399"/>
      <point x="107" y="354"/>
      <point x="118" y="302" type="curve" smooth="yes"/>
      <point x="129" y="249"/>
      <point x="154" y="198"/>
      <point x="193" y="147" type="curve" smooth="yes"/>
      <point x="271" y="45"/>
      <point x="396" y="-17"/>
    </contour>
  </outline>
</glyph>
<glyph name="p" format="2">
  <advance width="1300"/>
  <unicode hex="0070"/>
  <outline>
    <contour>
      <point x="594" y="811" type="line"/>
      <point x="645" y="854"/>
      <point x="725" y="900"/>
      <point x="797" y="900" type="curve" smooth="yes"/>
      <point x="924" y="900"/>
      <point x="967" y="792"/>
      <point x="967" y="682" type="curve" smooth="yes"/>
      <point x="967" y="650"/>
      <point x="963" y="615"/>
      <point x="956" y="576" type="curve" smooth="yes"/>
      <point x="919" y="368"/>
      <point x="744" y="200"/>
      <point x="564" y="200" type="curve" smooth="yes"/>
      <point x="486" y="200" type="line"/>
    </contour>
    <contour>
      <point x="451" y="0" type="line"/>
      <point x="512" y="0" type="line" smooth="yes"/>
      <point x="902" y="0"/>
      <point x="1263" y="275"/>
      <point x="1263" y="681" type="curve" smooth="yes"/>
      <point x="1263" y="917"/>
      <point x="1111" y="1117"/>
      <point x="862" y="1117" type="curve" smooth="yes"/>
      <point x="830" y="1117"/>
      <point x="799" y="1114"/>
      <point x="771" y="1110" type="curve"/>
      <point x="617" y="944" type="line"/>
      <point x="648" y="1120" type="line"/>
      <point x="319" y="1100" type="line"/>
      <point x="37" y="-500" type="line"/>
      <point x="363" y="-500" type="line"/>
    </contour>
  </outline>
</glyph>
<glyph name="q" format="2">
  <advance width="1300"/>
  <unicode hex="0071"/>
  <outline>
    <contour>
      <point x="753" y="278" type="line"/>
      <point x="706" y="231"/>
      <point x="664" y="200"/>
      <point x="568" y="200" type="curve" smooth="yes"/>
      <point x="447" y="200"/>
      <point x="406" y="323"/>
      <point x="406" y="424" type="curve" smooth="yes"/>
      <point x="406" y="607"/>
      <point x="530" y="900"/>
      <point x="738" y="900" type="curve" smooth="yes"/>
      <point x="789" y="900"/>
      <point x="822" y="896"/>
      <point x="861" y="891" type="curve"/>
    </contour>
    <contour>
      <point x="942" y="-500" type="line"/>
      <point x="1213" y="1038" type="line"/>
      <point x="1148" y="1062"/>
      <point x="950" y="1117"/>
      <point x="780" y="1117" type="curve" smooth="yes"/>
      <point x="463" y="1117"/>
      <point x="159" y="891"/>
      <point x="95" y="526" type="curve" smooth="yes"/>
      <point x="88" y="486"/>
      <point x="84" y="448"/>
      <point x="84" y="411" type="curve" smooth="yes"/>
      <point x="84" y="175"/>
      <point x="248" y="-17"/>
      <point x="492" y="-17" type="curve" smooth="yes"/>
      <point x="521" y="-17"/>
      <point x="553" y="-14"/>
      <point x="586" y="-8" type="curve"/>
      <point x="728" y="136" type="line"/>
      <point x="616" y="-500" type="line"/>
    </contour>
  </outline>
</glyph>
<glyph name="r" format="2">
  <advance width="1300"/>
  <unicode hex="0072"/>
  <outline>
    <contour>
      <point x="580" y="1120" type="line"/>
      <point x="260" y="1100" type="line"/>
      <point x="66" y="0" type="line"/>
      <point x="383" y="0" type="line"/>
      <point x="515" y="750" type="line"/>
      <point x="591" y="835"/>
      <point x="692" y="885"/>
      <point x="820" y="885" type="curve" smooth="yes"/>
      <point x="847" y="885"/>
      <point x="873" y="880"/>
      <point x="898" y="876" type="curve"/>
      <point x="916" y="700" type="line"/>
      <point x="1205" y="735" type="line"/>
      <point x="1205" y="1032" type="line"/>
      <point x="1165" y="1061"/>
      <point x="1075" y="1117"/>
      <point x="859" y="1117" type="curve" smooth="yes"/>
      <point x="796" y="1117"/>
      <point x="729" y="1120"/>
      <point x="654" y="1100" type="curve"/>
      <point x="559" y="1000" type="line"/>
    </contour>
  </outline>
</glyph>
<glyph name="s" format="2">
  <advance width="1300"/>
  <unicode hex="0073"/>
  <outline>
    <contour>
      <point x="1203" y="1022" type="line"/>
      <point x="1139" y="1068"/>
      <point x="986" y="1117"/>
      <point x="837" y="1117" type="curve" smooth="yes"/>
      <point x="532" y="1117"/>
      <point x="290" y="1035"/>
      <point x="255" y="832" type="curve" smooth="yes"/>
      <point x="252" y="815"/>
      <point x="251" y="798"/>
      <point x="251" y="782" type="curve" smooth="yes"/>
      <point x="251" y="721"/>
      <point x="275" y="655"/>
      <point x="344" y="597" type="curve" smooth="yes"/>
      <point x="413" y="539"/>
      <point x="513" y="499"/>
      <point x="622" y="475" type="curve" smooth="yes"/>
      <point x="673" y="464"/>
      <point x="734" y="449"/>
      <point x="780" y="429" type="curve" smooth="yes"/>
      <point x="826" y="408"/>
      <point x="852" y="382"/>
      <point x="852" y="354" type="curve" smooth="yes"/>
      <point x="852" y="351"/>
      <point x="852" y="347"/>
      <point x="851" y="344" type="curve"/>
      <point x="831" y="225"/>
      <point x="620" y="208"/>
      <point x="531" y="208" type="curve" smooth="yes"/>
      <point x="408" y="208"/>
      <point x="312" y="249"/>
      <point x="231" y="305" type="curve"/>
      <point x="96" y="95" type="line"/>
      <point x="176" y="31"/>
      <point x="331" y="-17"/>
      <point x="490" y="-17" type="curve" smooth="yes"/>
      <point x="827" y="-17"/>
      <point x="1094" y="68"/>
      <point x="1142" y="335" type="curve" smooth="yes"/>
      <point x="1145" y="351"/>
      <point x="1146" y="366"/>
      <point x="1146" y="381" type="curve" smooth="yes"/>
      <point x="1146" y="445"/>
      <point x="1116" y="514"/>
      <point x="1045" y="571" type="curve" smooth="yes"/>
      <point x="973" y="627"/>
      <point x="876" y="664"/>
      <point x="788" y="684" type="curve" smooth="yes"/>
      <point x="732" y="696"/>
      <point x="665" y="708"/>
      <point x="614" y="727" type="curve" smooth="yes"/>
      <point x="562" y="746"/>
      <point x="531" y="768"/>
      <point x="531" y="795" type="curve" smooth="yes"/>
      <point x="531" y="798"/>
      <point x="531" y="801"/>
      <point x="532" y="804" type="curve"/>
      <point x="546" y="880"/>
      <point x="655" y="898"/>
      <point x="805" y="898" type="curve" smooth="yes"/>
      <point x="909" y="898"/>
      <point x="1023" y="870"/>
      <point x="1089" y="822" type="curve"/>
    </contour>
  </outline>
</glyph>
<glyph name="t" format="2">
  <advance width="1300"/>
  <unicode hex="0074"/>
  <outline>
    <contour>
      <point x="688" y="876" type="line"/>
      <point x="1116" y="876" type="line"/>
      <point x="1183" y="1100" type="line"/>
      <point x="724" y="1100" type="line"/>
      <point x="780" y="1420" type="line"/>
      <point x="449" y="1310" type="line"/>
      <point x="412" y="1100" type="line"/>
      <point x="170" y="1100" type="line"/>
      <point x="130" y="876" type="line"/>
      <point x="372" y="876" type="line"/>
      <point x="290" y="410" type="line" smooth="yes"/>
      <point x="270" y="294"/>
      <point x="272" y="239"/>
      <point x="272" y="228" type="curve" smooth="yes"/>
      <point x="272" y="96"/>
      <point x="328" y="-17"/>
      <point x="545" y="-17" type="curve" smooth="yes"/>
      <point x="813" y="-17"/>
      <point x="971" y="106"/>
      <point x="1011" y="135" type="curve"/>
      <point x="939" y="316" type="line"/>
      <point x="883" y="273"/>
      <point x="807" y="214"/>
      <point x="663" y="214" type="curve" smooth="yes"/>
      <point x="604" y="214"/>
      <point x="578" y="252"/>
      <point x="602" y="388" type="curve" smooth="yes"/>
    </contour>
  </outline>
</glyph>
<glyph name="u" format="2">
  <advance width="1300"/>
  <unicode hex="0075"/>
  <outline>
    <contour>
      <point x="754" y="318" type="line"/>
      <point x="720" y="274"/>
      <point x="649" y="213"/>
      <point x="560" y="213" type="curve" smooth="yes"/>
      <point x="492" y="213"/>
      <point x="450" y="234"/>
      <point x="430" y="274" type="curve"/>
      <point x="409" y="313"/>
      <point x="412" y="348"/>
      <point x="412" y="357" type="curve" smooth="yes"/>
      <point x="412" y="381"/>
      <point x="415" y="408"/>
      <point x="420" y="438" type="curve" smooth="yes"/>
      <point x="541" y="1120" type="line"/>
      <point x="221" y="1100" type="line"/>
      <point x="104" y="438" type="line" smooth="yes"/>
      <point x="97" y="401"/>
      <point x="94" y="364"/>
      <point x="94" y="328" type="curve" smooth="yes"/>
      <point x="94" y="308"/>
      <point x="96" y="279"/>
      <point x="100" y="242" type="curve" smooth="yes"/>
      <point x="104" y="205"/>
      <point x="120" y="165"/>
      <point x="149" y="123" type="curve" smooth="yes"/>
      <point x="206" y="38"/>
      <point x="314" y="-17"/>
      <point x="493" y="-17" type="curve" smooth="yes"/>
      <point x="538" y="-17"/>
      <point x="578" y="-11"/>
      <point x="617" y="0" type="curve"/>
      <point x="716" y="100" type="line"/>
      <point x="698" y="0" type="line"/>
      <point x="1015" y="0" type="line"/>
      <point x="1213" y="1120" type="line"/>
      <point x="892" y="1100" type="line"/>
    </contour>
  </outline>
</glyph>
<glyph name="v" format="2">
  <advance width="1300"/>
  <unicode hex="0076"/>
  <outline>
    <contour>
      <point x="447" y="1120" type="line"/>
      <point x="129" y="1100" type="line"/>
      <point x="286" y="0" type="line"/>
      <point x="599" y="-17" type="line"/>
      <point x="1173" y="1120" type="line"/>
      <point x="856" y="1100" type="line"/>
      <point x="655" y="700" type="line"/>
      <point x="512" y="300" type="line"/>
      <point x="509" y="700" type="line"/>
    </contour>
  </outline>
</glyph>
<glyph name="y" format="2">
  <advance width="1300"/>
  <unicode hex="0079"/>
  <outline>
    <contour>
      <point x="508" y="1120" type="line"/>
      <point x="189" y="1100" type="line"/>
      <point x="406" y="-47" type="line"/>
      <point x="335" y="-164"/>
      <point x="283" y="-234"/>
      <point x="224" y="-234" type="curve" smooth="yes"/>
      <point x="188" y="-234"/>
      <point x="156" y="-214"/>
      <point x="129" y="-194" type="curve"/>
      <point x="-26" y="-374" type="line"/>
      <point x="39" y="-441"/>
      <point x="112" y="-480"/>
      <point x="201" y="-480" type="curve" smooth="yes"/>
      <point x="461" y="-480"/>
      <point x="586" y="-213"/>
      <point x="706" y="8" type="curve" smooth="yes"/>
      <point x="1310" y="1120" type="line"/>
      <point x="977" y="1100" type="line"/>
      <point x="738" y="670" type="line"/>
      <point x="596" y="200" type="line"/>
      <point x="592" y="670" type="line"/>
    </contour>
  </outline>
</glyph>
<glyph name="z" format="2">
  <advance width="1300"/>
  <unicode hex="007A"/>
  <outline>
    <contour>
      <point x="427" y="175" type="line"/>
      <point x="663" y="339" type="line"/>
      <point x="1178" y="1017" type="line"/>
      <point x="1160" y="1100" type="line"/>
      <point x="364" y="1100" type="line"/>
      <point x="356" y="900" type="line"/>
      <point x="630" y="900" type="line"/>
      <point x="886" y="925" type="line"/>
      <point x="645" y="757" type="line"/>
      <point x="127" y="85" type="line"/>
      <point x="145" y="0" type="line"/>
      <point x="1048" y="0" type="line"/>
      <point x="1056" y="200" type="line"/>
      <point x="683" y="200" type="line"/>
    </contour>
  </outline>
</glyph>
<glyph name="bar" format="2">
  <advance width="1300"/>
  <unicode hex="007C"/>
  <outline>
    <contour>
      <point x="647" y="1500" type="line"/>
      <point x="316" y="-380" type="line"/>
      <point x="648" y="-380" type="line"/>
      <point x="983" y="1520" type="line"/>
    </contour>
  </outline>
</glyph>
<glyph name="asciitilde" format="2">
  <advance width="1300"/>
  <unicode hex="007E"/>
  <outline>
    <contour>
      <point x="294" y="410" type="line"/>
      <point x="320" y="476"/>
      <point x="389" y="532"/>
      <point x="465" y="532" type="curve" smooth="yes"/>
      <point x="620" y="532"/>
      <point x="622" y="400"/>
      <point x="823" y="400" type="curve" smooth="yes"/>
      <point x="1117" y="400"/>
      <point x="1250" y="607"/>
      <point x="1298" y="802" type="curve"/>
      <point x="1029" y="838" type="line"/>
      <point x="1002" y="759"/>
      <point x="933" y="703"/>
      <point x="841" y="703" type="curve" smooth="yes"/>
      <point x="706" y="703"/>
      <point x="699" y="835"/>
      <point x="482" y="835" type="curve" smooth="yes"/>
      <point x="205" y="835"/>
      <point x="48" y="620"/>
      <point x="0" y="441" type="curve"/>
    </contour>
  </outline>
</glyph>
<glyph name="exclamdown" format="2">
  <advance width="1300"/>
  <unicode hex="00A1"/>
  <outline>
    <contour>
      <point x="779" y="951" type="curve" smooth="yes"/>
      <point x="781" y="961"/>
      <point x="782" y="971"/>
      <point x="782" y="981" type="curve" smooth="yes"/>
      <point x="782" y="1004"/>
      <point x="777" y="1038"/>
      <point x="752" y="1068" type="curve" smooth="yes"/>
      <point x="727" y="1098"/>
      <point x="688" y="1117"/>
      <point x="644" y="1117" type="curve" smooth="yes"/>
      <point x="553" y="1117"/>
      <point x="469" y="1040"/>
      <point x="453" y="951" type="curve" smooth="yes"/>
      <point x="451" y="941"/>
      <point x="450" y="931"/>
      <point x="450" y="922" type="curve" smooth="yes"/>
      <point x="450" y="898"/>
      <point x="456" y="866"/>
      <point x="481" y="836" type="curve" smooth="yes"/>
      <point x="505" y="806"/>
      <point x="542" y="787"/>
      <point x="587" y="787" type="curve" smooth="yes"/>
      <point x="678" y="787"/>
      <point x="763" y="861"/>
    </contour>
    <contour>
      <point x="527" y="-400" type="line"/>
      <point x="719" y="691" type="line"/>
      <point x="413" y="656" type="line"/>
      <point x="227" y="-400" type="line"/>
    </contour>
  </outline>
</glyph>
<glyph name="sterling" format="2">
  <advance width="1300"/>
  <unicode hex="00A3"/>
  <outline>
    <contour>
      <point x="424" y="157" type="line"/>
      <point x="597" y="331" type="line"/>
      <point x="643" y="438"/>
      <point x="660" y="495"/>
      <point x="711" y="665" type="curve"/>
      <point x="909" y="665" type="line"/>
      <point x="974" y="883" type="line"/>
      <point x="779" y="883" type="line"/>
      <point x="854" y="1116" type="line"/>
      <point x="889" y="1228"/>
      <point x="925" y="1303"/>
      <point x="987" y="1303" type="curve" smooth="yes"/>
      <point x="1027" y="1303"/>
      <point x="1063" y="1288"/>
      <point x="1119" y="1228" type="curve"/>
      <point x="1279" y="1395" type="line"/>
      <point x="1193" y="1484"/>
      <point x="1125" y="1517"/>
      <point x="980" y="1517" type="curve" smooth="yes"/>
      <point x="733" y="1517"/>
      <point x="608" y="1362"/>
      <point x="541" y="1150" type="curve"/>
      <point x="455" y="883" type="line"/>
      <point x="296" y="883" type="line"/>
      <point x="258" y="665" type="line"/>
      <point x="386" y="665" type="line"/>
      <point x="306" y="417"/>
      <point x="253" y="286"/>
      <point x="236" y="249" type="curve" smooth="yes"/>
      <point x="224" y="225"/>
      <point x="220" y="219"/>
      <point x="217" y="216" type="curve"/>
      <point x="84" y="216" type="line"/>
      <point x="17" y="0" type="line"/>
      <point x="966" y="0" type="line"/>
      <point x="1004" y="216" type="line"/>
      <point x="683" y="216" type="line"/>
    </contour>
  </outline>
</glyph>
<glyph name="currency" format="2">
  <advance width="1300"/>
  <unicode hex="00A4"/>
  <outline>
    <contour>
      <point x="982" y="383" type="line"/>
      <point x="1030" y="446"/>
      <point x="1060" y="512"/>
      <point x="1071" y="573" type="curve" smooth="yes"/>
      <point x="1074" y="591"/>
      <point x="1076" y="609"/>
      <point x="1076" y="627" type="curve" smooth="yes"/>
      <point x="1076" y="652"/>
      <point x="1074" y="698"/>
      <point x="1049" y="762" type="curve"/>
      <point x="1226" y="913" type="line"/>
      <point x="1083" y="1092" type="line"/>
      <point x="886" y="925" type="line"/>
      <point x="837" y="948"/>
      <point x="780" y="957"/>
      <point x="717" y="957" type="curve" smooth="yes"/>
      <point x="653" y="957"/>
      <point x="592" y="948"/>
      <point x="535" y="925" type="curve"/>
      <point x="399" y="1092" type="line"/>
      <point x="191" y="913" type="line"/>
      <point x="317" y="762" type="line"/>
      <point x="266" y="698"/>
      <point x="237" y="633"/>
      <point x="226" y="573" type="curve" smooth="yes"/>
      <point x="223" y="556"/>
      <point x="221" y="538"/>
      <point x="221" y="520" type="curve" smooth="yes"/>
      <point x="221" y="493"/>
      <point x="223" y="447"/>
      <point x="250" y="383" type="curve"/>
      <point x="71" y="232" type="line"/>
      <point x="217" y="55" type="line"/>
      <point x="411" y="221" type="line"/>
      <point x="459" y="198"/>
      <point x="518" y="188"/>
      <point x="582" y="188" type="curve" smooth="yes"/>
      <point x="645" y="188"/>
      <point x="705" y="199"/>
      <point x="762" y="221" type="curve"/>
      <point x="899" y="55" type="line"/>
      <point x="1106" y="232" type="line"/>
    </contour>
    <contour>
      <point x="484" y="573" type="curve" smooth="yes"/>
      <point x="508" y="702"/>
      <point x="606" y="744"/>
      <point x="680" y="744" type="curve" smooth="yes"/>
      <point x="716" y="744"/>
      <point x="755" y="734"/>
      <point x="783" y="707" type="curve" smooth="yes"/>
      <point x="810" y="680"/>
      <point x="817" y="644"/>
      <point x="817" y="616" type="curve" smooth="yes"/>
      <point x="817" y="603"/>
      <point x="816" y="588"/>
      <point x="813" y="573" type="curve"/>
      <point x="791" y="444"/>
      <point x="692" y="400"/>
      <point x="619" y="400" type="curve" smooth="yes"/>
      <point x="583" y="400"/>
      <point x="543" y="411"/>
      <point x="516" y="438" type="curve" smooth="yes"/>
      <point x="488" y="465"/>
      <point x="480" y="503"/>
      <point x="480" y="532" type="curve" smooth="yes"/>
      <point x="480" y="545"/>
      <point x="481" y="558"/>
    </contour>
  </outline>
</glyph>
<glyph name="yen" format="2">
  <advance width="1300"/>
  <unicode hex="00A5"/>
  <outline>
    <contour>
      <point x="6" y="400" type="line"/>
      <point x="315" y="400" type="line"/>
      <point x="244" y="0" type="line"/>
      <point x="595" y="0" type="line"/>
      <point x="666" y="400" type="line"/>
      <point x="1006" y="400" type="line"/>
      <point x="1039" y="589" type="line"/>
      <point x="699" y="589" type="line"/>
      <point x="710" y="650" type="line"/>
      <point x="743" y="700" type="line"/>
      <point x="1058" y="700" type="line"/>
      <point x="1092" y="889" type="line"/>
      <point x="874" y="889" type="line"/>
      <point x="1293" y="1500" type="line"/>
      <point x="958" y="1500" type="line"/>
      <point x="713" y="1143" type="line"/>
      <point x="589" y="773" type="line"/>
      <point x="548" y="1143" type="line"/>
      <point x="423" y="1520" type="line"/>
      <point x="78" y="1500" type="line"/>
      <point x="279" y="889" type="line"/>
      <point x="92" y="889" type="line"/>
      <point x="58" y="700" type="line"/>
      <point x="341" y="700" type="line"/>
      <point x="359" y="650" type="line"/>
      <point x="348" y="589" type="line"/>
      <point x="39" y="589" type="line"/>
    </contour>
  </outline>
</glyph>
<glyph name="brokenbar" format="2">
  <advance width="1300"/>
  <unicode hex="00A6"/>
  <outline>
    <contour>
      <point x="664" y="1500" type="line"/>
      <point x="523" y="700" type="line"/>
      <point x="865" y="700" type="line"/>
      <point x="1010" y="1520" type="line"/>
    </contour>
    <contour>
      <point x="464" y="362" type="line"/>
      <point x="329" y="-400" type="line"/>
      <point x="671" y="-400" type="line"/>
      <point x="806" y="362" type="line"/>
    </contour>
  </outline>
</glyph>
<glyph name="section" format="2">
  <advance width="1300"/>
  <unicode hex="00A7"/>
  <outline>
    <contour>
      <point x="1194" y="1419" type="line"/>
      <point x="1086" y="1495"/>
      <point x="982" y="1517"/>
      <point x="859" y="1517" type="curve" smooth="yes"/>
      <point x="571" y="1517"/>
      <point x="379" y="1385"/>
      <point x="342" y="1166" type="curve"/>
      <point x="339" y="1151"/>
      <point x="338" y="1136"/>
      <point x="338" y="1122" type="curve" smooth="yes"/>
      <point x="338" y="1098"/>
      <point x="341" y="1061"/>
      <point x="364" y="1014" type="curve" smooth="yes"/>
      <point x="387" y="967"/>
      <point x="421" y="925"/>
      <point x="464" y="885" type="curve"/>
      <point x="347" y="824"/>
      <point x="246" y="734"/>
      <point x="222" y="593" type="curve"/>
      <point x="217" y="569"/>
      <point x="215" y="546"/>
      <point x="215" y="525" type="curve" smooth="yes"/>
      <point x="215" y="468"/>
      <point x="233" y="400"/>
      <point x="286" y="332" type="curve" smooth="yes"/>
      <point x="338" y="264"/>
      <point x="413" y="212"/>
      <point x="484" y="163" type="curve" smooth="yes"/>
      <point x="527" y="132"/>
      <point x="568" y="105"/>
      <point x="596" y="71" type="curve" smooth="yes"/>
      <point x="624" y="37"/>
      <point x="632" y="5"/>
      <point x="632" y="-23" type="curve" smooth="yes"/>
      <point x="632" y="-32"/>
      <point x="631" y="-43"/>
      <point x="629" y="-54" type="curve" smooth="yes"/>
      <point x="610" y="-159"/>
      <point x="534" y="-200"/>
      <point x="450" y="-200" type="curve" smooth="yes"/>
      <point x="394" y="-200"/>
      <point x="332" y="-190"/>
      <point x="231" y="-129" type="curve"/>
      <point x="95" y="-299" type="line"/>
      <point x="203" y="-376"/>
      <point x="306" y="-400"/>
      <point x="431" y="-400" type="curve" smooth="yes"/>
      <point x="719" y="-400"/>
      <point x="909" y="-265"/>
      <point x="949" y="-46" type="curve"/>
      <point x="952" y="-32"/>
      <point x="953" y="-18"/>
      <point x="953" y="-4" type="curve" smooth="yes"/>
      <point x="953" y="21"/>
      <point x="949" y="59"/>
      <point x="926" y="106" type="curve" smooth="yes"/>
      <point x="903" y="153"/>
      <point x="868" y="195"/>
      <point x="825" y="234" type="curve"/>
      <point x="943" y="282"/>
      <point x="1045" y="398"/>
      <point x="1069" y="527" type="curve" smooth="yes"/>
      <point x="1074" y="551"/>
      <point x="1076" y="574"/>
      <point x="1076" y="595" type="curve" smooth="yes"/>
      <point x="1076" y="652"/>
      <point x="1058" y="720"/>
      <point x="1006" y="788" type="curve" smooth="yes"/>
      <point x="953" y="856"/>
      <point x="878" y="909"/>
      <point x="807" y="958" type="curve" smooth="yes"/>
      <point x="764" y="987"/>
      <point x="723" y="1017"/>
      <point x="695" y="1050" type="curve" smooth="yes"/>
      <point x="666" y="1083"/>
      <point x="657" y="1116"/>
      <point x="657" y="1143" type="curve" smooth="yes"/>
      <point x="657" y="1153"/>
      <point x="658" y="1163"/>
      <point x="660" y="1174" type="curve" smooth="yes"/>
      <point x="679" y="1281"/>
      <point x="757" y="1318"/>
      <point x="840" y="1318" type="curve" smooth="yes"/>
      <point x="897" y="1318"/>
      <point x="958" y="1310"/>
      <point x="1059" y="1249" type="curve"/>
    </contour>
    <contour>
      <point x="651" y="731" type="line" smooth="yes"/>
      <point x="683" y="704"/>
      <point x="715" y="676"/>
      <point x="738" y="642" type="curve" smooth="yes"/>
      <point x="761" y="608"/>
      <point x="768" y="576"/>
      <point x="768" y="552" type="curve" smooth="yes"/>
      <point x="768" y="543"/>
      <point x="767" y="534"/>
      <point x="766" y="525" type="curve"/>
      <point x="753" y="454"/>
      <point x="707" y="407"/>
      <point x="674" y="383" type="curve"/>
      <point x="660" y="372" type="line"/>
      <point x="640" y="387" type="line"/>
      <point x="608" y="414"/>
      <point x="576" y="444"/>
      <point x="553" y="478" type="curve" smooth="yes"/>
      <point x="529" y="512"/>
      <point x="522" y="543"/>
      <point x="522" y="567" type="curve" smooth="yes"/>
      <point x="522" y="576"/>
      <point x="523" y="585"/>
      <point x="525" y="595" type="curve"/>
      <point x="536" y="666"/>
      <point x="585" y="713"/>
      <point x="617" y="737" type="curve" smooth="yes"/>
      <point x="631" y="747" type="line"/>
    </contour>
  </outline>
</glyph>
<glyph name="dieresis" format="2">
  <advance width="1300"/>
  <unicode hex="00A8"/>
  <outline>
    <contour>
      <point x="438" y="1300" type="line"/>
      <point x="714" y="1300" type="line"/>
      <point x="761" y="1566" type="line"/>
      <point x="485" y="1566" type="line"/>
    </contour>
    <contour>
      <point x="838" y="1300" type="line"/>
      <point x="1114" y="1300" type="line"/>
      <point x="1161" y="1566" type="line"/>
      <point x="885" y="1566" type="line"/>
    </contour>
  </outline>
</glyph>
<glyph name="ordfeminine" format="2">
  <advance width="1300"/>
  <unicode hex="00AA"/>
  <outline>
    <contour>
      <point x="387" y="951" type="curve" smooth="yes"/>
      <point x="400" y="951" type="line" smooth="yes"/>
      <point x="412" y="951"/>
      <point x="421" y="953"/>
      <point x="429" y="954" type="curve"/>
      <point x="506" y="1040" type="line"/>
      <point x="492" y="959" type="line"/>
      <point x="653" y="959" type="line"/>
      <point x="660" y="1063" type="line"/>
      <point x="732" y="1480" type="line"/>
      <point x="693" y="1499"/>
      <point x="649" y="1508"/>
      <point x="613" y="1513" type="curve" smooth="yes"/>
      <point x="592" y="1516"/>
      <point x="572" y="1517"/>
      <point x="551" y="1517" type="curve" smooth="yes"/>
      <point x="345" y="1517"/>
      <point x="235" y="1375"/>
      <point x="219" y="1230" type="curve"/>
      <point x="216" y="1210"/>
      <point x="214" y="1190"/>
      <point x="214" y="1170" type="curve"/>
      <point x="214" y="1169"/>
      <point x="212" y="1097"/>
      <point x="239" y="1042" type="curve"/>
      <point x="263" y="990"/>
      <point x="310" y="951"/>
    </contour>
    <contour>
      <point x="517" y="1123" type="line"/>
      <point x="498" y="1099"/>
      <point x="460" y="1063"/>
      <point x="415" y="1063" type="curve" smooth="yes"/>
      <point x="396" y="1063"/>
      <point x="382" y="1080"/>
      <point x="375" y="1108" type="curve"/>
      <point x="367" y="1136"/>
      <point x="368" y="1161"/>
      <point x="368" y="1170" type="curve" smooth="yes"/>
      <point x="368" y="1184"/>
      <point x="369" y="1199"/>
      <point x="370" y="1214" type="curve"/>
      <point x="381" y="1317"/>
      <point x="434" y="1405"/>
      <point x="534" y="1405" type="curve" smooth="yes"/>
      <point x="539" y="1405"/>
      <point x="552" y="1404"/>
      <point x="565" y="1401" type="curve"/>
    </contour>
    <contour>
      <point x="168" y="690" type="line"/>
      <point x="610" y="690" type="line"/>
      <point x="631" y="810" type="line"/>
      <point x="189" y="810" type="line"/>
    </contour>
  </outline>
</glyph>
<glyph name="guillemotleft" format="2">
  <advance width="1300"/>
  <unicode hex="00AB"/>
  <outline>
    <contour>
      <point x="66" y="620" type="line"/>
      <point x="41" y="476" type="line"/>
      <point x="510" y="-13" type="line"/>
      <point x="646" y="224" type="line"/>
      <point x="363" y="517" type="line"/>
      <point x="294" y="550" type="line"/>
      <point x="376" y="583" type="line"/>
      <point x="759" y="880" type="line"/>
      <point x="710" y="1106" type="line"/>
    </contour>
    <contour>
      <point x="566" y="620" type="line"/>
      <point x="541" y="476" type="line"/>
      <point x="1010" y="-13" type="line"/>
      <point x="1146" y="224" type="line"/>
      <point x="863" y="517" type="line"/>
      <point x="794" y="550" type="line"/>
      <point x="876" y="583" type="line"/>
      <point x="1259" y="880" type="line"/>
      <point x="1210" y="1106" type="line"/>
    </contour>
  </outline>
</glyph>
<glyph name="logicalnot" format="2">
  <advance width="1300"/>
  <unicode hex="00AC"/>
  <outline>
    <contour>
      <point x="72" y="827" type="line"/>
      <point x="32" y="600" type="line"/>
      <point x="882" y="600" type="line"/>
      <point x="845" y="459" type="line"/>
      <point x="809" y="258" type="line"/>
      <point x="1151" y="258" type="line"/>
      <point x="1209" y="586" type="line"/>
      <point x="1271" y="827" type="line"/>
    </contour>
  </outline>
</glyph>
<glyph name="degree" format="2">
  <advance width="1300"/>
  <unicode hex="00B0"/>
  <outline>
    <contour>
      <point x="547" y="1517" type="curve" smooth="yes"/>
      <point x="382" y="1517"/>
      <point x="231" y="1396"/>
      <point x="204" y="1247" type="curve" smooth="yes"/>
      <point x="201" y="1232"/>
      <point x="200" y="1217"/>
      <point x="200" y="1202" type="curve" smooth="yes"/>
      <point x="200" y="1161"/>
      <point x="212" y="1105"/>
      <point x="257" y="1057" type="curve" smooth="yes"/>
      <point x="301" y="1008"/>
      <point x="369" y="977"/>
      <point x="452" y="977" type="curve" smooth="yes"/>
      <point x="616" y="977"/>
      <point x="769" y="1099"/>
      <point x="796" y="1247" type="curve" smooth="yes"/>
      <point x="799" y="1262"/>
      <point x="800" y="1276"/>
      <point x="800" y="1291" type="curve" smooth="yes"/>
      <point x="800" y="1334"/>
      <point x="787" y="1389"/>
      <point x="743" y="1438" type="curve" smooth="yes"/>
      <point x="698" y="1487"/>
      <point x="628" y="1517"/>
    </contour>
    <contour>
      <point x="482" y="1145" type="curve" smooth="yes"/>
      <point x="415" y="1145"/>
      <point x="386" y="1197"/>
      <point x="386" y="1230" type="curve" smooth="yes"/>
      <point x="386" y="1235"/>
      <point x="387" y="1241"/>
      <point x="388" y="1247" type="curve" smooth="yes"/>
      <point x="396" y="1303"/>
      <point x="456" y="1349"/>
      <point x="517" y="1349" type="curve" smooth="yes"/>
      <point x="584" y="1349"/>
      <point x="613" y="1297"/>
      <point x="613" y="1262" type="curve" smooth="yes"/>
      <point x="613" y="1257"/>
      <point x="613" y="1252"/>
      <point x="612" y="1247" type="curve" smooth="yes"/>
      <point x="601" y="1191"/>
      <point x="544" y="1145"/>
    </contour>
  </outline>
</glyph>
<glyph name="plusminus" format="2">
  <advance width="1300"/>
  <unicode hex="00B1"/>
  <outline>
    <contour>
      <point x="203" y="702" type="line"/>
      <point x="563" y="702" type="line"/>
      <point x="493" y="382" type="line"/>
      <point x="713" y="382" type="line"/>
      <point x="783" y="702" type="line"/>
      <point x="1143" y="702" type="line"/>
      <point x="1179" y="862" type="line"/>
      <point x="819" y="862" type="line"/>
      <point x="892" y="1196" type="line"/>
      <point x="672" y="1196" type="line"/>
      <point x="599" y="862" type="line"/>
      <point x="239" y="862" type="line"/>
    </contour>
    <contour>
      <point x="120" y="88" type="line"/>
      <point x="1020" y="88" type="line"/>
      <point x="1059" y="290" type="line"/>
      <point x="159" y="290" type="line"/>
    </contour>
  </outline>
</glyph>
<glyph name="twosuperior" format="2">
  <advance width="1300"/>
  <unicode hex="00B2"/>
  <outline>
    <contour>
      <point x="628" y="720" type="line"/>
      <point x="645" y="820" type="line"/>
      <point x="324" y="820" type="line"/>
      <point x="361" y="860"/>
      <point x="458" y="949"/>
      <point x="539" y="1030" type="curve" smooth="yes"/>
      <point x="619" y="1110"/>
      <point x="695" y="1170"/>
      <point x="711" y="1263" type="curve" smooth="yes"/>
      <point x="713" y="1274"/>
      <point x="714" y="1285"/>
      <point x="714" y="1296" type="curve" smooth="yes"/>
      <point x="714" y="1327"/>
      <point x="707" y="1370"/>
      <point x="674" y="1411" type="curve" smooth="yes"/>
      <point x="641" y="1451"/>
      <point x="585" y="1478"/>
      <point x="509" y="1478" type="curve" smooth="yes"/>
      <point x="381" y="1478"/>
      <point x="284" y="1414"/>
      <point x="229" y="1311" type="curve"/>
      <point x="338" y="1268" type="line"/>
      <point x="381" y="1331"/>
      <point x="428" y="1370"/>
      <point x="483" y="1370" type="curve" smooth="yes"/>
      <point x="542" y="1370"/>
      <point x="555" y="1310"/>
      <point x="555" y="1289" type="curve" smooth="yes"/>
      <point x="555" y="1282"/>
      <point x="554" y="1275"/>
      <point x="553" y="1268" type="curve" smooth="yes"/>
      <point x="542" y="1206"/>
      <point x="513" y="1184"/>
      <point x="426" y="1107" type="curve" smooth="yes"/>
      <point x="352" y="1041"/>
      <point x="218" y="913"/>
      <point x="139" y="815" type="curve"/>
      <point x="123" y="720" type="line"/>
    </contour>
  </outline>
</glyph>
<glyph name="threesuperior" format="2">
  <advance width="1300"/>
  <unicode hex="00B3"/>
  <outline>
    <contour>
      <point x="263" y="1100" type="line"/>
      <point x="283" y="1100"/>
      <point x="348" y="1105"/>
      <point x="367" y="1105" type="curve" smooth="yes"/>
      <point x="408" y="1105"/>
      <point x="446" y="1098"/>
      <point x="471" y="1082" type="curve" smooth="yes"/>
      <point x="496" y="1066"/>
      <point x="504" y="1042"/>
      <point x="504" y="1021" type="curve" smooth="yes"/>
      <point x="504" y="1015"/>
      <point x="503" y="1008"/>
      <point x="502" y="1001" type="curve" smooth="yes"/>
      <point x="483" y="893"/>
      <point x="315" y="825"/>
      <point x="158" y="820" type="curve"/>
      <point x="140" y="720" type="line"/>
      <point x="362" y="720"/>
      <point x="637" y="808"/>
      <point x="673" y="1006" type="curve"/>
      <point x="676" y="1019"/>
      <point x="677" y="1032"/>
      <point x="677" y="1045" type="curve" smooth="yes"/>
      <point x="677" y="1076"/>
      <point x="670" y="1118"/>
      <point x="635" y="1152" type="curve" smooth="yes"/>
      <point x="600" y="1186"/>
      <point x="544" y="1204"/>
      <point x="475" y="1204" type="curve"/>
      <point x="560" y="1246" type="line"/>
      <point x="615" y="1289"/>
      <point x="664" y="1331"/>
      <point x="693" y="1383" type="curve"/>
      <point x="709" y="1470" type="line"/>
      <point x="288" y="1470" type="line"/>
      <point x="259" y="1370" type="line"/>
      <point x="425" y="1370" type="line"/>
      <point x="562" y="1407" type="line"/>
      <point x="498" y="1332"/>
      <point x="348" y="1229"/>
      <point x="279" y="1189" type="curve"/>
    </contour>
  </outline>
</glyph>
<glyph name="periodcentered" format="2">
  <advance width="1300"/>
  <unicode hex="00B7"/>
  <outline>
    <contour>
      <point x="440" y="683" type="curve"/>
      <point x="437" y="670"/>
      <point x="436" y="658"/>
      <point x="436" y="646" type="curve" smooth="yes"/>
      <point x="436" y="618"/>
      <point x="444" y="578"/>
      <point x="473" y="542" type="curve" smooth="yes"/>
      <point x="502" y="506"/>
      <point x="548" y="483"/>
      <point x="603" y="483" type="curve" smooth="yes"/>
      <point x="713" y="483"/>
      <point x="814" y="574"/>
      <point x="835" y="683" type="curve" smooth="yes"/>
      <point x="837" y="695"/>
      <point x="838" y="707"/>
      <point x="838" y="718" type="curve" smooth="yes"/>
      <point x="838" y="747"/>
      <point x="832" y="787"/>
      <point x="802" y="823" type="curve" smooth="yes"/>
      <point x="772" y="859"/>
      <point x="727" y="881"/>
      <point x="672" y="881" type="curve" smooth="yes"/>
      <point x="564" y="881"/>
      <point x="459" y="792"/>
    </contour>
  </outline>
</glyph>
<glyph name="cedilla" format="2">
  <advance width="1300"/>
  <unicode hex="00B8"/>
  <outline>
    <contour>
      <point x="457" y="0" type="line"/>
      <point x="465" y="-8"/>
      <point x="485" y="-30"/>
      <point x="501" y="-58" type="curve" smooth="yes"/>
      <point x="517" y="-86"/>
      <point x="526" y="-113"/>
      <point x="526" y="-133" type="curve" smooth="yes"/>
      <point x="526" y="-138"/>
      <point x="526" y="-142"/>
      <point x="525" y="-147" type="curve" smooth="yes"/>
      <point x="518" y="-184"/>
      <point x="483" y="-200"/>
      <point x="452" y="-200" type="curve" smooth="yes"/>
      <point x="423" y="-200"/>
      <point x="383" y="-183"/>
      <point x="351" y="-166" type="curve" smooth="yes"/>
      <point x="332" y="-156"/>
      <point x="312" y="-144"/>
      <point x="293" y="-131" type="curve"/>
      <point x="150" y="-290" type="line"/>
      <point x="180" y="-312"/>
      <point x="212" y="-332"/>
      <point x="246" y="-349" type="curve" smooth="yes"/>
      <point x="305" y="-378"/>
      <point x="379" y="-407"/>
      <point x="459" y="-407" type="curve" smooth="yes"/>
      <point x="612" y="-407"/>
      <point x="764" y="-303"/>
      <point x="788" y="-171" type="curve" smooth="yes"/>
      <point x="790" y="-160"/>
      <point x="791" y="-149"/>
      <point x="791" y="-139" type="curve" smooth="yes"/>
      <point x="791" y="-112"/>
      <point x="781" y="-77"/>
      <point x="761" y="-46" type="curve"/>
      <point x="749" y="-29"/>
      <point x="735" y="-13"/>
      <point x="719" y="0" type="curve"/>
    </contour>
  </outline>
</glyph>
<glyph name="onesuperior" format="2">
  <advance width="1300"/>
  <unicode hex="00B9"/>
  <outline>
    <contour>
      <point x="362" y="820" type="line"/>
      <point x="240" y="820" type="line"/>
      <point x="222" y="720" type="line"/>
      <point x="631" y="720" type="line"/>
      <point x="649" y="820" type="line"/>
      <point x="527" y="820" type="line"/>
      <point x="642" y="1470" type="line"/>
      <point x="522" y="1480" type="line"/>
      <point x="243" y="1261" type="line"/>
      <point x="305" y="1169" type="line"/>
      <point x="353" y="1206" type="line"/>
      <point x="491" y="1341" type="line"/>
      <point x="422" y="1160" type="line"/>
    </contour>
  </outline>
</glyph>
<glyph name="ordmasculine" format="2">
  <advance width="1300"/>
  <unicode hex="00BA"/>
  <outline>
    <contour>
      <point x="467" y="950" type="curve" smooth="yes"/>
      <point x="632" y="950"/>
      <point x="757" y="1073"/>
      <point x="786" y="1235" type="curve"/>
      <point x="789" y="1256"/>
      <point x="791" y="1275"/>
      <point x="791" y="1294" type="curve" smooth="yes"/>
      <point x="791" y="1331"/>
      <point x="786" y="1386"/>
      <point x="748" y="1437" type="curve" smooth="yes"/>
      <point x="710" y="1488"/>
      <point x="647" y="1517"/>
      <point x="567" y="1517" type="curve" smooth="yes"/>
      <point x="402" y="1517"/>
      <point x="273" y="1397"/>
      <point x="244" y="1235" type="curve" smooth="yes"/>
      <point x="241" y="1216"/>
      <point x="239" y="1197"/>
      <point x="239" y="1179" type="curve" smooth="yes"/>
      <point x="239" y="1139"/>
      <point x="246" y="1083"/>
      <point x="285" y="1032" type="curve" smooth="yes"/>
      <point x="324" y="981"/>
      <point x="387" y="950"/>
    </contour>
    <contour>
      <point x="620" y="1223" type="curve"/>
      <point x="607" y="1141"/>
      <point x="560" y="1060"/>
      <point x="488" y="1060" type="curve" smooth="yes"/>
      <point x="449" y="1060"/>
      <point x="425" y="1083"/>
      <point x="413" y="1118" type="curve" smooth="yes"/>
      <point x="401" y="1153"/>
      <point x="403" y="1179"/>
      <point x="403" y="1182" type="curve" smooth="yes"/>
      <point x="403" y="1203"/>
      <point x="405" y="1223"/>
      <point x="409" y="1244" type="curve" smooth="yes"/>
      <point x="425" y="1328"/>
      <point x="470" y="1407"/>
      <point x="545" y="1407" type="curve" smooth="yes"/>
      <point x="623" y="1407"/>
      <point x="636" y="1314"/>
    </contour>
    <contour>
      <point x="179" y="690" type="line"/>
      <point x="621" y="690" type="line"/>
      <point x="642" y="810" type="line"/>
      <point x="200" y="810" type="line"/>
    </contour>
  </outline>
</glyph>
<glyph name="guillemotright" format="2">
  <advance width="1300"/>
  <unicode hex="00BB"/>
  <outline>
    <contour>
      <point x="316" y="1106" type="line"/>
      <point x="187" y="880" type="line"/>
      <point x="466" y="582" type="line"/>
      <point x="535" y="550" type="line"/>
      <point x="455" y="517" type="line"/>
      <point x="70" y="224" type="line"/>
      <point x="122" y="-13" type="line"/>
      <point x="764" y="476" type="line"/>
      <point x="789" y="619" type="line"/>
    </contour>
    <contour>
      <point x="816" y="1106" type="line"/>
      <point x="687" y="880" type="line"/>
      <point x="966" y="582" type="line"/>
      <point x="1035" y="550" type="line"/>
      <point x="955" y="517" type="line"/>
      <point x="570" y="224" type="line"/>
      <point x="622" y="-13" type="line"/>
      <point x="1264" y="476" type="line"/>
      <point x="1289" y="619" type="line"/>
    </contour>
  </outline>
</glyph>
<glyph name="onehalf" format="2">
  <advance width="1300"/>
  <unicode hex="00BD"/>
  <outline>
    <contour>
      <point x="1282" y="1500" type="line"/>
      <point x="1106" y="1500" type="line"/>
      <point x="66" y="0" type="line"/>
      <point x="251" y="0" type="line"/>
    </contour>
    <contour>
      <point x="240" y="820" type="line"/>
      <point x="118" y="820" type="line"/>
      <point x="100" y="720" type="line"/>
      <point x="509" y="720" type="line"/>
      <point x="527" y="820" type="line"/>
      <point x="405" y="820" type="line"/>
      <point x="520" y="1470" type="line"/>
      <point x="400" y="1480" type="line"/>
      <point x="121" y="1261" type="line"/>
      <point x="183" y="1169" type="line"/>
      <point x="231" y="1206" type="line"/>
      <point x="369" y="1341" type="line"/>
      <point x="300" y="1160" type="line"/>
    </contour>
    <contour>
      <point x="1181" y="0" type="line"/>
      <point x="1198" y="100" type="line"/>
      <point x="877" y="100" type="line"/>
      <point x="914" y="140"/>
      <point x="1011" y="229"/>
      <point x="1092" y="310" type="curve" smooth="yes"/>
      <point x="1172" y="390"/>
      <point x="1248" y="450"/>
      <point x="1264" y="543" type="curve" smooth="yes"/>
      <point x="1266" y="554"/>
      <point x="1267" y="565"/>
      <point x="1267" y="576" type="curve" smooth="yes"/>
      <point x="1267" y="607"/>
      <point x="1260" y="650"/>
      <point x="1227" y="691" type="curve" smooth="yes"/>
      <point x="1194" y="731"/>
      <point x="1138" y="758"/>
      <point x="1062" y="758" type="curve" smooth="yes"/>
      <point x="934" y="758"/>
      <point x="837" y="694"/>
      <point x="782" y="591" type="curve"/>
      <point x="891" y="548" type="line"/>
      <point x="934" y="611"/>
      <point x="981" y="650"/>
      <point x="1036" y="650" type="curve" smooth="yes"/>
      <point x="1095" y="650"/>
      <point x="1108" y="590"/>
      <point x="1108" y="569" type="curve" smooth="yes"/>
      <point x="1108" y="562"/>
      <point x="1107" y="555"/>
      <point x="1106" y="548" type="curve" smooth="yes"/>
      <point x="1095" y="486"/>
      <point x="1066" y="464"/>
      <point x="979" y="387" type="curve" smooth="yes"/>
      <point x="905" y="321"/>
      <point x="771" y="193"/>
      <point x="692" y="95" type="curve"/>
      <point x="676" y="0" type="line"/>
    </contour>
  </outline>
</glyph>
<glyph name="threequarters" format="2">
  <advance width="1300"/>
  <unicode hex="00BE"/>
  <outline>
    <contour>
      <point x="1292" y="1500" type="line"/>
      <point x="1116" y="1500" type="line"/>
      <point x="76" y="0" type="line"/>
      <point x="261" y="0" type="line"/>
    </contour>
    <contour>
      <point x="223" y="1100" type="line"/>
      <point x="243" y="1100"/>
      <point x="308" y="1105"/>
      <point x="327" y="1105" type="curve" smooth="yes"/>
      <point x="368" y="1105"/>
      <point x="406" y="1098"/>
      <point x="431" y="1082" type="curve" smooth="yes"/>
      <point x="456" y="1066"/>
      <point x="464" y="1042"/>
      <point x="464" y="1021" type="curve" smooth="yes"/>
      <point x="464" y="1015"/>
      <point x="463" y="1008"/>
      <point x="462" y="1001" type="curve"/>
      <point x="443" y="893"/>
      <point x="275" y="825"/>
      <point x="118" y="820" type="curve"/>
      <point x="100" y="720" type="line"/>
      <point x="322" y="720"/>
      <point x="597" y="808"/>
      <point x="633" y="1006" type="curve"/>
      <point x="636" y="1019"/>
      <point x="637" y="1032"/>
      <point x="637" y="1045" type="curve" smooth="yes"/>
      <point x="637" y="1076"/>
      <point x="630" y="1118"/>
      <point x="595" y="1152" type="curve" smooth="yes"/>
      <point x="560" y="1186"/>
      <point x="504" y="1204"/>
      <point x="435" y="1204" type="curve"/>
      <point x="520" y="1246" type="line"/>
      <point x="575" y="1289"/>
      <point x="624" y="1331"/>
      <point x="653" y="1383" type="curve"/>
      <point x="669" y="1470" type="line"/>
      <point x="248" y="1470" type="line"/>
      <point x="219" y="1370" type="line"/>
      <point x="385" y="1370" type="line"/>
      <point x="522" y="1407" type="line"/>
      <point x="458" y="1332"/>
      <point x="308" y="1229"/>
      <point x="239" y="1189" type="curve"/>
    </contour>
    <contour>
      <point x="1198" y="250" type="line"/>
      <point x="1098" y="250" type="line"/>
      <point x="1125" y="400" type="line"/>
      <point x="962" y="390" type="line"/>
      <point x="938" y="250" type="line"/>
      <point x="792" y="250" type="line"/>
      <point x="902" y="381" type="line"/>
      <point x="1133" y="750" type="line"/>
      <point x="994" y="760" type="line"/>
      <point x="658" y="250" type="line"/>
      <point x="640" y="150" type="line"/>
      <point x="920" y="150" type="line"/>
      <point x="893" y="0" type="line"/>
      <point x="1054" y="0" type="line"/>
      <point x="1080" y="150" type="line"/>
      <point x="1169" y="150" type="line"/>
    </contour>
  </outline>
</glyph>
<glyph name="questiondown" format="2">
  <advance width="1300"/>
  <unicode hex="00BF"/>
  <outline>
    <contour>
      <point x="1014" y="951" type="curve" smooth="yes"/>
      <point x="1016" y="961"/>
      <point x="1017" y="971"/>
      <point x="1017" y="981" type="curve" smooth="yes"/>
      <point x="1017" y="1004"/>
      <point x="1012" y="1038"/>
      <point x="988" y="1068" type="curve" smooth="yes"/>
      <point x="963" y="1098"/>
      <point x="924" y="1117"/>
      <point x="880" y="1117" type="curve" smooth="yes"/>
      <point x="789" y="1117"/>
      <point x="704" y="1040"/>
      <point x="688" y="951" type="curve" smooth="yes"/>
      <point x="686" y="941"/>
      <point x="685" y="931"/>
      <point x="685" y="922" type="curve" smooth="yes"/>
      <point x="685" y="898"/>
      <point x="691" y="866"/>
      <point x="716" y="836" type="curve" smooth="yes"/>
      <point x="740" y="806"/>
      <point x="778" y="787"/>
      <point x="823" y="787" type="curve" smooth="yes"/>
      <point x="913" y="787"/>
      <point x="998" y="861"/>
    </contour>
    <contour>
      <point x="141" y="-24" type="curve" smooth="yes"/>
      <point x="136" y="-50"/>
      <point x="134" y="-75"/>
      <point x="134" y="-98" type="curve" smooth="yes"/>
      <point x="134" y="-173"/>
      <point x="160" y="-257"/>
      <point x="240" y="-322" type="curve" smooth="yes"/>
      <point x="320" y="-386"/>
      <point x="437" y="-417"/>
      <point x="564" y="-417" type="curve" smooth="yes"/>
      <point x="720" y="-417"/>
      <point x="932" y="-371"/>
      <point x="1119" y="-168" type="curve"/>
      <point x="964" y="-17" type="line"/>
      <point x="849" y="-141"/>
      <point x="699" y="-183"/>
      <point x="630" y="-183" type="curve" smooth="yes"/>
      <point x="585" y="-183"/>
      <point x="542" y="-172"/>
      <point x="514" y="-148" type="curve" smooth="yes"/>
      <point x="485" y="-123"/>
      <point x="477" y="-91"/>
      <point x="477" y="-64" type="curve" smooth="yes"/>
      <point x="477" y="-54"/>
      <point x="478" y="-43"/>
      <point x="480" y="-32" type="curve" smooth="yes"/>
      <point x="496" y="55"/>
      <point x="560" y="107"/>
      <point x="630" y="158" type="curve"/>
      <point x="842" y="299"/>
      <point x="931" y="469"/>
      <point x="974" y="701" type="curve"/>
      <point x="657" y="666" type="line"/>
      <point x="628" y="499"/>
      <point x="525" y="401"/>
      <point x="435" y="335" type="curve"/>
      <point x="300" y="233"/>
      <point x="171" y="137"/>
    </contour>
  </outline>
</glyph>
<glyph name="Agrave" format="2">
  <advance width="1300"/>
  <unicode hex="00C0"/>
  <outline>
    <contour>
      <point x="851" y="646" type="line"/>
      <point x="627" y="646" type="line"/>
      <point x="763" y="990" type="line"/>
      <point x="862" y="1331" type="line"/>
      <point x="840" y="990" type="line"/>
    </contour>
    <contour>
      <point x="530" y="427" type="line"/>
      <point x="872" y="427" type="line"/>
      <point x="900" y="0" type="line"/>
      <point x="1234" y="0" type="line"/>
      <point x="1072" y="1520" type="line"/>
      <point x="680" y="1500" type="line"/>
      <point x="616" y="1284" type="line"/>
      <point x="35" y="0" type="line"/>
      <point x="353" y="0" type="line"/>
    </contour>
    <contour>
      <point x="558" y="1920" type="line"/>
      <point x="786" y="1600" type="line"/>
      <point x="1001" y="1600" type="line"/>
      <point x="891" y="1900" type="line"/>
    </contour>
  </outline>
</glyph>
<glyph name="Acircumflex" format="2">
  <advance width="1300"/>
  <unicode hex="00C2"/>
  <outline>
    <contour>
      <point x="851" y="646" type="line"/>
      <point x="627" y="646" type="line"/>
      <point x="763" y="990" type="line"/>
      <point x="862" y="1331" type="line"/>
      <point x="840" y="990" type="line"/>
    </contour>
    <contour>
      <point x="530" y="427" type="line"/>
      <point x="872" y="427" type="line"/>
      <point x="900" y="0" type="line"/>
      <point x="1234" y="0" type="line"/>
      <point x="1072" y="1520" type="line"/>
      <point x="680" y="1500" type="line"/>
      <point x="616" y="1284" type="line"/>
      <point x="35" y="0" type="line"/>
      <point x="353" y="0" type="line"/>
    </contour>
    <contour>
      <point x="805" y="1900" type="line"/>
      <point x="561" y="1620" type="line"/>
      <point x="800" y="1620" type="line"/>
      <point x="899" y="1723" type="line"/>
      <point x="952" y="1850" type="line"/>
      <point x="959" y="1723" type="line"/>
      <point x="1011" y="1620" type="line"/>
      <point x="1231" y="1620" type="line"/>
      <point x="1099" y="1920" type="line"/>
    </contour>
  </outline>
</glyph>
<glyph name="Atilde" format="2">
  <advance width="1300"/>
  <unicode hex="00C3"/>
  <outline>
    <contour>
      <point x="688" y="1620" type="line"/>
      <point x="704" y="1660"/>
      <point x="729" y="1700"/>
      <point x="775" y="1700" type="curve" smooth="yes"/>
      <point x="869" y="1700"/>
      <point x="888" y="1620"/>
      <point x="1010" y="1620" type="curve" smooth="yes"/>
      <point x="1188" y="1620"/>
      <point x="1272" y="1765"/>
      <point x="1301" y="1882" type="curve"/>
      <point x="1135" y="1892" type="line"/>
      <point x="1119" y="1844"/>
      <point x="1095" y="1804"/>
      <point x="1039" y="1804" type="curve" smooth="yes"/>
      <point x="956" y="1804"/>
      <point x="934" y="1884"/>
      <point x="803" y="1884" type="curve" smooth="yes"/>
      <point x="635" y="1884"/>
      <point x="537" y="1735"/>
      <point x="507" y="1627" type="curve"/>
    </contour>
    <contour>
      <point x="353" y="0" type="line"/>
      <point x="530" y="427" type="line"/>
      <point x="872" y="427" type="line"/>
      <point x="900" y="0" type="line"/>
      <point x="1234" y="0" type="line"/>
      <point x="1072" y="1520" type="line"/>
      <point x="680" y="1500" type="line"/>
      <point x="616" y="1284" type="line"/>
      <point x="35" y="0" type="line"/>
    </contour>
    <contour>
      <point x="840" y="990" type="line"/>
      <point x="851" y="646" type="line"/>
      <point x="627" y="646" type="line"/>
      <point x="763" y="990" type="line"/>
      <point x="862" y="1331" type="line"/>
    </contour>
  </outline>
</glyph>
<glyph name="Aring" format="2">
  <advance width="1300"/>
  <unicode hex="00C5"/>
  <outline>
    <contour>
      <point x="353" y="0" type="line"/>
      <point x="530" y="427" type="line"/>
      <point x="872" y="427" type="line"/>
      <point x="900" y="0" type="line"/>
      <point x="1234" y="0" type="line"/>
      <point x="1081" y="1431" type="line"/>
      <point x="1084" y="1434"/>
      <point x="1087" y="1436"/>
      <point x="1090" y="1439" type="curve" smooth="yes"/>
      <point x="1150" y="1491"/>
      <point x="1193" y="1563"/>
      <point x="1208" y="1642" type="curve" smooth="yes"/>
      <point x="1211" y="1659"/>
      <point x="1212" y="1676"/>
      <point x="1212" y="1692" type="curve" smooth="yes"/>
      <point x="1212" y="1735"/>
      <point x="1203" y="1792"/>
      <point x="1161" y="1844" type="curve" smooth="yes"/>
      <point x="1119" y="1895"/>
      <point x="1053" y="1927"/>
      <point x="974" y="1927" type="curve" smooth="yes"/>
      <point x="818" y="1927"/>
      <point x="665" y="1799"/>
      <point x="638" y="1642" type="curve" smooth="yes"/>
      <point x="635" y="1625"/>
      <point x="633" y="1608"/>
      <point x="633" y="1591" type="curve" smooth="yes"/>
      <point x="633" y="1570"/>
      <point x="636" y="1550"/>
      <point x="641" y="1531" type="curve" smooth="yes"/>
      <point x="648" y="1506"/>
      <point x="657" y="1484"/>
      <point x="669" y="1464" type="curve"/>
      <point x="616" y="1284" type="line"/>
      <point x="35" y="0" type="line"/>
    </contour>
    <contour>
      <point x="907" y="1542" type="curve" smooth="yes"/>
      <point x="848" y="1542"/>
      <point x="825" y="1595"/>
      <point x="825" y="1623" type="curve" smooth="yes"/>
      <point x="825" y="1629"/>
      <point x="826" y="1635"/>
      <point x="827" y="1641" type="curve" smooth="yes"/>
      <point x="835" y="1694"/>
      <point x="889" y="1738"/>
      <point x="941" y="1738" type="curve" smooth="yes"/>
      <point x="1000" y="1738"/>
      <point x="1022" y="1688"/>
      <point x="1022" y="1657" type="curve" smooth="yes"/>
      <point x="1022" y="1652"/>
      <point x="1022" y="1646"/>
      <point x="1021" y="1641" type="curve" smooth="yes"/>
      <point x="1010" y="1588"/>
      <point x="961" y="1542"/>
    </contour>
    <contour>
      <point x="840" y="990" type="line"/>
      <point x="851" y="646" type="line"/>
      <point x="627" y="646" type="line"/>
      <point x="763" y="990" type="line"/>
      <point x="862" y="1331" type="line"/>
    </contour>
  </outline>
</glyph>
<glyph name="AE" format="2">
  <advance width="1300"/>
  <unicode hex="00C6"/>
  <outline>
    <contour>
      <point x="817" y="228" type="line"/>
      <point x="848" y="360" type="line"/>
      <point x="908" y="703" type="line"/>
      <point x="1157" y="703" type="line"/>
      <point x="1195" y="916" type="line"/>
      <point x="946" y="916" type="line"/>
      <point x="984" y="1133" type="line"/>
      <point x="986" y="1156"/>
      <point x="988" y="1179"/>
      <point x="989" y="1202" type="curve"/>
      <point x="989" y="1204" type="line" smooth="yes"/>
      <point x="989" y="1208"/>
      <point x="989" y="1212"/>
      <point x="990" y="1216" type="curve"/>
      <point x="990" y="1218" type="line" smooth="yes"/>
      <point x="990" y="1222"/>
      <point x="990" y="1226"/>
      <point x="991" y="1230" type="curve"/>
      <point x="991" y="1232" type="line"/>
      <point x="991" y="1244" type="line"/>
      <point x="992" y="1246" type="line"/>
      <point x="992" y="1258" type="line"/>
      <point x="992" y="1260" type="line"/>
      <point x="993" y="1264"/>
      <point x="993" y="1268"/>
      <point x="993" y="1272" type="curve"/>
      <point x="1325" y="1272" type="line"/>
      <point x="1365" y="1500" type="line"/>
      <point x="653" y="1500" type="line"/>
      <point x="569" y="1284" type="line"/>
      <point x="-82" y="0" type="line"/>
      <point x="181" y="0" type="line"/>
      <point x="403" y="427" type="line"/>
      <point x="574" y="427" type="line"/>
      <point x="539" y="231" type="line"/>
      <point x="480" y="0" type="line"/>
      <point x="1110" y="0" type="line"/>
      <point x="1177" y="228" type="line"/>
    </contour>
    <contour>
      <point x="604" y="599" type="line"/>
      <point x="481" y="599" type="line"/>
      <point x="590" y="851" type="line"/>
      <point x="710" y="1250" type="line"/>
    </contour>
  </outline>
</glyph>
<glyph name="Ccedilla" format="2">
  <advance width="1300"/>
  <unicode hex="00C7"/>
  <outline>
    <contour>
      <point x="965" y="340" type="line"/>
      <point x="808" y="260"/>
      <point x="724" y="233"/>
      <point x="633" y="233" type="curve" smooth="yes"/>
      <point x="554" y="233"/>
      <point x="495" y="266"/>
      <point x="455" y="319" type="curve" smooth="yes"/>
      <point x="392" y="400"/>
      <point x="376" y="525"/>
      <point x="376" y="614" type="curve" smooth="yes"/>
      <point x="376" y="637"/>
      <point x="375" y="691"/>
      <point x="390" y="772" type="curve"/>
      <point x="438" y="1048"/>
      <point x="559" y="1270"/>
      <point x="812" y="1270" type="curve" smooth="yes"/>
      <point x="903" y="1270"/>
      <point x="1003" y="1219"/>
      <point x="1081" y="1160" type="curve"/>
      <point x="1261" y="1344" type="line"/>
      <point x="1166" y="1455"/>
      <point x="1011" y="1517"/>
      <point x="840" y="1517" type="curve" smooth="yes"/>
      <point x="290" y="1517"/>
      <point x="112" y="1172"/>
      <point x="40" y="769" type="curve" smooth="yes"/>
      <point x="29" y="708"/>
      <point x="24" y="648"/>
      <point x="24" y="589" type="curve" smooth="yes"/>
      <point x="24" y="570"/>
      <point x="19" y="490"/>
      <point x="51" y="374" type="curve" smooth="yes"/>
      <point x="98" y="199"/>
      <point x="209" y="68"/>
      <point x="378" y="12" type="curve" smooth="yes"/>
      <point x="403" y="3"/>
      <point x="430" y="-4"/>
      <point x="459" y="-9" type="curve"/>
      <point x="462" y="-12"/>
      <point x="466" y="-17"/>
      <point x="470" y="-22" type="curve"/>
      <point x="497" y="-53"/>
      <point x="520" y="-104"/>
      <point x="520" y="-133" type="curve" smooth="yes"/>
      <point x="520" y="-138"/>
      <point x="520" y="-142"/>
      <point x="519" y="-147" type="curve" smooth="yes"/>
      <point x="512" y="-184"/>
      <point x="477" y="-200"/>
      <point x="446" y="-200" type="curve" smooth="yes"/>
      <point x="417" y="-200"/>
      <point x="377" y="-183"/>
      <point x="345" y="-166" type="curve" smooth="yes"/>
      <point x="326" y="-156"/>
      <point x="306" y="-144"/>
      <point x="287" y="-131" type="curve"/>
      <point x="144" y="-290" type="line"/>
      <point x="174" y="-312"/>
      <point x="206" y="-332"/>
      <point x="240" y="-349" type="curve" smooth="yes"/>
      <point x="299" y="-378"/>
      <point x="373" y="-407"/>
      <point x="453" y="-407" type="curve" smooth="yes"/>
      <point x="606" y="-407"/>
      <point x="758" y="-303"/>
      <point x="782" y="-171" type="curve" smooth="yes"/>
      <point x="784" y="-160"/>
      <point x="785" y="-149"/>
      <point x="785" y="-139" type="curve" smooth="yes"/>
      <point x="785" y="-112"/>
      <point x="775" y="-77"/>
      <point x="755" y="-46" type="curve"/>
      <point x="744" y="-31"/>
      <point x="732" y="-17"/>
      <point x="718" y="-4" type="curve"/>
      <point x="751" y="1"/>
      <point x="783" y="9"/>
      <point x="814" y="18" type="curve" smooth="yes"/>
      <point x="893" y="41"/>
      <point x="971" y="79"/>
      <point x="1048" y="133" type="curve"/>
    </contour>
  </outline>
</glyph>
<glyph name="Eacute" format="2">
  <advance width="1300"/>
  <unicode hex="00C9"/>
  <outline>
    <contour>
      <point x="439" y="228" type="line"/>
      <point x="471" y="360" type="line"/>
      <point x="531" y="703" type="line"/>
      <point x="1047" y="703" type="line"/>
      <point x="1085" y="916" type="line"/>
      <point x="569" y="916" type="line"/>
      <point x="607" y="1134" type="line"/>
      <point x="617" y="1272" type="line"/>
      <point x="1214" y="1272" type="line"/>
      <point x="1254" y="1500" type="line"/>
      <point x="279" y="1500" type="line"/>
      <point x="279" y="1263" type="line"/>
      <point x="97" y="231" type="line"/>
      <point x="39" y="0" type="line"/>
      <point x="999" y="0" type="line"/>
      <point x="1066" y="228" type="line"/>
    </contour>
    <contour>
      <point x="561" y="1600" type="line"/>
      <point x="776" y="1600" type="line"/>
      <point x="1118" y="1920" type="line"/>
      <point x="777" y="1900" type="line"/>
    </contour>
  </outline>
</glyph>
<glyph name="Igrave" format="2">
  <advance width="1300"/>
  <unicode hex="00CC"/>
  <outline>
    <contour>
      <point x="278" y="1272" type="line"/>
      <point x="584" y="1272" type="line"/>
      <point x="399" y="228" type="line"/>
      <point x="121" y="228" type="line"/>
      <point x="81" y="0" type="line"/>
      <point x="959" y="0" type="line"/>
      <point x="1034" y="228" type="line"/>
      <point x="733" y="228" type="line"/>
      <point x="918" y="1272" type="line"/>
      <point x="1191" y="1272" type="line"/>
      <point x="1231" y="1500" type="line"/>
      <point x="353" y="1500" type="line"/>
    </contour>
    <contour>
      <point x="886" y="1900" type="line"/>
      <point x="553" y="1920" type="line"/>
      <point x="781" y="1600" type="line"/>
      <point x="996" y="1600" type="line"/>
    </contour>
  </outline>
</glyph>
<glyph name="Iacute" format="2">
  <advance width="1300"/>
  <unicode hex="00CD"/>
  <outline>
    <contour>
      <point x="278" y="1272" type="line"/>
      <point x="584" y="1272" type="line"/>
      <point x="399" y="228" type="line"/>
      <point x="121" y="228" type="line"/>
      <point x="81" y="0" type="line"/>
      <point x="959" y="0" type="line"/>
      <point x="1034" y="228" type="line"/>
      <point x="733" y="228" type="line"/>
      <point x="918" y="1272" type="line"/>
      <point x="1191" y="1272" type="line"/>
      <point x="1231" y="1500" type="line"/>
      <point x="353" y="1500" type="line"/>
    </contour>
    <contour>
      <point x="741" y="1600" type="line"/>
      <point x="956" y="1600" type="line"/>
      <point x="1298" y="1920" type="line"/>
      <point x="957" y="1900" type="line"/>
    </contour>
  </outline>
</glyph>
<glyph name="Icircumflex" format="2">
  <advance width="1300"/>
  <unicode hex="00CE"/>
  <outline>
    <contour>
      <point x="278" y="1272" type="line"/>
      <point x="584" y="1272" type="line"/>
      <point x="399" y="228" type="line"/>
      <point x="121" y="228" type="line"/>
      <point x="81" y="0" type="line"/>
      <point x="959" y="0" type="line"/>
      <point x="1034" y="228" type="line"/>
      <point x="733" y="228" type="line"/>
      <point x="918" y="1272" type="line"/>
      <point x="1191" y="1272" type="line"/>
      <point x="1231" y="1500" type="line"/>
      <point x="353" y="1500" type="line"/>
    </contour>
    <contour>
      <point x="1046" y="1924" type="line"/>
      <point x="752" y="1904" type="line"/>
      <point x="508" y="1624" type="line"/>
      <point x="747" y="1624" type="line"/>
      <point x="846" y="1727" type="line"/>
      <point x="899" y="1854" type="line"/>
      <point x="906" y="1727" type="line"/>
      <point x="958" y="1624" type="line"/>
      <point x="1178" y="1624" type="line"/>
    </contour>
  </outline>
</glyph>
<glyph name="Eth" format="2">
  <advance width="1300"/>
  <unicode hex="00D0"/>
  <outline>
    <contour>
      <point x="585" y="1289" type="curve" smooth="yes"/>
      <point x="944" y="1289"/>
      <point x="984" y="1078"/>
      <point x="931" y="778" type="curve" smooth="yes"/>
      <point x="897" y="583"/>
      <point x="823" y="256"/>
      <point x="397" y="230" type="curve"/>
      <point x="474" y="665" type="line"/>
      <point x="654" y="665" type="line"/>
      <point x="693" y="888" type="line"/>
      <point x="513" y="888" type="line"/>
      <point x="555" y="1127" type="line"/>
      <point x="563" y="1288" type="line"/>
      <point x="571" y="1289"/>
      <point x="578" y="1289"/>
    </contour>
    <contour>
      <point x="123" y="665" type="line"/>
      <point x="6" y="0" type="line"/>
      <point x="358" y="0" type="line" smooth="yes"/>
      <point x="777" y="0"/>
      <point x="1185" y="226"/>
      <point x="1287" y="807" type="curve" smooth="yes"/>
      <point x="1376" y="1309"/>
      <point x="1080" y="1517"/>
      <point x="633" y="1517" type="curve" smooth="yes"/>
      <point x="544" y="1517"/>
      <point x="361" y="1513"/>
      <point x="228" y="1500" type="curve"/>
      <point x="228" y="1263" type="line"/>
      <point x="162" y="888" type="line"/>
      <point x="2" y="888" type="line"/>
      <point x="-36" y="665" type="line"/>
    </contour>
  </outline>
</glyph>
<glyph name="Ograve" format="2">
  <advance width="1300"/>
  <unicode hex="00D2"/>
  <outline>
    <contour>
      <point x="891" y="1900" type="line"/>
      <point x="558" y="1920" type="line"/>
      <point x="786" y="1600" type="line"/>
      <point x="1001" y="1600" type="line"/>
    </contour>
    <contour>
      <point x="488" y="-17" type="curve" smooth="yes"/>
      <point x="891" y="-17"/>
      <point x="1146" y="330"/>
      <point x="1222" y="750" type="curve" smooth="yes"/>
      <point x="1235" y="820"/>
      <point x="1241" y="887"/>
      <point x="1241" y="952" type="curve" smooth="yes"/>
      <point x="1241" y="984"/>
      <point x="1238" y="1031"/>
      <point x="1232" y="1094" type="curve" smooth="yes"/>
      <point x="1225" y="1156"/>
      <point x="1203" y="1222"/>
      <point x="1165" y="1291" type="curve" smooth="yes"/>
      <point x="1089" y="1430"/>
      <point x="955" y="1517"/>
      <point x="759" y="1517" type="curve" smooth="yes"/>
      <point x="358" y="1517"/>
      <point x="97" y="1170"/>
      <point x="25" y="750" type="curve"/>
      <point x="-51" y="330"/>
      <point x="98" y="-17"/>
    </contour>
    <contour>
      <point x="866" y="721" type="curve" smooth="yes"/>
      <point x="829" y="506"/>
      <point x="741" y="226"/>
      <point x="536" y="226" type="curve" smooth="yes"/>
      <point x="387" y="226"/>
      <point x="352" y="368"/>
      <point x="352" y="513" type="curve" smooth="yes"/>
      <point x="352" y="518"/>
      <point x="352" y="532"/>
      <point x="353" y="555" type="curve"/>
      <point x="353" y="578"/>
      <point x="356" y="611"/>
      <point x="361" y="655" type="curve" smooth="yes"/>
      <point x="366" y="698"/>
      <point x="373" y="741"/>
      <point x="380" y="783" type="curve" smooth="yes"/>
      <point x="416" y="999"/>
      <point x="504" y="1274"/>
      <point x="710" y="1274" type="curve" smooth="yes"/>
      <point x="860" y="1274"/>
      <point x="895" y="1131"/>
      <point x="895" y="994" type="curve" smooth="yes"/>
      <point x="895" y="987"/>
      <point x="895" y="972"/>
      <point x="894" y="949" type="curve" smooth="yes"/>
      <point x="893" y="925"/>
      <point x="890" y="891"/>
      <point x="885" y="848" type="curve" smooth="yes"/>
      <point x="880" y="805"/>
      <point x="873" y="762"/>
    </contour>
  </outline>
</glyph>
<glyph name="Oacute" format="2">
  <advance width="1300"/>
  <unicode hex="00D3"/>
  <outline>
    <contour>
      <point x="576" y="1600" type="line"/>
      <point x="791" y="1600" type="line"/>
      <point x="1133" y="1920" type="line"/>
      <point x="792" y="1900" type="line"/>
    </contour>
    <contour>
      <point x="488" y="-17" type="curve" smooth="yes"/>
      <point x="891" y="-17"/>
      <point x="1146" y="330"/>
      <point x="1222" y="750" type="curve" smooth="yes"/>
      <point x="1235" y="820"/>
      <point x="1241" y="887"/>
      <point x="1241" y="952" type="curve" smooth="yes"/>
      <point x="1241" y="984"/>
      <point x="1238" y="1031"/>
      <point x="1232" y="1094" type="curve" smooth="yes"/>
      <point x="1225" y="1156"/>
      <point x="1203" y="1222"/>
      <point x="1165" y="1291" type="curve" smooth="yes"/>
      <point x="1089" y="1430"/>
      <point x="955" y="1517"/>
      <point x="759" y="1517" type="curve" smooth="yes"/>
      <point x="358" y="1517"/>
      <point x="97" y="1170"/>
      <point x="25" y="750" type="curve"/>
      <point x="-51" y="330"/>
      <point x="98" y="-17"/>
    </contour>
    <contour>
      <point x="866" y="721" type="curve" smooth="yes"/>
      <point x="829" y="506"/>
      <point x="741" y="226"/>
      <point x="536" y="226" type="curve" smooth="yes"/>
      <point x="387" y="226"/>
      <point x="352" y="368"/>
      <point x="352" y="513" type="curve" smooth="yes"/>
      <point x="352" y="518"/>
      <point x="352" y="532"/>
      <point x="353" y="555" type="curve"/>
      <point x="353" y="578"/>
      <point x="356" y="611"/>
      <point x="361" y="655" type="curve" smooth="yes"/>
      <point x="366" y="698"/>
      <point x="373" y="741"/>
      <point x="380" y="783" type="curve" smooth="yes"/>
      <point x="416" y="999"/>
      <point x="504" y="1274"/>
      <point x="710" y="1274" type="curve" smooth="yes"/>
      <point x="860" y="1274"/>
      <point x="895" y="1131"/>
      <point x="895" y="994" type="curve" smooth="yes"/>
      <point x="895" y="987"/>
      <point x="895" y="972"/>
      <point x="894" y="949" type="curve" smooth="yes"/>
      <point x="893" y="925"/>
      <point x="890" y="891"/>
      <point x="885" y="848" type="curve" smooth="yes"/>
      <point x="880" y="805"/>
      <point x="873" y="762"/>
    </contour>
  </outline>
</glyph>
<glyph name="Ocircumflex" format="2">
  <advance width="1300"/>
  <unicode hex="00D4"/>
  <outline>
    <contour>
      <point x="993" y="1920" type="line"/>
      <point x="699" y="1900" type="line"/>
      <point x="455" y="1620" type="line"/>
      <point x="694" y="1620" type="line"/>
      <point x="793" y="1723" type="line"/>
      <point x="846" y="1850" type="line"/>
      <point x="853" y="1723" type="line"/>
      <point x="905" y="1620" type="line"/>
      <point x="1125" y="1620" type="line"/>
    </contour>
    <contour>
      <point x="487" y="-17" type="curve" smooth="yes"/>
      <point x="890" y="-17"/>
      <point x="1145" y="330"/>
      <point x="1221" y="750" type="curve" smooth="yes"/>
      <point x="1234" y="820"/>
      <point x="1240" y="887"/>
      <point x="1240" y="952" type="curve" smooth="yes"/>
      <point x="1240" y="984"/>
      <point x="1237" y="1031"/>
      <point x="1231" y="1094" type="curve" smooth="yes"/>
      <point x="1224" y="1156"/>
      <point x="1202" y="1222"/>
      <point x="1164" y="1291" type="curve" smooth="yes"/>
      <point x="1088" y="1430"/>
      <point x="954" y="1517"/>
      <point x="758" y="1517" type="curve" smooth="yes"/>
      <point x="357" y="1517"/>
      <point x="96" y="1170"/>
      <point x="24" y="750" type="curve"/>
      <point x="-52" y="330"/>
      <point x="97" y="-17"/>
    </contour>
    <contour>
      <point x="865" y="721" type="curve" smooth="yes"/>
      <point x="828" y="506"/>
      <point x="740" y="226"/>
      <point x="535" y="226" type="curve" smooth="yes"/>
      <point x="386" y="226"/>
      <point x="351" y="368"/>
      <point x="351" y="513" type="curve" smooth="yes"/>
      <point x="351" y="518"/>
      <point x="351" y="532"/>
      <point x="352" y="555" type="curve"/>
      <point x="352" y="578"/>
      <point x="355" y="611"/>
      <point x="360" y="655" type="curve" smooth="yes"/>
      <point x="365" y="698"/>
      <point x="372" y="741"/>
      <point x="379" y="783" type="curve" smooth="yes"/>
      <point x="415" y="999"/>
      <point x="503" y="1274"/>
      <point x="709" y="1274" type="curve" smooth="yes"/>
      <point x="859" y="1274"/>
      <point x="894" y="1131"/>
      <point x="894" y="994" type="curve" smooth="yes"/>
      <point x="894" y="987"/>
      <point x="894" y="972"/>
      <point x="893" y="949" type="curve" smooth="yes"/>
      <point x="892" y="925"/>
      <point x="889" y="891"/>
      <point x="884" y="848" type="curve" smooth="yes"/>
      <point x="879" y="805"/>
      <point x="872" y="762"/>
    </contour>
  </outline>
</glyph>
<glyph name="Otilde" format="2">
  <advance width="1300"/>
  <unicode hex="00D5"/>
  <outline>
    <contour>
      <point x="636" y="1620" type="line"/>
      <point x="652" y="1660"/>
      <point x="677" y="1700"/>
      <point x="723" y="1700" type="curve" smooth="yes"/>
      <point x="817" y="1700"/>
      <point x="836" y="1620"/>
      <point x="958" y="1620" type="curve" smooth="yes"/>
      <point x="1136" y="1620"/>
      <point x="1220" y="1765"/>
      <point x="1249" y="1882" type="curve"/>
      <point x="1083" y="1892" type="line"/>
      <point x="1067" y="1844"/>
      <point x="1043" y="1804"/>
      <point x="987" y="1804" type="curve" smooth="yes"/>
      <point x="904" y="1804"/>
      <point x="882" y="1884"/>
      <point x="751" y="1884" type="curve" smooth="yes"/>
      <point x="583" y="1884"/>
      <point x="485" y="1735"/>
      <point x="455" y="1627" type="curve"/>
    </contour>
    <contour>
      <point x="514" y="-17" type="curve" smooth="yes"/>
      <point x="917" y="-17"/>
      <point x="1172" y="330"/>
      <point x="1248" y="750" type="curve" smooth="yes"/>
      <point x="1261" y="820"/>
      <point x="1267" y="887"/>
      <point x="1267" y="952" type="curve" smooth="yes"/>
      <point x="1267" y="984"/>
      <point x="1264" y="1031"/>
      <point x="1258" y="1094" type="curve" smooth="yes"/>
      <point x="1251" y="1156"/>
      <point x="1229" y="1222"/>
      <point x="1191" y="1291" type="curve" smooth="yes"/>
      <point x="1115" y="1430"/>
      <point x="981" y="1517"/>
      <point x="785" y="1517" type="curve" smooth="yes"/>
      <point x="384" y="1517"/>
      <point x="123" y="1170"/>
      <point x="51" y="750" type="curve"/>
      <point x="-25" y="330"/>
      <point x="124" y="-17"/>
    </contour>
    <contour>
      <point x="892" y="721" type="curve" smooth="yes"/>
      <point x="855" y="506"/>
      <point x="767" y="226"/>
      <point x="562" y="226" type="curve" smooth="yes"/>
      <point x="413" y="226"/>
      <point x="378" y="368"/>
      <point x="378" y="513" type="curve" smooth="yes"/>
      <point x="378" y="518"/>
      <point x="378" y="532"/>
      <point x="379" y="555" type="curve"/>
      <point x="379" y="578"/>
      <point x="382" y="611"/>
      <point x="387" y="655" type="curve" smooth="yes"/>
      <point x="392" y="698"/>
      <point x="399" y="741"/>
      <point x="406" y="783" type="curve" smooth="yes"/>
      <point x="442" y="999"/>
      <point x="530" y="1274"/>
      <point x="736" y="1274" type="curve" smooth="yes"/>
      <point x="886" y="1274"/>
      <point x="921" y="1131"/>
      <point x="921" y="994" type="curve" smooth="yes"/>
      <point x="921" y="987"/>
      <point x="921" y="972"/>
      <point x="920" y="949" type="curve" smooth="yes"/>
      <point x="919" y="925"/>
      <point x="916" y="891"/>
      <point x="911" y="848" type="curve" smooth="yes"/>
      <point x="906" y="805"/>
      <point x="899" y="762"/>
    </contour>
  </outline>
</glyph>
<glyph name="multiply" format="2">
  <advance width="1300"/>
  <unicode hex="00D7"/>
  <outline>
    <contour>
      <point x="566" y="419" type="line"/>
      <point x="609" y="538" type="line"/>
      <point x="658" y="419" type="line"/>
      <point x="905" y="119" type="line"/>
      <point x="1118" y="269" type="line"/>
      <point x="817" y="633" type="line"/>
      <point x="1247" y="998" type="line"/>
      <point x="1086" y="1149" type="line"/>
      <point x="733" y="847" type="line"/>
      <point x="690" y="729" type="line"/>
      <point x="641" y="847" type="line"/>
      <point x="393" y="1149" type="line"/>
      <point x="180" y="998" type="line"/>
      <point x="481" y="633" type="line"/>
      <point x="51" y="269" type="line"/>
      <point x="212" y="119" type="line"/>
    </contour>
  </outline>
</glyph>
<glyph name="Oslash" format="2">
  <advance width="1300"/>
  <unicode hex="00D8"/>
  <outline>
    <contour>
      <point x="1180" y="1600" type="line"/>
      <point x="980" y="1600" type="line"/>
      <point x="929" y="1500" type="line"/>
      <point x="886" y="1511"/>
      <point x="838" y="1517"/>
      <point x="785" y="1517" type="curve" smooth="yes"/>
      <point x="384" y="1517"/>
      <point x="123" y="1170"/>
      <point x="51" y="750" type="curve"/>
      <point x="0" y="471"/>
      <point x="50" y="222"/>
      <point x="204" y="89" type="curve"/>
      <point x="212" y="81" type="line"/>
      <point x="121" y="-100" type="line"/>
      <point x="331" y="-100" type="line"/>
      <point x="380" y="-2" type="line"/>
      <point x="421" y="-12"/>
      <point x="465" y="-17"/>
      <point x="514" y="-17" type="curve" smooth="yes"/>
      <point x="917" y="-17"/>
      <point x="1172" y="330"/>
      <point x="1248" y="750" type="curve" smooth="yes"/>
      <point x="1261" y="820"/>
      <point x="1267" y="887"/>
      <point x="1267" y="952" type="curve" smooth="yes"/>
      <point x="1267" y="984"/>
      <point x="1264" y="1031"/>
      <point x="1258" y="1094" type="curve" smooth="yes"/>
      <point x="1251" y="1156"/>
      <point x="1229" y="1222"/>
      <point x="1191" y="1291" type="curve" smooth="yes"/>
      <point x="1164" y="1340"/>
      <point x="1130" y="1382"/>
      <point x="1088" y="1417" type="curve"/>
    </contour>
    <contour>
      <point x="384" y="420" type="line"/>
      <point x="380" y="449"/>
      <point x="378" y="480"/>
      <point x="378" y="513" type="curve" smooth="yes"/>
      <point x="378" y="527" type="line"/>
      <point x="379" y="610"/>
      <point x="391" y="699"/>
      <point x="406" y="783" type="curve"/>
      <point x="442" y="999"/>
      <point x="530" y="1274"/>
      <point x="736" y="1274" type="curve" smooth="yes"/>
      <point x="764" y="1274"/>
      <point x="788" y="1270"/>
      <point x="809" y="1261" type="curve"/>
    </contour>
    <contour>
      <point x="892" y="721" type="curve" smooth="yes"/>
      <point x="855" y="506"/>
      <point x="767" y="226"/>
      <point x="562" y="226" type="curve" smooth="yes"/>
      <point x="538" y="226"/>
      <point x="517" y="229"/>
      <point x="499" y="236" type="curve"/>
      <point x="916" y="1072" type="line"/>
      <point x="919" y="1046"/>
      <point x="921" y="1018"/>
      <point x="921" y="989" type="curve" smooth="yes"/>
      <point x="921" y="975" type="line"/>
      <point x="918" y="892"/>
      <point x="907" y="804"/>
    </contour>
  </outline>
</glyph>
<glyph name="Ugrave" format="2">
  <advance width="1300"/>
  <unicode hex="00D9"/>
  <outline>
    <contour>
      <point x="791" y="1900" type="line"/>
      <point x="458" y="1920" type="line"/>
      <point x="686" y="1600" type="line"/>
      <point x="901" y="1600" type="line"/>
    </contour>
    <contour>
      <point x="929" y="1500" type="line"/>
      <point x="756" y="516" type="line" smooth="yes"/>
      <point x="721" y="319"/>
      <point x="637" y="221"/>
      <point x="516" y="221" type="curve" smooth="yes"/>
      <point x="395" y="221"/>
      <point x="373" y="301"/>
      <point x="373" y="382" type="curve" smooth="yes"/>
      <point x="373" y="406"/>
      <point x="375" y="456"/>
      <point x="394" y="564" type="curve" smooth="yes"/>
      <point x="563" y="1520" type="line"/>
      <point x="186" y="1500" type="line"/>
      <point x="186" y="1263" type="line"/>
      <point x="66" y="582" type="line"/>
      <point x="53" y="512"/>
      <point x="47" y="447"/>
      <point x="47" y="386" type="curve" smooth="yes"/>
      <point x="47" y="369"/>
      <point x="48" y="339"/>
      <point x="51" y="294" type="curve" smooth="yes"/>
      <point x="54" y="249"/>
      <point x="70" y="201"/>
      <point x="100" y="148" type="curve" smooth="yes"/>
      <point x="159" y="43"/>
      <point x="272" y="-17"/>
      <point x="453" y="-17" type="curve" smooth="yes"/>
      <point x="789" y="-17"/>
      <point x="1027" y="163"/>
      <point x="1091" y="534" type="curve"/>
      <point x="1261" y="1500" type="line"/>
    </contour>
  </outline>
</glyph>
<glyph name="Uacute" format="2">
  <advance width="1300"/>
  <unicode hex="00DA"/>
  <outline>
    <contour>
      <point x="602" y="1600" type="line"/>
      <point x="817" y="1600" type="line"/>
      <point x="1159" y="1920" type="line"/>
      <point x="818" y="1900" type="line"/>
    </contour>
    <contour>
      <point x="929" y="1500" type="line"/>
      <point x="756" y="516" type="line" smooth="yes"/>
      <point x="721" y="319"/>
      <point x="637" y="221"/>
      <point x="516" y="221" type="curve" smooth="yes"/>
      <point x="395" y="221"/>
      <point x="373" y="301"/>
      <point x="373" y="382" type="curve" smooth="yes"/>
      <point x="373" y="406"/>
      <point x="375" y="456"/>
      <point x="394" y="564" type="curve" smooth="yes"/>
      <point x="563" y="1520" type="line"/>
      <point x="186" y="1500" type="line"/>
      <point x="186" y="1263" type="line"/>
      <point x="66" y="582" type="line"/>
      <point x="53" y="512"/>
      <point x="47" y="447"/>
      <point x="47" y="386" type="curve" smooth="yes"/>
      <point x="47" y="369"/>
      <point x="48" y="339"/>
      <point x="51" y="294" type="curve" smooth="yes"/>
      <point x="54" y="249"/>
      <point x="70" y="201"/>
      <point x="100" y="148" type="curve" smooth="yes"/>
      <point x="159" y="43"/>
      <point x="272" y="-17"/>
      <point x="453" y="-17" type="curve" smooth="yes"/>
      <point x="789" y="-17"/>
      <point x="1027" y="163"/>
      <point x="1091" y="534" type="curve"/>
      <point x="1261" y="1500" type="line"/>
    </contour>
  </outline>
</glyph>
<glyph name="Ucircumflex" format="2">
  <advance width="1300"/>
  <unicode hex="00DB"/>
  <outline>
    <contour>
      <point x="1003" y="1920" type="line"/>
      <point x="709" y="1900" type="line"/>
      <point x="465" y="1620" type="line"/>
      <point x="704" y="1620" type="line"/>
      <point x="803" y="1723" type="line"/>
      <point x="856" y="1850" type="line"/>
      <point x="863" y="1723" type="line"/>
      <point x="915" y="1620" type="line"/>
      <point x="1135" y="1620" type="line"/>
    </contour>
    <contour>
      <point x="929" y="1500" type="line"/>
      <point x="756" y="516" type="line" smooth="yes"/>
      <point x="721" y="319"/>
      <point x="637" y="221"/>
      <point x="516" y="221" type="curve" smooth="yes"/>
      <point x="395" y="221"/>
      <point x="373" y="301"/>
      <point x="373" y="382" type="curve" smooth="yes"/>
      <point x="373" y="406"/>
      <point x="375" y="456"/>
      <point x="394" y="564" type="curve" smooth="yes"/>
      <point x="563" y="1520" type="line"/>
      <point x="186" y="1500" type="line"/>
      <point x="186" y="1263" type="line"/>
      <point x="66" y="582" type="line"/>
      <point x="53" y="512"/>
      <point x="47" y="447"/>
      <point x="47" y="386" type="curve" smooth="yes"/>
      <point x="47" y="369"/>
      <point x="48" y="339"/>
      <point x="51" y="294" type="curve" smooth="yes"/>
      <point x="54" y="249"/>
      <point x="70" y="201"/>
      <point x="100" y="148" type="curve" smooth="yes"/>
      <point x="159" y="43"/>
      <point x="272" y="-17"/>
      <point x="453" y="-17" type="curve" smooth="yes"/>
      <point x="789" y="-17"/>
      <point x="1027" y="163"/>
      <point x="1091" y="534" type="curve"/>
      <point x="1261" y="1500" type="line"/>
    </contour>
  </outline>
</glyph>
<glyph name="Yacute" format="2">
  <advance width="1300"/>
  <unicode hex="00DD"/>
  <outline>
    <contour>
      <point x="362" y="1520" type="line"/>
      <point x="19" y="1500" type="line"/>
      <point x="298" y="650" type="line"/>
      <point x="183" y="0" type="line"/>
      <point x="534" y="0" type="line"/>
      <point x="649" y="650" type="line"/>
      <point x="1232" y="1500" type="line"/>
      <point x="897" y="1500" type="line"/>
      <point x="652" y="1143" type="line"/>
      <point x="529" y="773" type="line"/>
      <point x="487" y="1143" type="line"/>
    </contour>
    <contour>
      <point x="400" y="1600" type="line"/>
      <point x="615" y="1600" type="line"/>
      <point x="957" y="1920" type="line"/>
      <point x="616" y="1900" type="line"/>
    </contour>
  </outline>
</glyph>
<glyph name="Thorn" format="2">
  <advance width="1300"/>
  <unicode hex="00DE"/>
  <outline>
    <contour>
      <point x="310" y="1267" type="line"/>
      <point x="86" y="0" type="line"/>
      <point x="428" y="0" type="line"/>
      <point x="495" y="381" type="line"/>
      <point x="571" y="381" type="line" smooth="yes"/>
      <point x="708" y="381"/>
      <point x="795" y="406"/>
      <point x="870" y="438" type="curve"/>
      <point x="1107" y="545"/>
      <point x="1174" y="730"/>
      <point x="1201" y="882" type="curve" smooth="yes"/>
      <point x="1206" y="911"/>
      <point x="1209" y="939"/>
      <point x="1209" y="964" type="curve" smooth="yes"/>
      <point x="1209" y="986"/>
      <point x="1206" y="1013"/>
      <point x="1200" y="1044" type="curve" smooth="yes"/>
      <point x="1188" y="1106"/>
      <point x="1145" y="1175"/>
      <point x="1085" y="1219" type="curve" smooth="yes"/>
      <point x="995" y="1285"/>
      <point x="876" y="1311"/>
      <point x="773" y="1311" type="curve" smooth="yes"/>
      <point x="659" y="1311" type="line"/>
      <point x="693" y="1500" type="line"/>
      <point x="310" y="1500" type="line"/>
    </contour>
    <contour>
      <point x="706" y="1093" type="line" smooth="yes"/>
      <point x="771" y="1093"/>
      <point x="817" y="1077"/>
      <point x="844" y="1046" type="curve" smooth="yes"/>
      <point x="871" y="1014"/>
      <point x="884" y="976"/>
      <point x="884" y="933" type="curve" smooth="yes"/>
      <point x="884" y="917"/>
      <point x="882" y="900"/>
      <point x="879" y="882" type="curve" smooth="yes"/>
      <point x="850" y="725"/>
      <point x="772" y="605"/>
      <point x="639" y="605" type="curve" smooth="yes"/>
      <point x="535" y="605" type="line"/>
      <point x="621" y="1093" type="line"/>
    </contour>
  </outline>
</glyph>
<glyph name="germandbls" format="2">
  <advance width="1300"/>
  <unicode hex="00DF"/>
  <outline>
    <contour>
      <point x="617" y="1119" type="line" smooth="yes"/>
      <point x="637" y="1231"/>
      <point x="690" y="1276"/>
      <point x="785" y="1276" type="curve" smooth="yes"/>
      <point x="818" y="1276"/>
      <point x="849" y="1258"/>
      <point x="867" y="1227" type="curve" smooth="yes"/>
      <point x="885" y="1196"/>
      <point x="888" y="1163"/>
      <point x="888" y="1142" type="curve" smooth="yes"/>
      <point x="888" y="1131"/>
      <point x="887" y="1119"/>
      <point x="885" y="1107" type="curve" smooth="yes"/>
      <point x="861" y="977"/>
      <point x="757" y="915"/>
      <point x="609" y="902" type="curve"/>
      <point x="665" y="681" type="line"/>
      <point x="733" y="681"/>
      <point x="788" y="664"/>
      <point x="822" y="628" type="curve" smooth="yes"/>
      <point x="856" y="592"/>
      <point x="861" y="546"/>
      <point x="861" y="513" type="curve" smooth="yes"/>
      <point x="861" y="496"/>
      <point x="859" y="477"/>
      <point x="856" y="457" type="curve" smooth="yes"/>
      <point x="829" y="300"/>
      <point x="704" y="228"/>
      <point x="509" y="224" type="curve"/>
      <point x="551" y="0" type="line"/>
      <point x="806" y="0"/>
      <point x="1134" y="121"/>
      <point x="1194" y="466" type="curve" smooth="yes"/>
      <point x="1198" y="487"/>
      <point x="1200" y="508"/>
      <point x="1200" y="528" type="curve" smooth="yes"/>
      <point x="1200" y="572"/>
      <point x="1190" y="630"/>
      <point x="1145" y="686" type="curve" smooth="yes"/>
      <point x="1100" y="742"/>
      <point x="1032" y="783"/>
      <point x="952" y="811" type="curve"/>
      <point x="1088" y="875"/>
      <point x="1197" y="984"/>
      <point x="1216" y="1127" type="curve" smooth="yes"/>
      <point x="1219" y="1147"/>
      <point x="1220" y="1166"/>
      <point x="1220" y="1184" type="curve" smooth="yes"/>
      <point x="1220" y="1245"/>
      <point x="1203" y="1305"/>
      <point x="1146" y="1373" type="curve" smooth="yes"/>
      <point x="1078" y="1453"/>
      <point x="961" y="1489"/>
      <point x="825" y="1489" type="curve" smooth="yes"/>
      <point x="539" y="1489"/>
      <point x="314" y="1349"/>
      <point x="266" y="1073" type="curve" smooth="yes"/>
      <point x="78" y="0" type="line"/>
      <point x="417" y="-17" type="line"/>
    </contour>
  </outline>
</glyph>
<glyph name="agrave" format="2">
  <advance width="1300"/>
  <unicode hex="00E0"/>
  <outline>
    <contour>
      <point x="854" y="1500" type="line"/>
      <point x="521" y="1520" type="line"/>
      <point x="749" y="1200" type="line"/>
      <point x="964" y="1200" type="line"/>
    </contour>
    <contour>
      <point x="484" y="-16" type="curve"/>
      <point x="504" y="-16" type="line" smooth="yes"/>
      <point x="533" y="-16"/>
      <point x="553" y="-13"/>
      <point x="568" y="-10" type="curve"/>
      <point x="723" y="162" type="line"/>
      <point x="695" y="0" type="line"/>
      <point x="1017" y="0" type="line"/>
      <point x="1031" y="209" type="line"/>
      <point x="1174" y="1043" type="line"/>
      <point x="1097" y="1080"/>
      <point x="1008" y="1099"/>
      <point x="936" y="1108" type="curve" smooth="yes"/>
      <point x="895" y="1113"/>
      <point x="854" y="1116"/>
      <point x="813" y="1117" type="curve"/>
      <point x="397" y="1117"/>
      <point x="184" y="832"/>
      <point x="148" y="542" type="curve"/>
      <point x="142" y="500"/>
      <point x="139" y="458"/>
      <point x="139" y="416" type="curve" smooth="yes"/>
      <point x="139" y="414"/>
      <point x="139" y="401"/>
      <point x="140" y="378" type="curve"/>
      <point x="140" y="354"/>
      <point x="144" y="322"/>
      <point x="152" y="281" type="curve" smooth="yes"/>
      <point x="159" y="240"/>
      <point x="171" y="201"/>
      <point x="188" y="166" type="curve"/>
      <point x="236" y="60"/>
      <point x="332" y="-14"/>
    </contour>
    <contour>
      <point x="745" y="329" type="line"/>
      <point x="705" y="279"/>
      <point x="632" y="209"/>
      <point x="541" y="209" type="curve" smooth="yes"/>
      <point x="502" y="209"/>
      <point x="475" y="243"/>
      <point x="460" y="299" type="curve" smooth="yes"/>
      <point x="445" y="354"/>
      <point x="446" y="406"/>
      <point x="446" y="427" type="curve" smooth="yes"/>
      <point x="446" y="454"/>
      <point x="447" y="481"/>
      <point x="450" y="510" type="curve" smooth="yes"/>
      <point x="471" y="717"/>
      <point x="580" y="893"/>
      <point x="779" y="893" type="curve"/>
      <point x="788" y="892"/>
      <point x="813" y="889"/>
      <point x="840" y="885" type="curve"/>
    </contour>
  </outline>
</glyph>
<glyph name="acircumflex" format="2">
  <advance width="1300"/>
  <unicode hex="00E2"/>
  <outline>
    <contour>
      <point x="1011" y="1520" type="line"/>
      <point x="717" y="1500" type="line"/>
      <point x="473" y="1220" type="line"/>
      <point x="712" y="1220" type="line"/>
      <point x="811" y="1323" type="line"/>
      <point x="864" y="1450" type="line"/>
      <point x="871" y="1323" type="line"/>
      <point x="923" y="1220" type="line"/>
      <point x="1143" y="1220" type="line"/>
    </contour>
    <contour>
      <point x="484" y="-16" type="curve"/>
      <point x="504" y="-16" type="line" smooth="yes"/>
      <point x="533" y="-16"/>
      <point x="553" y="-13"/>
      <point x="568" y="-10" type="curve"/>
      <point x="723" y="162" type="line"/>
      <point x="695" y="0" type="line"/>
      <point x="1017" y="0" type="line"/>
      <point x="1031" y="209" type="line"/>
      <point x="1174" y="1043" type="line"/>
      <point x="1097" y="1080"/>
      <point x="1008" y="1099"/>
      <point x="936" y="1108" type="curve" smooth="yes"/>
      <point x="895" y="1113"/>
      <point x="854" y="1116"/>
      <point x="813" y="1117" type="curve"/>
      <point x="397" y="1117"/>
      <point x="184" y="832"/>
      <point x="148" y="542" type="curve"/>
      <point x="142" y="500"/>
      <point x="139" y="458"/>
      <point x="139" y="416" type="curve" smooth="yes"/>
      <point x="139" y="414"/>
      <point x="139" y="401"/>
      <point x="140" y="378" type="curve"/>
      <point x="140" y="354"/>
      <point x="144" y="322"/>
      <point x="152" y="281" type="curve" smooth="yes"/>
      <point x="159" y="240"/>
      <point x="171" y="201"/>
      <point x="188" y="166" type="curve"/>
      <point x="236" y="60"/>
      <point x="332" y="-14"/>
    </contour>
    <contour>
      <point x="745" y="329" type="line"/>
      <point x="705" y="279"/>
      <point x="632" y="209"/>
      <point x="541" y="209" type="curve" smooth="yes"/>
      <point x="502" y="209"/>
      <point x="475" y="243"/>
      <point x="460" y="299" type="curve" smooth="yes"/>
      <point x="445" y="354"/>
      <point x="446" y="406"/>
      <point x="446" y="427" type="curve" smooth="yes"/>
      <point x="446" y="454"/>
      <point x="447" y="481"/>
      <point x="450" y="510" type="curve" smooth="yes"/>
      <point x="471" y="717"/>
      <point x="580" y="893"/>
      <point x="779" y="893" type="curve"/>
      <point x="788" y="892"/>
      <point x="813" y="889"/>
      <point x="840" y="885" type="curve"/>
    </contour>
  </outline>
</glyph>
<glyph name="atilde" format="2">
  <advance width="1300"/>
  <unicode hex="00E3"/>
  <outline>
    <contour>
      <point x="581" y="1240" type="line"/>
      <point x="597" y="1280"/>
      <point x="622" y="1320"/>
      <point x="668" y="1320" type="curve" smooth="yes"/>
      <point x="762" y="1320"/>
      <point x="781" y="1240"/>
      <point x="903" y="1240" type="curve" smooth="yes"/>
      <point x="1081" y="1240"/>
      <point x="1165" y="1385"/>
      <point x="1194" y="1502" type="curve"/>
      <point x="1028" y="1512" type="line"/>
      <point x="1012" y="1464"/>
      <point x="988" y="1424"/>
      <point x="932" y="1424" type="curve" smooth="yes"/>
      <point x="849" y="1424"/>
      <point x="827" y="1504"/>
      <point x="696" y="1504" type="curve" smooth="yes"/>
      <point x="528" y="1504"/>
      <point x="430" y="1355"/>
      <point x="400" y="1247" type="curve"/>
    </contour>
    <contour>
      <point x="484" y="-16" type="curve"/>
      <point x="504" y="-16" type="line" smooth="yes"/>
      <point x="533" y="-16"/>
      <point x="553" y="-13"/>
      <point x="568" y="-10" type="curve"/>
      <point x="723" y="162" type="line"/>
      <point x="695" y="0" type="line"/>
      <point x="1017" y="0" type="line"/>
      <point x="1031" y="209" type="line"/>
      <point x="1174" y="1043" type="line"/>
      <point x="1097" y="1080"/>
      <point x="1008" y="1099"/>
      <point x="936" y="1108" type="curve" smooth="yes"/>
      <point x="895" y="1113"/>
      <point x="854" y="1116"/>
      <point x="813" y="1117" type="curve"/>
      <point x="397" y="1117"/>
      <point x="184" y="832"/>
      <point x="148" y="542" type="curve"/>
      <point x="142" y="500"/>
      <point x="139" y="458"/>
      <point x="139" y="416" type="curve" smooth="yes"/>
      <point x="139" y="414"/>
      <point x="139" y="401"/>
      <point x="140" y="378" type="curve"/>
      <point x="140" y="354"/>
      <point x="144" y="322"/>
      <point x="152" y="281" type="curve" smooth="yes"/>
      <point x="159" y="240"/>
      <point x="171" y="201"/>
      <point x="188" y="166" type="curve"/>
      <point x="236" y="60"/>
      <point x="332" y="-14"/>
    </contour>
    <contour>
      <point x="745" y="329" type="line"/>
      <point x="705" y="279"/>
      <point x="632" y="209"/>
      <point x="541" y="209" type="curve" smooth="yes"/>
      <point x="502" y="209"/>
      <point x="475" y="243"/>
      <point x="460" y="299" type="curve" smooth="yes"/>
      <point x="445" y="354"/>
      <point x="446" y="406"/>
      <point x="446" y="427" type="curve" smooth="yes"/>
      <point x="446" y="454"/>
      <point x="447" y="481"/>
      <point x="450" y="510" type="curve" smooth="yes"/>
      <point x="471" y="717"/>
      <point x="580" y="893"/>
      <point x="779" y="893" type="curve"/>
      <point x="788" y="892"/>
      <point x="813" y="889"/>
      <point x="840" y="885" type="curve"/>
    </contour>
  </outline>
</glyph>
<glyph name="aring" format="2">
  <advance width="1300"/>
  <unicode hex="00E5"/>
  <outline>
    <contour>
      <point x="484" y="-16" type="curve"/>
      <point x="504" y="-16" type="line" smooth="yes"/>
      <point x="533" y="-16"/>
      <point x="553" y="-13"/>
      <point x="568" y="-10" type="curve"/>
      <point x="723" y="162" type="line"/>
      <point x="695" y="0" type="line"/>
      <point x="1017" y="0" type="line"/>
      <point x="1031" y="209" type="line"/>
      <point x="1174" y="1043" type="line"/>
      <point x="1097" y="1080"/>
      <point x="1008" y="1099"/>
      <point x="936" y="1108" type="curve" smooth="yes"/>
      <point x="912" y="1111"/>
      <point x="888" y="1114"/>
      <point x="865" y="1115" type="curve"/>
      <point x="882" y="1119"/>
      <point x="899" y="1124"/>
      <point x="916" y="1131" type="curve" smooth="yes"/>
      <point x="1025" y="1177"/>
      <point x="1112" y="1278"/>
      <point x="1134" y="1397" type="curve" smooth="yes"/>
      <point x="1137" y="1414"/>
      <point x="1138" y="1431"/>
      <point x="1138" y="1447" type="curve" smooth="yes"/>
      <point x="1138" y="1490"/>
      <point x="1129" y="1547"/>
      <point x="1087" y="1599" type="curve" smooth="yes"/>
      <point x="1045" y="1650"/>
      <point x="979" y="1682"/>
      <point x="900" y="1682" type="curve" smooth="yes"/>
      <point x="744" y="1682"/>
      <point x="591" y="1554"/>
      <point x="564" y="1397" type="curve" smooth="yes"/>
      <point x="561" y="1380"/>
      <point x="559" y="1363"/>
      <point x="559" y="1346" type="curve" smooth="yes"/>
      <point x="559" y="1325"/>
      <point x="563" y="1301"/>
      <point x="570" y="1274" type="curve" smooth="yes"/>
      <point x="585" y="1219"/>
      <point x="629" y="1162"/>
      <point x="694" y="1131" type="curve" smooth="yes"/>
      <point x="709" y="1124"/>
      <point x="725" y="1118"/>
      <point x="742" y="1114" type="curve"/>
      <point x="699" y="1111"/>
      <point x="659" y="1104"/>
      <point x="622" y="1095" type="curve" smooth="yes"/>
      <point x="331" y="1019"/>
      <point x="178" y="786"/>
      <point x="148" y="542" type="curve"/>
      <point x="142" y="500"/>
      <point x="139" y="458"/>
      <point x="139" y="416" type="curve" smooth="yes"/>
      <point x="139" y="414"/>
      <point x="139" y="401"/>
      <point x="140" y="378" type="curve"/>
      <point x="140" y="354"/>
      <point x="144" y="322"/>
      <point x="152" y="281" type="curve" smooth="yes"/>
      <point x="159" y="240"/>
      <point x="171" y="201"/>
      <point x="188" y="166" type="curve"/>
      <point x="236" y="60"/>
      <point x="332" y="-14"/>
    </contour>
    <contour>
      <point x="833" y="1297" type="curve" smooth="yes"/>
      <point x="774" y="1297"/>
      <point x="751" y="1350"/>
      <point x="751" y="1378" type="curve" smooth="yes"/>
      <point x="751" y="1384"/>
      <point x="752" y="1390"/>
      <point x="753" y="1396" type="curve" smooth="yes"/>
      <point x="761" y="1449"/>
      <point x="815" y="1493"/>
      <point x="867" y="1493" type="curve" smooth="yes"/>
      <point x="926" y="1493"/>
      <point x="948" y="1443"/>
      <point x="948" y="1412" type="curve" smooth="yes"/>
      <point x="948" y="1407"/>
      <point x="948" y="1401"/>
      <point x="947" y="1396" type="curve" smooth="yes"/>
      <point x="936" y="1343"/>
      <point x="887" y="1297"/>
    </contour>
    <contour>
      <point x="745" y="329" type="line"/>
      <point x="705" y="279"/>
      <point x="632" y="209"/>
      <point x="541" y="209" type="curve" smooth="yes"/>
      <point x="502" y="209"/>
      <point x="475" y="243"/>
      <point x="460" y="299" type="curve" smooth="yes"/>
      <point x="445" y="354"/>
      <point x="446" y="406"/>
      <point x="446" y="427" type="curve" smooth="yes"/>
      <point x="446" y="454"/>
      <point x="447" y="481"/>
      <point x="450" y="510" type="curve" smooth="yes"/>
      <point x="471" y="717"/>
      <point x="580" y="893"/>
      <point x="779" y="893" type="curve"/>
      <point x="788" y="892"/>
      <point x="813" y="889"/>
      <point x="840" y="885" type="curve"/>
    </contour>
  </outline>
</glyph>
<glyph name="ae" format="2">
  <advance width="1300"/>
  <unicode hex="00E6"/>
  <outline>
    <contour>
      <point x="577" y="87" type="curve"/>
      <point x="641" y="18"/>
      <point x="747" y="-17"/>
      <point x="816" y="-17" type="curve" smooth="yes"/>
      <point x="952" y="-17"/>
      <point x="1043" y="11"/>
      <point x="1155" y="118" type="curve"/>
      <point x="1197" y="161" type="line"/>
      <point x="1055" y="299" type="line"/>
      <point x="1008" y="248"/>
      <point x="957" y="203"/>
      <point x="888" y="200" type="curve"/>
      <point x="811" y="204"/>
      <point x="769" y="247"/>
      <point x="769" y="322" type="curve" smooth="yes"/>
      <point x="769" y="331" type="line" smooth="yes"/>
      <point x="769" y="360"/>
      <point x="772" y="390"/>
      <point x="777" y="421" type="curve" smooth="yes"/>
      <point x="780" y="436"/>
      <point x="782" y="451"/>
      <point x="785" y="466" type="curve"/>
      <point x="1210" y="466" type="line"/>
      <point x="1261" y="586"/>
      <point x="1299" y="705"/>
      <point x="1299" y="826" type="curve" smooth="yes"/>
      <point x="1299" y="1034"/>
      <point x="1160" y="1117"/>
      <point x="985" y="1117" type="curve" smooth="yes"/>
      <point x="897" y="1117"/>
      <point x="811" y="1095"/>
      <point x="742" y="1051" type="curve"/>
      <point x="706" y="1088"/>
      <point x="645" y="1117"/>
      <point x="561" y="1117" type="curve" smooth="yes"/>
      <point x="453" y="1117"/>
      <point x="360" y="1094"/>
      <point x="292" y="1071" type="curve" smooth="yes"/>
      <point x="252" y="1058"/>
      <point x="216" y="1042"/>
      <point x="183" y="1025" type="curve"/>
      <point x="250" y="836" type="line"/>
      <point x="269" y="847"/>
      <point x="289" y="856"/>
      <point x="311" y="864" type="curve"/>
      <point x="348" y="879"/>
      <point x="395" y="892"/>
      <point x="446" y="892" type="curve" smooth="yes"/>
      <point x="494" y="892"/>
      <point x="493" y="851"/>
      <point x="493" y="835" type="curve" smooth="yes"/>
      <point x="493" y="814"/>
      <point x="488" y="783"/>
      <point x="480" y="734" type="curve"/>
      <point x="469" y="735"/>
      <point x="458" y="736"/>
      <point x="447" y="736" type="curve" smooth="yes"/>
      <point x="443" y="736" type="line"/>
      <point x="441" y="736" type="line"/>
      <point x="440" y="736" type="line"/>
      <point x="438" y="736" type="line"/>
      <point x="437" y="736" type="line"/>
      <point x="436" y="736" type="line"/>
      <point x="433" y="736" type="line"/>
      <point x="432" y="736" type="line"/>
      <point x="431" y="736" type="line"/>
      <point x="430" y="736" type="line"/>
      <point x="412" y="736" type="line"/>
      <point x="410" y="736" type="line" smooth="yes"/>
      <point x="191" y="736"/>
      <point x="55" y="614"/>
      <point x="11" y="358" type="curve" smooth="yes"/>
      <point x="4" y="320"/>
      <point x="1" y="285"/>
      <point x="1" y="253" type="curve" smooth="yes"/>
      <point x="1" y="181"/>
      <point x="21" y="118"/>
      <point x="61" y="64" type="curve" smooth="yes"/>
      <point x="101" y="10"/>
      <point x="180" y="-17"/>
      <point x="297" y="-17" type="curve" smooth="yes"/>
      <point x="424" y="-17"/>
      <point x="516" y="27"/>
    </contour>
    <contour>
      <point x="828" y="768" type="line"/>
      <point x="846" y="815"/>
      <point x="889" y="892"/>
      <point x="970" y="892" type="curve" smooth="yes"/>
      <point x="1057" y="892"/>
      <point x="1060" y="806"/>
      <point x="1060" y="794" type="curve" smooth="yes"/>
      <point x="1060" y="785"/>
      <point x="1059" y="776"/>
      <point x="1058" y="768" type="curve" smooth="yes"/>
      <point x="1043" y="681" type="line"/>
      <point x="733" y="681" type="line"/>
    </contour>
    <contour>
      <point x="402" y="294" type="line"/>
      <point x="397" y="277"/>
      <point x="390" y="263"/>
      <point x="382" y="251" type="curve" smooth="yes"/>
      <point x="367" y="228"/>
      <point x="345" y="208"/>
      <point x="309" y="208" type="curve" smooth="yes"/>
      <point x="280" y="208"/>
      <point x="261" y="219"/>
      <point x="252" y="240" type="curve" smooth="yes"/>
      <point x="242" y="261"/>
      <point x="237" y="283"/>
      <point x="237" y="306" type="curve" smooth="yes"/>
      <point x="237" y="322"/>
      <point x="239" y="340"/>
      <point x="242" y="359" type="curve" smooth="yes"/>
      <point x="261" y="471"/>
      <point x="366" y="513"/>
      <point x="432" y="513" type="curve" smooth="yes"/>
      <point x="441" y="513" type="line"/>
    </contour>
  </outline>
</glyph>
